<?xml version="1.0" encoding="UTF-8"?>
<svg xmlns="http://www.w3.org/2000/svg" viewBox="0 0 5000 4000">
  <defs>
    <style>
      .cls-1 {
        fill: #ecf3fe;
      }

      .cls-2 {
        fill: #fff;
      }

      .cls-3 {
        fill: #1f3a6f;
      }

      .cls-4 {
        fill: #92afcc;
      }

      .cls-5 {
        fill: #3b77a8;
      }

      .cls-6 {
        isolation: isolate;
      }

      .cls-7 {
        fill: #f4b545;
      }

      .cls-8 {
        fill: #b7cae5;
      }

      .cls-9 {
        fill: #15315e;
      }

      .cls-10 {
        fill: #fbb188;
      }

      .cls-11 {
        fill: #e59d29;
      }

      .cls-12 {
        fill: #444343;
      }

      .cls-13 {
        fill: #dfe5ea;
      }

      .cls-14 {
        fill: #5693db;
      }

      .cls-15 {
        fill: #ffd6bb;
      }

      .cls-16 {
        fill: #474747;
        opacity: .29;
      }

      .cls-17 {
        mix-blend-mode: multiply;
        opacity: .4;
      }

      .cls-17, .cls-18 {
        fill: #7d95b7;
      }

      .cls-19 {
        fill: #515151;
      }

      .cls-20 {
        fill: #9fb8d6;
      }

      .cls-21 {
        fill: #7f9fba;
      }

      .cls-22 {
        fill: #d7e3f4;
      }

      .cls-23 {
        fill: #4987c4;
      }

      .cls-24 {
        fill: #fdc8aa;
      }

      .cls-25 {
        fill: #e4ecf9;
      }

      .cls-18 {
        opacity: .5;
      }
    </style>
  </defs>
  <g class="cls-6">
    <g id="Layer_1" data-name="Layer 1">
      <g>
        <rect class="cls-2" width="5000" height="4000"/>
        <g>
          <path class="cls-1" d="M1613.2,3398.49s-692.71-235.98-523.18-697.78c169.52-461.8,394.58-673.38,157.83-1052.78-236.75-379.4,298.4-659.98,1099.11-654.14,800.71,5.85,2095.37,832.92,1072.46,2404.7H1613.2Z"/>
          <path class="cls-8" d="M1689.82,3361.35l129.85-204.18s-194.24,171.7-194.24,168.49-147.85-330.53-147.85-330.53c0,0,74.87,306.91,72.73,351.99,0,0-74.96-68.23-110.46-73.82-35.49-5.59,48.76,64.09,48.67,104.95h193.54s7.75-16.89,7.75-16.89Z"/>
          <path class="cls-8" d="M1579.75,1972.25l-19.07-67.26,142.51-77.47,128.36,431.66c8.25,27.23,14.55,44.78,18.86,52.71,4.5,8.27,10.09,13.63,16.78,16.05,6.66,2.44,12.89,2.09,18.65-1.04,19.44-10.57,37.65-36.9,54.61-79,16.99-42.1,25.01-91.22,24.1-147.37-.92-56.15-15.47-110.13-43.65-161.96-23.48-43.18-53.77-79.4-90.88-108.65-37.11-29.24-78.77-49.49-124.99-60.73-46.2-11.25-96.38-12.41-150.5-3.5-54.15,8.93-110.01,29.03-167.58,60.32-58.67,31.9-108.31,68.79-148.94,110.68-40.62,41.91-71.7,87.25-93.21,136.01-21.52,48.75-33.25,100.95-35.18,156.54-2,48.64,3.38,98.41,16.12,149.29,12.74,50.89,31.74,99.55,56.97,145.96,33.65,61.9,76.75,111.81,129.28,149.67,52.52,37.89,111.72,61.42,177.57,70.62,65.84,9.21,136,2.99,210.51-18.62,74.5-21.63,151.34-59.55,230.5-113.77,62.27-44.12,110.46-89.89,144.58-137.35,34.1-47.45,56.22-100.05,66.34-157.75l114.98-62.51c2.23,48.67-3.48,96.31-17.09,142.86-13.62,46.58-34.96,91.15-64,133.76-29.06,42.6-65.67,82.91-109.82,120.9-44.16,37.99-95.74,73.03-154.77,105.12-88.53,48.13-174.54,79.86-258.06,95.18-83.53,15.33-161.38,14.29-233.55-3.12-72.17-17.41-137.16-49.69-194.95-96.84-57.81-47.14-106.66-107.41-146.57-180.83-41.67-76.65-67.82-155.22-78.48-235.7-10.62-80.46-5.28-158.33,16.05-233.57,21.33-75.24,59.11-145.53,113.32-210.93,54.23-65.36,123.07-120.74,206.56-166.13,68.38-37.18,136.52-61.27,204.42-72.32,67.88-11.04,132.35-8.89,193.37,6.43,61.03,15.33,116.18,42.8,165.47,82.45,49.28,39.63,90.77,90.41,124.42,152.31,26.21,48.22,43.25,100.15,51.11,155.8,7.86,55.63,5.72,110.65-6.44,165.04-12.15,54.41-34.19,104.14-66.09,149.22-31.89,45.1-73.05,81.33-123.42,108.71-29.15,15.85-54.51,23.24-76.09,22.13-21.57-1.09-40.93-10.97-58.07-29.63-14.49,47.99-39.86,87.07-76.13,117.27-36.27,30.22-77.74,47.85-124.39,52.94-46.65,5.09-91.85-4.5-135.56-28.76-43.73-24.25-80.37-63.54-109.91-117.88-30.72-56.5-48.79-118.72-54.24-186.62-5.44-67.91,4.76-131.5,30.58-190.77,25.84-59.26,66.98-104.26,123.49-134.98,64.77-35.21,125.5-36.75,182.13-4.59Zm-143.27,440.17c23.48,43.18,50.47,71.4,80.99,84.65,30.52,13.25,60.36,11.95,89.51-3.9,33.81-18.38,56.27-48.08,67.32-89.06,11.05-40.97,12.04-85.68,2.96-134.14-9.09-48.43-24.1-91.92-45.04-130.43-10.36-19.06-21.96-35.04-34.77-47.88-12.81-12.85-26.76-22.63-41.84-29.37-15.08-6.7-30.44-9.66-46.07-8.86-15.65,.81-31.39,5.52-47.22,14.13-31.68,17.22-53.5,45.05-65.46,83.49-11.98,38.44-14.1,81.08-6.34,127.92,7.74,46.85,23.05,91.32,45.95,133.44Z"/>
          <g>
            <path class="cls-8" d="M3178.31,2875.95l-55.13,84.51c22.81,21.63,54.56,33.63,88.32,30.34,30.56-2.98,57.05-17.95,75.31-39.76,3.11,10.2,6.52,21.45,10.16,33.41,12.83,42.12,28.2,92.78,41.03,135.34-32.53,137.31-60.78,258.08-60.78,263.29,0,12.3,220.25,0,220.25,0,0,0-3.59-61.13-8.36-144.98l72.55-78.38,13.09-14.1s.04-.09,.04-.09c22.42,23.64,57.62,29.73,86.48,15.59l-26.53-53.29,66.73,1.62c4.25-20.32-.04-42.34-13.62-60.21-24.87-32.71-71.5-39.06-104.21-14.19-26.8,20.36-35.86,55.3-24.65,85.3-1.71,1.18-3.46,2.41-5.3,3.63-18.92,12.96-44.71,29.73-68.48,44.88-3.81-68.35-7.88-143.66-11.25-210.74-1.27-25.4-2.45-49.65-3.46-71.9,25.44,13.62,54.47,21.32,85.3,21.32,88.01,0,161.35-62.66,177.77-145.85l-142.48-27.19,101.54-126.94c-33.19-38.23-82.19-62.4-136.83-62.4-100.05,0-181.14,81.14-181.14,181.19,0,38.44,12,74.13,32.45,103.47-2.63,10.99-5.39,22.59-8.28,34.68-10.42,43.57-22.29,93.31-34.46,144.41-16.07-26.75-32.88-54.65-47.25-78.29-3.41-5.69-6.74-11.12-9.85-16.24,4.86-14.49,6.87-30.21,5.3-46.41-6-61.83-60.99-107.1-122.78-101.1-54.38,5.3-95.94,48.38-101.1,100.8l89.63,8.28Z"/>
            <path class="cls-4" d="M3398.82,2864.52c17.12,33.23,50.75,69.62,75.14,93.61-1.27-25.4-2.45-49.65-3.46-71.9-43-24.74-59.9-54.78-63.4-56.4-2.63,10.99-5.39,22.59-8.28,34.68Z"/>
            <path class="cls-4" d="M3286.82,2951.04c3.11,10.2,6.52,21.45,10.16,33.41,7.27-12.87,17.03-32.8,20.14-53.81-3.41-5.69-6.74-11.12-9.85-16.24,0,0-7.4,21.32-20.45,36.65Z"/>
            <path class="cls-4" d="M3553.69,3124c1.49,9.5,4.95,24.17,7.97,35.73l13.09-14.1s.04-.09,.04-.09c-8.41-9.02-15.81-25.18-15.81-25.18-1.71,1.18-3.46,2.41-5.3,3.63Z"/>
          </g>
          <g>
            <path class="cls-4" d="M3210.01,1727.49c-.95,0-1.9-.43-2.51-1.25-1.05-1.39-.77-3.36,.62-4.41,2.71-2.05,5.51-4.1,8.31-6.09,1.41-1.01,3.38-.68,4.39,.73,1.01,1.41,.68,3.38-.73,4.39-2.75,1.96-5.5,3.98-8.17,5.99-.57,.43-1.23,.63-1.89,.63Z"/>
            <path class="cls-4" d="M2853.98,2460.13c-.32,0-.65-.05-.98-.16-1.65-.54-2.55-2.32-2.01-3.97,2.09-6.38,4.31-12.89,6.6-19.36,.58-1.64,2.38-2.49,4.01-1.92,1.64,.58,2.5,2.38,1.92,4.02-2.27,6.42-4.48,12.89-6.55,19.22-.43,1.33-1.67,2.17-2.99,2.17Zm13.59-38.42c-.37,0-.75-.06-1.12-.21-1.62-.62-2.44-2.44-1.82-4.06,2.41-6.34,4.92-12.74,7.47-19.03,.65-1.61,2.49-2.39,4.1-1.73,1.61,.65,2.39,2.49,1.73,4.1-2.53,6.24-5.03,12.6-7.42,18.9-.48,1.26-1.67,2.03-2.94,2.03Zm15.32-37.75c-.42,0-.84-.08-1.25-.26-1.59-.69-2.33-2.54-1.64-4.14,2.7-6.24,5.49-12.52,8.32-18.67,.73-1.58,2.59-2.27,4.17-1.55,1.58,.72,2.27,2.59,1.55,4.17-2.8,6.11-5.58,12.34-8.26,18.54-.51,1.19-1.67,1.9-2.89,1.9Zm17-37.01c-.46,0-.93-.1-1.38-.32-1.56-.76-2.21-2.64-1.45-4.21,2.99-6.13,6.08-12.28,9.17-18.26,.8-1.54,2.7-2.15,4.24-1.35,1.54,.8,2.15,2.7,1.35,4.24-3.07,5.94-6.13,12.04-9.1,18.13-.54,1.12-1.67,1.77-2.83,1.77Zm535.26-4.48s-.07,0-.11,0c-6.66-.23-13.57-.73-20.52-1.47-1.73-.18-2.98-1.73-2.8-3.46,.18-1.73,1.73-2.97,3.46-2.79,6.81,.72,13.56,1.21,20.07,1.44,1.74,.06,3.09,1.52,3.03,3.26-.06,1.7-1.46,3.04-3.14,3.04Zm20.34-.12c-1.67,0-3.06-1.31-3.14-2.99-.09-1.73,1.25-3.21,2.99-3.29,6.84-.33,13.54-.99,19.93-1.95,1.72-.26,3.32,.93,3.58,2.64,.26,1.72-.93,3.32-2.65,3.58-6.6,.99-13.51,1.66-20.56,2.01-.05,0-.1,0-.16,0Zm-60.78-4.12c-.17,0-.35-.01-.53-.04-6.59-1.12-13.36-2.46-20.12-4-1.69-.38-2.76-2.07-2.37-3.76,.38-1.69,2.07-2.76,3.76-2.37,6.65,1.51,13.3,2.83,19.78,3.93,1.71,.29,2.87,1.92,2.57,3.63-.26,1.54-1.59,2.62-3.1,2.62Zm100.93-2.02c-1.38,0-2.65-.92-3.03-2.31-.46-1.68,.53-3.41,2.2-3.87,6.54-1.79,12.86-4,18.78-6.55,1.6-.69,3.45,.05,4.13,1.64,.69,1.6-.05,3.45-1.64,4.14-6.19,2.67-12.78,4.97-19.6,6.84-.28,.08-.56,.11-.83,.11Zm-140.6-6.95c-.28,0-.57-.04-.85-.12-6.51-1.82-13.1-3.84-19.6-5.99-1.65-.55-2.54-2.33-2-3.98,.55-1.65,2.33-2.54,3.98-2,6.4,2.12,12.9,4.11,19.32,5.9,1.67,.47,2.65,2.2,2.18,3.88-.39,1.39-1.65,2.3-3.03,2.3Zm177.75-9.23c-1.04,0-2.06-.51-2.66-1.46-.93-1.46-.5-3.41,.96-4.34,5.59-3.56,10.88-7.59,15.72-12,1.28-1.17,3.27-1.08,4.44,.21,1.17,1.28,1.07,3.27-.21,4.44-5.11,4.64-10.68,8.9-16.57,12.65-.52,.33-1.11,.49-1.69,.49Zm-216.38-3.56c-.37,0-.76-.07-1.13-.21-6.44-2.47-12.81-5.09-18.96-7.79-1.59-.7-2.31-2.56-1.61-4.15,.7-1.59,2.55-2.31,4.15-1.61,6.05,2.66,12.34,5.24,18.68,7.68,1.62,.62,2.43,2.44,1.81,4.06-.48,1.25-1.67,2.02-2.94,2.02Zm-397.82-5.69c-.51,0-1.03-.12-1.51-.39-1.52-.83-2.08-2.75-1.25-4.27,3.28-5.98,6.66-11.97,10.05-17.79,.87-1.5,2.8-2.01,4.3-1.14,1.5,.87,2.01,2.8,1.14,4.3-3.36,5.78-6.72,11.72-9.97,17.66-.57,1.04-1.65,1.63-2.76,1.63Zm360.6-10.73c-.48,0-.97-.11-1.42-.34-.8-.41-1.6-.82-2.38-1.22-5.22-2.7-10.48-5.62-15.63-8.65-1.5-.88-1.99-2.81-1.11-4.31,.88-1.5,2.81-2,4.31-1.11,5.05,2.98,10.2,5.83,15.32,8.48,.77,.4,1.55,.8,2.34,1.2,1.55,.79,2.17,2.68,1.38,4.23-.55,1.09-1.66,1.72-2.81,1.72Zm283.54-7.25c-.68,0-1.36-.22-1.93-.67-1.37-1.07-1.61-3.05-.54-4.42,3.99-5.11,7.66-10.67,10.92-16.55,.84-1.52,2.76-2.07,4.28-1.22,1.52,.84,2.07,2.76,1.22,4.28-3.42,6.16-7.28,12-11.47,17.37-.62,.79-1.55,1.21-2.48,1.21Zm-318.57-13.39c-.61,0-1.22-.17-1.76-.54-5.61-3.78-11.22-7.81-16.67-11.97-1.38-1.05-1.65-3.03-.59-4.41,1.05-1.38,3.03-1.65,4.41-.59,5.36,4.09,10.87,8.04,16.38,11.75,1.44,.97,1.82,2.93,.85,4.37-.61,.9-1.6,1.39-2.61,1.39Zm-305.09-3.82c-.56,0-1.13-.15-1.65-.47-1.48-.91-1.94-2.85-1.02-4.33,3.59-5.82,7.28-11.62,10.97-17.25,.95-1.45,2.9-1.86,4.36-.91,1.45,.95,1.86,2.9,.91,4.36-3.66,5.58-7.32,11.33-10.88,17.1-.59,.96-1.63,1.49-2.68,1.49Zm643.43-18.17c-.38,0-.76-.07-1.13-.21-1.62-.62-2.43-2.44-1.81-4.07,2.34-6.08,4.34-12.48,5.95-19.02,.42-1.69,2.12-2.72,3.81-2.3,1.69,.42,2.72,2.12,2.3,3.81-1.68,6.8-3.76,13.45-6.19,19.77-.48,1.25-1.67,2.02-2.94,2.02Zm-370.69-2.65c-.72,0-1.45-.25-2.04-.76-5.16-4.41-10.29-9.04-15.24-13.75-1.26-1.2-1.31-3.19-.11-4.45,1.2-1.26,3.19-1.31,4.45-.11,4.87,4.64,9.91,9.19,14.98,13.53,1.32,1.13,1.48,3.11,.35,4.43-.62,.73-1.5,1.1-2.39,1.1Zm-250.43-13.22c-.62,0-1.25-.18-1.8-.56-1.43-.99-1.78-2.95-.78-4.38,3.9-5.6,7.91-11.18,11.93-16.6,1.03-1.4,3-1.69,4.4-.65,1.4,1.04,1.69,3.01,.65,4.4-3.98,5.37-7.96,10.91-11.83,16.45-.61,.88-1.59,1.35-2.58,1.35Zm220.96-14.84c-.84,0-1.67-.33-2.29-.99-4.67-4.94-9.28-10.08-13.69-15.28-1.13-1.32-.97-3.31,.36-4.43,1.32-1.12,3.31-.96,4.43,.36,4.35,5.11,8.88,10.17,13.48,15.03,1.19,1.26,1.14,3.25-.13,4.45-.61,.57-1.38,.86-2.16,.86Zm409.94-8.67c-.13,0-.27,0-.4-.03-1.72-.22-2.94-1.8-2.72-3.52,.84-6.53,1.33-13.24,1.46-19.94,.03-1.72,1.44-3.08,3.14-3.08,.02,0,.04,0,.06,0,1.74,.03,3.12,1.47,3.08,3.21-.14,6.92-.65,13.86-1.51,20.61-.2,1.59-1.56,2.75-3.12,2.75Zm-606.65-9.17c-.68,0-1.37-.22-1.95-.68-1.36-1.08-1.59-3.06-.52-4.42,4.24-5.36,8.6-10.69,12.94-15.83,1.12-1.33,3.11-1.49,4.43-.37,1.33,1.12,1.49,3.11,.37,4.43-4.3,5.09-8.62,10.37-12.81,15.67-.62,.78-1.54,1.19-2.47,1.19Zm170.34-13.16c-.95,0-1.88-.42-2.5-1.23-4.14-5.4-8.19-10.98-12.05-16.6-.98-1.43-.62-3.39,.81-4.37,1.43-.98,3.39-.62,4.37,.81,3.8,5.52,7.79,11.02,11.86,16.34,1.06,1.38,.79,3.35-.58,4.41-.57,.44-1.24,.65-1.91,.65Zm-144.06-17.91c-.75,0-1.51-.27-2.11-.81-1.29-1.17-1.39-3.16-.22-4.44,4.58-5.06,9.28-10.08,13.99-14.92,1.21-1.24,3.2-1.27,4.45-.06,1.25,1.21,1.27,3.2,.06,4.45-4.66,4.79-9.31,9.76-13.84,14.76-.62,.69-1.48,1.04-2.33,1.04Zm581.2-.36c-1.62,0-2.99-1.24-3.13-2.88-.56-6.64-1.46-13.31-2.7-19.83-.32-1.71,.8-3.35,2.51-3.68,1.71-.32,3.35,.8,3.68,2.51,1.27,6.73,2.21,13.61,2.79,20.47,.14,1.73-1.14,3.25-2.87,3.4-.09,0-.18,.01-.27,.01Zm-460.19-15.25c-1.06,0-2.09-.53-2.68-1.5-3.57-5.81-7.03-11.78-10.28-17.74-.83-1.53-.27-3.44,1.26-4.27,1.52-.83,3.44-.27,4.27,1.26,3.2,5.87,6.6,11.74,10.12,17.46,.91,1.48,.45,3.42-1.03,4.33-.51,.32-1.08,.47-1.64,.47Zm-92.65-13.56c-.83,0-1.66-.33-2.27-.97-1.2-1.26-1.15-3.25,.1-4.45,4.94-4.72,10.01-9.38,15.07-13.85,1.3-1.15,3.29-1.03,4.44,.27,1.15,1.3,1.03,3.29-.27,4.44-4.99,4.41-10,9.01-14.89,13.68-.61,.58-1.39,.87-2.17,.87Zm545.26-11.09c-1.35,0-2.6-.87-3.01-2.23-1.95-6.44-4.26-12.75-6.87-18.75-.69-1.59,.04-3.45,1.63-4.14,1.59-.69,3.45,.04,4.14,1.63,2.7,6.22,5.09,12.76,7.12,19.43,.5,1.66-.43,3.42-2.1,3.92-.3,.09-.61,.14-.91,.14Zm-472.07-11.06c-1.17,0-2.3-.66-2.84-1.79-2.95-6.16-5.76-12.46-8.36-18.73-.67-1.6,.1-3.45,1.7-4.11,1.6-.67,3.45,.1,4.11,1.7,2.56,6.17,5.32,12.36,8.22,18.42,.75,1.57,.09,3.45-1.48,4.2-.44,.21-.9,.31-1.36,.31Zm-42.7-4.77c-.91,0-1.82-.4-2.44-1.16-1.1-1.35-.89-3.33,.45-4.43,5.29-4.31,10.72-8.55,16.14-12.59,1.39-1.04,3.36-.75,4.4,.64,1.04,1.39,.75,3.36-.64,4.4-5.35,3.99-10.71,8.18-15.93,12.43-.58,.47-1.29,.71-1.98,.71Zm498.55-21.37c-1.07,0-2.12-.55-2.71-1.54-1.86-3.13-3.83-6.19-5.86-9.09-1.73-2.47-3.56-4.91-5.44-7.26-1.09-1.36-.87-3.34,.49-4.42,1.36-1.09,3.34-.87,4.42,.49,1.97,2.45,3.88,5.01,5.69,7.59,2.12,3.03,4.18,6.23,6.12,9.49,.89,1.49,.39,3.42-1.1,4.31-.5,.3-1.06,.44-1.6,.44Zm-465.96-2.95c-1.01,0-1.99-.48-2.6-1.37-.98-1.44-.61-3.39,.83-4.37,5.65-3.85,11.43-7.6,17.17-11.15,1.48-.91,3.42-.45,4.33,1.03,.91,1.48,.45,3.42-1.02,4.33-5.67,3.5-11.37,7.2-16.94,10.99-.54,.37-1.16,.55-1.77,.55Zm-5.45-8.47c-1.3,0-2.51-.81-2.97-2.1-2.27-6.46-4.37-13.03-6.26-19.54-.48-1.67,.48-3.41,2.15-3.9,1.67-.48,3.41,.48,3.9,2.15,1.85,6.39,3.92,12.85,6.15,19.2,.58,1.64-.29,3.43-1.92,4.01-.35,.12-.7,.18-1.04,.18Zm40.05-12.88c-1.11,0-2.18-.58-2.75-1.62-.84-1.52-.3-3.43,1.22-4.28,5.96-3.31,12.06-6.51,18.13-9.52,1.56-.77,3.44-.13,4.22,1.42,.77,1.56,.13,3.44-1.42,4.22-5.98,2.96-11.99,6.12-17.87,9.38-.48,.27-1.01,.4-1.52,.4Zm405.99-7.29c-.77,0-1.54-.28-2.15-.85-4.77-4.45-9.96-8.67-15.44-12.54-1.42-1-1.76-2.97-.75-4.38,1-1.42,2.97-1.76,4.38-.75,5.71,4.03,11.13,8.43,16.1,13.08,1.27,1.19,1.34,3.18,.15,4.45-.62,.66-1.46,1-2.3,1Zm-369.57-10.74c-1.21,0-2.37-.7-2.88-1.89-.7-1.59,.03-3.45,1.62-4.14,6.23-2.72,12.61-5.33,18.96-7.74,1.62-.62,3.44,.2,4.06,1.82,.62,1.62-.2,3.44-1.82,4.06-6.25,2.38-12.54,4.95-18.67,7.63-.41,.18-.84,.26-1.26,.26Zm-87.76-8.15c-1.44,0-2.73-.99-3.06-2.45-1.52-6.69-2.84-13.46-3.94-20.14-.28-1.71,.88-3.33,2.59-3.61,1.71-.28,3.33,.88,3.61,2.59,1.08,6.56,2.38,13.21,3.87,19.77,.38,1.69-.68,3.38-2.37,3.76-.23,.05-.47,.08-.7,.08Zm424.26-4.58c-.5,0-1.01-.12-1.48-.37-5.71-3.06-11.81-5.9-18.11-8.43-1.61-.65-2.39-2.48-1.74-4.09,.65-1.61,2.48-2.39,4.09-1.74,6.51,2.62,12.81,5.56,18.73,8.72,1.53,.82,2.11,2.73,1.29,4.26-.57,1.06-1.65,1.66-2.78,1.66Zm-298.53-1.73c-1.33,0-2.56-.84-2.99-2.17-.54-1.65,.37-3.43,2.02-3.96,3.4-1.11,6.84-2.18,10.23-3.19,.6-.18,3.85-1.14,9.47-2.61,1.68-.44,3.4,.57,3.84,2.25,.44,1.68-.57,3.4-2.25,3.84-5.52,1.44-8.69,2.38-9.27,2.55-3.34,.99-6.73,2.05-10.08,3.14-.32,.1-.65,.15-.97,.15Zm39.32-10.52c-1.44,0-2.74-1-3.07-2.46-.38-1.7,.69-3.38,2.38-3.76,6.58-1.47,13.32-2.86,20.03-4.14,1.71-.33,3.35,.79,3.68,2.5,.33,1.71-.79,3.35-2.5,3.68-6.65,1.27-13.32,2.65-19.84,4.11-.23,.05-.46,.08-.69,.08Zm221.6-3.01c-.3,0-.6-.04-.9-.13-6.22-1.85-12.76-3.51-19.46-4.94-1.7-.36-2.78-2.03-2.42-3.73,.36-1.7,2.03-2.78,3.73-2.42,6.86,1.46,13.57,3.16,19.95,5.06,1.67,.5,2.61,2.25,2.12,3.91-.41,1.37-1.66,2.25-3.01,2.25Zm-181.62-4.63c-1.52,0-2.86-1.1-3.1-2.65-.27-1.72,.89-3.33,2.61-3.6,6.76-1.08,13.57-2.06,20.24-2.91,1.73-.21,3.3,1,3.52,2.72,.22,1.72-1,3.3-2.72,3.52-6.61,.84-13.35,1.81-20.05,2.88-.17,.03-.34,.04-.5,.04Zm141.89-3.9c-.15,0-.3-.01-.45-.03-6.46-.91-13.2-1.66-20.04-2.22-1.73-.14-3.02-1.66-2.88-3.39,.14-1.73,1.67-3.02,3.39-2.88,6.96,.57,13.82,1.33,20.4,2.26,1.72,.24,2.92,1.84,2.67,3.56-.22,1.57-1.57,2.7-3.11,2.7Zm-101.52-1.23c-1.61,0-2.98-1.22-3.13-2.85-.16-1.73,1.11-3.26,2.84-3.42,6.87-.64,13.74-1.16,20.41-1.53,1.72-.1,3.22,1.23,3.32,2.96,.1,1.73-1.23,3.22-2.96,3.32-6.59,.37-13.38,.88-20.18,1.51-.1,0-.2,.01-.3,.01Zm60.98-2.13s-.06,0-.1,0c-6.57-.19-13.45-.24-20.2-.13-1.78,.04-3.17-1.36-3.2-3.1-.03-1.74,1.36-3.17,3.1-3.2,6.84-.11,13.82-.06,20.49,.14,1.74,.05,3.1,1.5,3.05,3.24-.05,1.7-1.45,3.05-3.14,3.05Zm-312.97-8.39c-1.6,0-2.96-1.21-3.13-2.83-.69-6.82-1.17-13.71-1.42-20.49-.06-1.74,1.29-3.2,3.03-3.26,1.74-.06,3.2,1.29,3.26,3.03,.25,6.65,.71,13.41,1.39,20.09,.18,1.73-1.08,3.27-2.81,3.45-.11,.01-.21,.02-.32,.02Zm-1.49-40.63s-.06,0-.09,0c-1.74-.05-3.1-1.5-3.05-3.24,.2-6.84,.63-13.74,1.28-20.51,.17-1.73,1.71-3,3.43-2.83,1.73,.17,3,1.7,2.83,3.43-.64,6.63-1.06,13.38-1.26,20.08-.05,1.71-1.45,3.06-3.14,3.06Zm3.92-40.46c-.17,0-.35-.01-.52-.04-1.71-.29-2.87-1.91-2.59-3.62,1.12-6.74,2.5-13.52,4.08-20.15,.4-1.69,2.1-2.73,3.79-2.33,1.69,.4,2.73,2.1,2.33,3.79-1.55,6.49-2.9,13.12-4,19.72-.26,1.54-1.59,2.63-3.1,2.63Zm9.46-39.53c-.31,0-.63-.05-.95-.15-1.66-.52-2.58-2.29-2.06-3.94,2.04-6.5,4.35-13.02,6.85-19.38,.64-1.62,2.46-2.41,4.08-1.78,1.62,.64,2.41,2.46,1.78,4.08-2.45,6.22-4.7,12.6-6.7,18.96-.42,1.34-1.66,2.2-3,2.2Zm14.86-37.83c-.45,0-.91-.1-1.35-.31-1.57-.75-2.24-2.62-1.49-4.19,2.92-6.13,6.09-12.27,9.44-18.25,.85-1.51,2.77-2.05,4.28-1.21,1.52,.85,2.05,2.77,1.21,4.28-3.28,5.85-6.39,11.87-9.25,17.87-.54,1.13-1.67,1.8-2.84,1.8Zm19.87-35.46c-.59,0-1.18-.16-1.71-.51-1.46-.95-1.87-2.9-.92-4.35,3.69-5.68,7.64-11.35,11.74-16.85,1.04-1.39,3.01-1.68,4.4-.65,1.39,1.04,1.68,3.01,.64,4.4-4.02,5.4-7.89,10.96-11.51,16.53-.6,.93-1.61,1.43-2.64,1.43Zm24.27-32.62c-.72,0-1.44-.24-2.03-.74-1.33-1.12-1.5-3.1-.38-4.43,4.37-5.17,8.97-10.32,13.69-15.29,1.2-1.26,3.19-1.31,4.45-.12,1.26,1.2,1.31,3.19,.12,4.45-4.64,4.88-9.16,9.94-13.45,15.02-.62,.74-1.51,1.12-2.41,1.12Zm27.99-29.5c-.84,0-1.67-.33-2.29-.99-1.19-1.26-1.13-3.26,.13-4.45,4.94-4.64,10.09-9.23,15.32-13.64,1.33-1.12,3.31-.95,4.43,.38,1.12,1.33,.95,3.31-.38,4.43-5.14,4.33-10.21,8.85-15.07,13.41-.61,.57-1.38,.85-2.16,.85Z"/>
            <path class="cls-4" d="M2845.14,2489.09c-.28,0-.57-.04-.86-.12-1.67-.47-2.64-2.21-2.17-3.88,.72-2.54,1.67-5.85,2.86-9.86,.5-1.66,2.25-2.61,3.91-2.11,1.66,.5,2.61,2.25,2.11,3.91-1.18,3.97-2.13,7.25-2.84,9.77-.39,1.39-1.65,2.29-3.03,2.29Z"/>
          </g>
          <ellipse class="cls-8" cx="2464.36" cy="3398.49" rx="1100.16" ry="58.57"/>
          <path class="cls-17" d="M3273.6,2493.09c0-.72-.05-1.5-.14-2.22-.05-.87-.15-1.74-.29-2.6-.1-.72-.19-1.45-.34-2.17-.1-.72-.24-1.4-.39-2.12-.19-.92-.39-1.78-.63-2.7-.48-1.83-1.01-3.67-1.69-5.45,0-.05-.05-.1-.05-.14-.43-1.11-.87-2.22-1.35-3.28-1.69-3.96-3.81-7.67-6.32-11.1-.58-.82-1.21-1.64-1.88-2.46-1.45-1.83-2.99-3.52-4.63-5.11-.53-.53-1.06-1.06-1.64-1.54-.72-.68-1.45-1.35-2.27-1.98-.1-.1-.24-.19-.39-.29l-3.09-2.36s0-.05-.05,0l-88.96-67.53v-288.52c0-58.9-47.75-106.66-106.66-106.66h-413.9l-123.99-94.13c-21.57-16.4-51.43-16.4-72.99,0l-124,94.13h-433.53c-58.9,0-106.66,47.75-106.66,106.66v303.39l-69.38,52.66-3.09,2.36c-.15,.1-.29,.19-.39,.29-8.15,6.71-14.47,15.53-18.14,25.62-2.32,6.37-3.57,13.22-3.57,20.36v832.79c0,.9,.02,1.78,.07,2.65,0,.21,.02,.42,.03,.63,.02,.33,.05,.65,.07,.97,.05,.76,.11,1.51,.19,2.26,.01,.1,.01,.19,.03,.29,0,0,0,0,0,.01,.03,.26,.08,.51,.11,.77,.08,.59,.15,1.19,.24,1.77,.03,.21,.05,.42,.08,.63,.05,.14,.05,.34,.1,.48,.04,.21,.09,.42,.13,.63,.12,.66,.26,1.31,.4,1.96,.06,.25,.12,.51,.18,.76,.19,.82,.41,1.63,.64,2.44,.04,.13,.07,.26,.1,.39,.05,.14,.09,.29,.13,.43,.11,.38,.23,.76,.35,1.14,.07,.22,.15,.43,.22,.64,.42,1.26,.88,2.5,1.38,3.73,.03,.08,.06,.16,.09,.23,0,.01,.01,.03,.02,.04,.37,.89,.76,1.77,1.17,2.64,.2,.42,.41,.84,.62,1.25,.28,.55,.57,1.11,.84,1.66,.07,.12,.14,.24,.21,.36,.12,.22,.24,.43,.37,.64,.15,.26,.31,.52,.46,.78,.22,.37,.44,.75,.67,1.12,.25,.41,.51,.81,.77,1.21,.37,.57,.75,1.13,1.14,1.68,.09,.13,.18,.27,.28,.4,.02,.03,.04,.06,.06,.08,.04,.06,.1,.12,.14,.18,1.58,2.19,3.31,4.26,5.17,6.21,0,0,0,0,.01,.01,.47,.49,.93,.97,1.42,1.45,.19,.18,.38,.36,.57,.54,.58,.56,1.18,1.1,1.78,1.64,.34,.3,.68,.6,1.02,.89,.49,.41,.98,.8,1.48,1.2,.4,.31,.79,.63,1.19,.94,.78,.58,1.58,1.15,2.39,1.69,.5,.34,1.01,.65,1.52,.97,.42,.27,.84,.53,1.27,.79,.36,.22,.72,.44,1.09,.65,.23,.14,.45,.27,.68,.41,.2,.11,.42,.2,.62,.3,.2,.11,.4,.2,.6,.31,.48,.25,.96,.51,1.46,.75,.94,.46,1.88,.89,2.85,1.3,.26,.11,.52,.2,.78,.31,.83,.34,1.66,.66,2.51,.96,.12,.04,.24,.1,.36,.14,.26,.09,.54,.17,.81,.26,.95,.31,1.9,.6,2.87,.87,.14,.04,.28,.08,.42,.12,.56,.15,1.12,.28,1.68,.42,.29,.07,.57,.15,.86,.21,.07,.01,.13,.04,.21,.05,1.07,.23,2.19,.46,3.31,.61,.08,.01,.16,.03,.24,.04,.35,.05,.71,.09,1.07,.14,.07,0,.13,.02,.2,.03,.09,.02,.19,.02,.28,.03,.61,.08,1.22,.16,1.83,.22,.12,0,.23,.03,.35,.04,.17,.01,.34,.02,.52,.03,.33,.03,.66,.05,.98,.07,1.29,.08,2.59,.14,3.9,.14h1471.3c1.37,0,2.72-.06,4.06-.15,.45-.03,.9-.06,1.34-.09,.24,0,.43-.05,.63-.05,.34-.05,.72-.1,1.06-.14,.19,0,.39-.05,.58-.05,.43-.05,.82-.1,1.21-.15,.05-.05,.1-.05,.19-.05,.24-.05,.48-.09,.73-.14,.45-.08,.91-.16,1.36-.24,.21-.03,.42-.05,.61-.1,.08-.02,.15-.03,.22-.05,1.16-.24,2.3-.52,3.44-.82,.16-.04,.32-.09,.47-.13,1.17-.32,2.32-.68,3.46-1.07,.19-.05,.42-.14,.6-.19,.19-.05,.34-.14,.53-.19,.12-.04,.23-.1,.34-.14,1.06-.4,2.1-.83,3.13-1.28,.49-.22,.98-.43,1.47-.66,1.16-.55,2.3-1.13,3.41-1.75,.04-.03,.09-.05,.14-.07,.35-.18,.7-.4,1.06-.62,.36-.21,.72-.42,1.08-.63,.03-.02,.06-.03,.09-.05,.43-.24,.87-.53,1.3-.82,.12-.07,.26-.18,.39-.27,.5-.33,.98-.67,1.47-1.02,.42-.3,.86-.6,1.28-.89,.1-.1,.19-.19,.29-.24,.12-.09,.22-.19,.34-.28,.84-.65,1.66-1.32,2.47-2.01,.01-.01,.03-.02,.04-.03,.1-.1,.24-.19,.34-.29,.04-.04,.07-.07,.11-.1,.52-.46,1.04-.93,1.55-1.4,.12-.11,.25-.21,.37-.33,.16-.16,.3-.31,.46-.46,1.83-1.78,3.53-3.68,5.12-5.69,.31-.39,.62-.78,.92-1.18,.04-.05,.08-.11,.12-.16,.22-.29,.44-.57,.66-.86,.19-.32,.4-.62,.62-.93,.74-1.07,1.44-2.15,2.11-3.27,.18-.29,.34-.59,.51-.86,.24-.43,.48-.82,.72-1.25,.24-.43,.48-.92,.68-1.3,.18-.34,.34-.69,.51-1.04,.06-.12,.12-.24,.18-.37,.39-.83,.77-1.67,1.14-2.5,.05-.14,.1-.29,.14-.39,.14-.42,.33-.84,.51-1.3,0-.02,.02-.05,.03-.07,.13-.28,.23-.55,.32-.82,.07-.2,.14-.4,.21-.6,.01-.04,.03-.07,.04-.11,.04-.04,.03-.07,.04-.11,.07-.2,.13-.4,.2-.6,.12-.34,.24-.67,.34-1.01,.12-.37,.23-.75,.35-1.12,.05-.15,.09-.29,.13-.44,.05-.1,.1-.24,.1-.34,.04-.18,.1-.38,.15-.57,.18-.65,.34-1.31,.5-1.98,.02-.1,.06-.2,.07-.3,0-.02,0-.03,0-.05,.1-.43,.21-.85,.3-1.29,0-.03,.02-.08,.03-.11,0-.05,.01-.11,.03-.17,.06-.31,.11-.62,.17-.93,.09-.44,.18-.88,.24-1.31,.01-.11,.03-.22,.05-.33,.02-.15,.05-.3,.07-.45,.05-.33,.09-.66,.13-1,.02-.18,.05-.35,.07-.53,.04-.25,.08-.5,.12-.79,0-.19,.05-.38,.05-.58,.03-.33,.05-.64,.07-.95,.14-1.64,.22-3.3,.22-4.98v-832.79c0-1.01-.05-2.07-.1-3.09Z"/>
          <g>
            <path class="cls-13" d="M3322.51,2496.18v832.79c0,1.01-.05,2.03-.1,3.09,0,.48-.05,.96-.1,1.45,0,.43-.05,.92-.1,1.4,0,.19-.05,.39-.05,.58-.05,.34-.1,.63-.14,.92-.05,.72-.19,1.45-.29,2.17-.1,.68-.24,1.4-.39,2.07-.05,.34-.14,.68-.24,1.01,0,.24-.05,.53-.14,.77-.05,.34-.14,.68-.24,1.01-.14,.63-.34,1.25-.48,1.83,0,.1-.05,.24-.1,.34-.34,1.06-.63,2.12-1.01,3.14,0,.05,0,.1-.05,.15-.19,.53-.39,1.06-.58,1.54-.19,.48-.39,.92-.53,1.35-.05,.14-.14,.29-.14,.39-.58,1.3-1.16,2.65-1.83,3.91-.19,.39-.43,.87-.68,1.3-.24,.43-.48,.82-.72,1.25-.24,.39-.43,.82-.72,1.21-.48,.82-1.01,1.64-1.54,2.41-.34,.53-.68,.96-.96,1.45-.82,1.06-1.59,2.12-2.46,3.14-.63,.77-1.25,1.5-1.88,2.17-.63,.72-1.3,1.4-1.98,2.07-.29,.34-.63,.63-.96,.97-.29,.29-.58,.58-.92,.82-.34,.34-.72,.68-1.11,1.01-.1,.1-.24,.19-.34,.29-.92,.82-1.88,1.59-2.85,2.32-.1,.05-.19,.14-.29,.24-.77,.53-1.54,1.11-2.36,1.64-.29,.19-.53,.39-.77,.53-.43,.29-.87,.58-1.3,.82-.34,.24-.68,.43-1.06,.63-.39,.24-.77,.48-1.16,.68-2.7,1.54-5.55,2.85-8.49,3.91-.19,.05-.34,.14-.53,.19-.19,.05-.43,.14-.63,.19-.68,.24-1.35,.48-2.07,.68-1.21,.39-2.41,.68-3.62,.96-.63,.14-1.25,.29-1.88,.43-.39,.1-.82,.14-1.21,.19-.48,.1-1.01,.19-1.5,.29-.1,0-.14,0-.19,.05-.39,.05-.77,.1-1.21,.14-.19,0-.39,.05-.58,.05-.34,.05-.72,.1-1.06,.14-.19,0-.39,.05-.63,.05-.72,.05-1.5,.1-2.22,.14-1.06,.05-2.12,.1-3.18,.1H1791.63c-1.06,0-2.12-.05-3.18-.1-.72-.05-1.5-.1-2.22-.14-.82-.05-1.64-.14-2.46-.29-.48-.05-.96-.1-1.4-.19-1.16-.14-2.32-.39-3.42-.63-.34-.05-.63-.14-.96-.24-1.21-.29-2.41-.58-3.62-.96-.72-.24-1.4-.43-2.07-.68-3.23-1.11-6.37-2.51-9.36-4.1-.72-.43-1.45-.87-2.17-1.3-.82-.48-1.64-1.01-2.41-1.54-4.78-3.23-9.02-7.09-12.69-11.53-.87-1.01-1.69-2.07-2.46-3.18-2.65-3.67-4.87-7.62-6.61-11.87-.39-.96-.77-2.03-1.16-3.04-.39-1.01-.68-2.07-1.01-3.14-.29-1.06-.58-2.12-.82-3.18-.24-1.01-.43-1.98-.63-2.99-.05-.14-.05-.34-.1-.48-.14-.96-.29-1.98-.39-2.94-.05-.05-.05-.14-.05-.24-.1-.77-.14-1.5-.19-2.27-.14-1.5-.19-2.99-.19-4.53v-832.79c0-7.14,1.25-13.99,3.57-20.36,3.67-10.08,9.99-18.91,18.14-25.62,.1-.1,.24-.19,.39-.29l3.09-2.36c9.7-6.9,21.57-10.95,34.4-10.95h1471.3c1.45,0,2.85,.05,4.25,.19,.24-.05,.53,0,.77,.05,1.35,.1,2.75,.24,4.05,.43,.29,.05,.63,.1,.92,.14,1.16,.19,2.32,.43,3.42,.72,.29,.05,.58,.1,.87,.19,1.4,.34,2.75,.72,4.1,1.16,1.25,.39,2.56,.87,3.76,1.35,1.74,.68,3.42,1.5,5.06,2.37,.92,.43,1.83,.92,2.7,1.45,1.54,.87,3.04,1.83,4.44,2.9,.05-.05,.05,0,.05,0l3.09,2.36c.14,.1,.29,.19,.39,.29,.82,.63,1.54,1.3,2.27,1.98,.58,.48,1.11,1.01,1.64,1.54,1.64,1.59,3.18,3.28,4.63,5.11,.68,.82,1.3,1.64,1.88,2.46,2.51,3.42,4.63,7.14,6.32,11.1,.48,1.06,.92,2.17,1.35,3.28,0,.05,.05,.1,.05,.14,.68,1.78,1.21,3.62,1.69,5.45,.24,.92,.43,1.79,.63,2.7,.14,.72,.29,1.4,.39,2.12,.14,.72,.24,1.45,.34,2.17,.14,.87,.24,1.74,.29,2.6,.1,.72,.14,1.5,.14,2.22,.05,1.01,.1,2.07,.1,3.09Z"/>
            <path class="cls-5" d="M3318.94,2475.82H1735.61c3.67-10.08,9.99-18.91,18.14-25.62,.1-.1,.24-.19,.39-.29l3.09-2.36,733.55-556.84c21.57-16.4,51.43-16.4,72.99,0l733.5,556.84s.05,0,.05,0l3.09,2.36c.14,.1,.29,.19,.39,.29,.82,.63,1.54,1.3,2.27,1.98,.58,.48,1.11,1.01,1.64,1.54,1.64,1.59,3.18,3.28,4.63,5.11,.68,.82,1.3,1.64,1.88,2.46,2.51,3.42,4.63,7.14,6.32,11.1,.48,1.06,.92,2.17,1.35,3.28,0,.05,.05,.1,.05,.14Z"/>
            <path class="cls-2" d="M1933.26,1984.84h1168.4c58.86,0,106.66,47.79,106.66,106.66v1253.7H1826.6v-1253.7c0-58.86,47.79-106.66,106.66-106.66Z"/>
            <path class="cls-25" d="M2009.82,2223.13h1015.28c14.27,0,25.86,11.59,25.86,25.86v11c0,14.27-11.59,25.86-25.86,25.86h-1015.28c-14.27,0-25.86-11.59-25.86-25.86v-11c0-14.27,11.59-25.86,25.86-25.86Z"/>
            <path class="cls-25" d="M2009.82,2357.12h1015.28c14.27,0,25.86,11.59,25.86,25.86v10.99c0,14.27-11.59,25.86-25.86,25.86h-1015.28c-14.27,0-25.86-11.59-25.86-25.86v-11c0-14.27,11.59-25.86,25.86-25.86Z"/>
            <rect class="cls-25" x="1983.96" y="2491.11" width="1067" height="62.72" rx="25.86" ry="25.86"/>
            <path class="cls-25" d="M2009.82,2625.09h1015.28c14.27,0,25.86,11.59,25.86,25.86v10.99c0,14.27-11.59,25.86-25.86,25.86h-1015.28c-14.27,0-25.86-11.59-25.86-25.86v-11c0-14.27,11.59-25.86,25.86-25.86Z"/>
            <path class="cls-25" d="M2009.82,2759.08h1015.28c14.27,0,25.86,11.59,25.86,25.86v11c0,14.27-11.59,25.86-25.86,25.86h-1015.28c-14.27,0-25.86-11.59-25.86-25.86v-11c0-14.27,11.59-25.86,25.86-25.86Z"/>
            <path class="cls-23" d="M2527.3,2934.91v.05c-2.32,2.51-5.06,4.83-8.2,6.75l-724.19,446.84h-3.28c-6.03,0-11.82-.87-17.27-2.56-.77-.24-1.54-.48-2.27-.72-9.5-3.28-17.95-8.93-24.56-16.26-.63-.68-1.25-1.4-1.88-2.17-1.83-2.17-3.47-4.54-4.97-7-.53-.82-.96-1.64-1.45-2.46-.43-.87-.92-1.74-1.3-2.61-3.76-7.82-5.89-16.55-5.89-25.81v-832.79c0-7.14,1.25-13.99,3.57-20.36,3.67-10.08,9.99-18.91,18.14-25.62,.1-.1,.24-.19,.39-.29l3.09-2.36c9.7-6.9,21.57-10.95,34.4-10.95h13.6l63.59,39.22,586.17,361.69,22.05,13.6,42.07,25.96c3.14,1.93,5.89,4.25,8.2,6.75v.05c13.08,14.33,13.08,36.76,0,51.04Z"/>
            <path class="cls-23" d="M3322.51,2496.18v832.79c0,1.01-.05,2.03-.1,3.09,0,.48-.05,.96-.1,1.45,0,.43-.05,.92-.1,1.4,0,.19-.05,.39-.05,.58-.05,.34-.1,.63-.14,.92-.05,.72-.19,1.45-.29,2.17-.1,.68-.24,1.4-.39,2.07,0,.1-.05,.24-.05,.34-.05,.19-.1,.43-.19,.68,0,.24-.05,.53-.14,.77-.05,.34-.14,.68-.24,1.01-.14,.63-.29,1.21-.48,1.83,0,.1-.05,.24-.1,.34-.29,1.06-.63,2.12-1.01,3.14,0,.05,0,.1-.05,.15-.19,.53-.34,1.01-.58,1.54-.14,.43-.34,.87-.53,1.35-.05,.1-.1,.24-.14,.39-.58,1.3-1.16,2.65-1.83,3.91-.19,.39-.43,.87-.68,1.3-.24,.43-.48,.82-.72,1.25-.24,.39-.43,.82-.72,1.21-.48,.82-1.01,1.64-1.54,2.41-.34,.53-.68,.96-.96,1.45-.82,1.11-1.64,2.12-2.46,3.14-.63,.77-1.25,1.5-1.88,2.17-.63,.72-1.3,1.4-1.98,2.07-.29,.34-.63,.63-.96,.97-.29,.29-.58,.58-.92,.82-.34,.34-.72,.68-1.11,1.01-.1,.1-.24,.19-.34,.29-.92,.82-1.88,1.59-2.85,2.32-.1,.05-.19,.14-.29,.24-.77,.53-1.54,1.11-2.36,1.64-.29,.19-.53,.39-.77,.53-.43,.29-.87,.58-1.3,.82-.34,.24-.68,.43-1.06,.63-.39,.24-.77,.48-1.16,.68-2.7,1.54-5.55,2.85-8.49,3.91-.19,.05-.39,.14-.53,.19-.19,.05-.43,.14-.63,.19-.68,.24-1.35,.48-2.07,.68-1.21,.39-2.41,.68-3.62,.96-.63,.14-1.25,.29-1.88,.43-.39,.1-.82,.14-1.21,.19-.48,.1-1.01,.19-1.5,.29h-.14c-.43,.05-.87,.14-1.25,.19-.19,0-.39,.05-.58,.05-.34,.05-.68,.1-1.06,.14-.19,0-.39,.05-.63,.05-.72,.05-1.5,.1-2.22,.14-1.06,.05-2.12,.1-3.18,.1h-3.28l-724.19-446.84c-3.14-1.93-5.89-4.25-8.15-6.75v-.05c-13.12-14.33-13.12-36.67,0-51.04v-.05c2.27-2.51,5.02-4.82,8.15-6.75l42.02-25.96,22.05-13.6,586.22-361.69,63.59-39.22h13.6c1.45,0,2.85,.05,4.25,.19,.24-.05,.53,0,.77,.05,1.35,.1,2.75,.24,4.05,.43,.29,.05,.63,.1,.92,.14,1.16,.19,2.32,.43,3.42,.72,.29,.05,.58,.1,.87,.19,1.4,.34,2.75,.72,4.1,1.16,1.25,.39,2.56,.87,3.76,1.35,1.74,.68,3.42,1.5,5.06,2.37,.92,.43,1.83,.92,2.7,1.45,1.54,.87,3.04,1.83,4.44,2.9,.05-.05,.05,0,.05,0l3.09,2.36c.14,.1,.29,.19,.39,.29,.82,.63,1.54,1.3,2.27,1.98,.58,.48,1.11,1.01,1.64,1.54,1.64,1.59,3.18,3.28,4.63,5.11,.68,.82,1.3,1.64,1.88,2.46,2.51,3.42,4.63,7.14,6.32,11.1,.48,1.06,.92,2.17,1.35,3.28,0,.05,.05,.1,.05,.14,.68,1.78,1.21,3.62,1.69,5.45,.24,.92,.43,1.79,.63,2.7,.14,.72,.29,1.4,.39,2.12,.14,.72,.24,1.45,.34,2.17,.14,.87,.24,1.74,.29,2.6,.1,.72,.14,1.5,.14,2.22,.05,1.01,.1,2.07,.1,3.09Z"/>
            <path class="cls-16" d="M3322.51,3317.69v8.66c0,34.35-26.68,62.19-59.58,62.19H1791.63c-32.9,0-59.58-27.85-59.58-62.19v-8.66l756.76-497.9c23.5-15.46,53.41-15.46,76.9,0l756.81,497.9Z"/>
            <path class="cls-14" d="M3322.51,3320.67v8.3c0,32.9-26.68,59.58-59.58,59.58H1791.63c-32.9,0-59.58-26.68-59.58-59.58v-8.3l756.76-476.99c23.5-14.81,53.41-14.81,76.9,0l756.81,476.99Z"/>
            <path class="cls-5" d="M2009.82,2089.15h442.78c14.27,0,25.86,11.59,25.86,25.86v10.99c0,14.27-11.59,25.86-25.86,25.86h-442.78c-14.27,0-25.86-11.59-25.86-25.86v-11c0-14.27,11.59-25.86,25.86-25.86Z"/>
          </g>
          <path class="cls-17" d="M2601.11,1455.13c-32.63-32.63-81.97-30.64-90.73-114.4-8.75-83.76,28.65-147.43-80.38-161.75-109.03-14.33-175.88,21.89-194.18,77.79-1.71,5.23-19.1,68.64,12.53,134.3,31.63,65.66,56.11,71.03,53.12,106.84-.01,.16,0,.31,0,.46-10.52,9.48-21.25,24.34-27.44,47.48-15.12,56.51-17.52,91.52-3.99,112.22,4.31,6.59,8.53,13.17,11.98,19.7,5.03,9.58,8.36,18.98,7.61,27.98-.3,4.09-1.46,8.1-3.66,12-7.97,14.11-65.57,81.61-91.57,112.94l-30.29-135.3-106.72,.41-105.36,.41-30.01,.12-61.14,.24,.63,2.83,46.92,209.46,87-.33c-16.42,10.92-25.36,38.74-17.47,78.21,8.75,43.77,52.92,278.14,52.92,278.14h7.86c.31,2.01,.7,4.5,1.12,7.13,.47,2.97,.98,6.11,1.44,8.95-6.99-5.49-8.24-6-15.23-1.21h0s0,0,0,0h-.03c-.26,.17-.55,.38-.83,.57-.88,.6-1.81,1.25-2.88,2.02-8.42,6-32.66,26.95-50.43,38.09-4.42,2.76-8.44,4.93-11.72,6.11-2.83,1.04-5.05,2.53-6.81,4.29-.23,.23-.49,.46-.7,.7h0s0,0,0,0c-4.05,4.62-5.05,10.83-4.01,15.81,.9,4.37,3.36,7.75,6.63,8.2,5.31,.77,61.96-8.89,105.62-17.6,5.52-1.1,10.83-2.19,15.81-3.23-1.01,.52-1.98,.98-2.89,1.35-3.15,1.3-5.54,3.14-7.3,5.29-3.86,4.78-4.6,11.05-3.36,15.97,1.09,4.33,3.68,7.6,6.97,7.91,8.75,.9,154.19-31.93,155.22-36.61,.26-1.22,.16-4.21-.32-8.05-.5-3.78-1.3-8.41-2.4-13.03-2.07-8.72-5.23-17.43-9.16-20.67,0,0-5.73-8.05-17.13-1.92l-.44-6.27-.57-8.22h10.64s-41.77-282.53-29.83-284.91c10.93-2.2,240.94,5.96,285.56,1.55,4.13-.41,6.67-.92,7.3-1.55,.11-.11,.24-.24,.39-.39,.03-.03,.07-.07,.1-.1,.11-.12,.23-.23,.36-.37,.06-.07,.14-.14,.2-.21,.11-.12,.23-.23,.35-.36,.08-.08,.17-.18,.25-.27,.12-.13,.24-.25,.37-.39,.1-.11,.21-.22,.31-.34,.13-.14,.25-.27,.39-.42,.11-.12,.23-.25,.34-.38,.14-.15,.28-.3,.42-.46,.12-.14,.25-.28,.38-.43,.15-.16,.29-.33,.44-.5,.14-.16,.28-.32,.42-.49,.15-.17,.3-.35,.45-.53,.15-.17,.3-.35,.45-.53,.16-.19,.32-.39,.49-.58,.15-.19,.31-.37,.47-.57,.17-.21,.34-.42,.52-.64,.16-.2,.32-.4,.49-.61,.18-.22,.36-.45,.53-.67,.17-.22,.35-.44,.52-.67,.18-.23,.36-.46,.54-.7,.18-.24,.36-.47,.55-.72,.18-.24,.37-.49,.55-.74,.19-.25,.38-.5,.57-.76,.19-.25,.37-.51,.56-.77,.2-.27,.4-.54,.6-.82,.19-.26,.37-.53,.56-.79,.21-.29,.41-.58,.61-.88,.19-.27,.38-.55,.57-.83,.21-.31,.42-.61,.63-.93,.18-.26,.35-.54,.53-.8,.23-.35,.46-.69,.68-1.04,.1-.16,.2-.32,.3-.47,.54-.84,1.08-1.7,1.62-2.59,.16-.26,.32-.52,.48-.79,.23-.38,.45-.77,.68-1.15,.18-.31,.37-.62,.55-.93,.22-.38,.44-.78,.67-1.17,.19-.33,.37-.65,.56-.99,.22-.4,.44-.81,.67-1.22,.18-.34,.37-.67,.55-1.02,.23-.42,.45-.86,.67-1.29,.18-.34,.35-.68,.53-1.02,.23-.44,.45-.89,.67-1.35,.17-.35,.35-.7,.52-1.05,.22-.46,.44-.93,.67-1.4,.17-.36,.34-.72,.51-1.08,.22-.47,.43-.95,.65-1.43,.17-.37,.33-.75,.5-1.12,.22-.49,.43-.99,.64-1.49,.16-.38,.32-.76,.48-1.15,.21-.51,.42-1.02,.62-1.53,.16-.39,.31-.78,.46-1.17,.21-.53,.41-1.06,.61-1.6,.15-.39,.29-.78,.43-1.17,.2-.55,.4-1.11,.6-1.67,.14-.39,.27-.79,.4-1.18,.2-.57,.39-1.15,.58-1.73,.13-.39,.25-.79,.38-1.18,.19-.6,.38-1.2,.56-1.82,.11-.38,.22-.76,.33-1.14,.19-.64,.37-1.28,.55-1.93,.1-.35,.19-.71,.28-1.06,.19-.69,.37-1.38,.54-2.08,.08-.3,.14-.6,.22-.9,.19-.77,.37-1.53,.55-2.31,.03-.14,.06-.27,.09-.41,.86-3.89,1.58-7.94,2.12-12.15,.03-.26,.07-.52,.1-.78,.1-.83,.19-1.66,.28-2.5,.04-.36,.08-.71,.11-1.07,.08-.8,.14-1.61,.21-2.42,.03-.41,.07-.81,.1-1.22,.06-.79,.1-1.59,.14-2.39,.02-.44,.05-.88,.07-1.32,.03-.79,.06-1.59,.08-2.38,.01-.46,.03-.93,.03-1.39,.01-.79,.02-1.59,.02-2.4,0-.48,0-.96,0-1.45,0-.8-.03-1.61-.05-2.42-.01-.49-.03-.99-.05-1.49-.03-.81-.07-1.63-.11-2.46-.03-.5-.06-1.01-.09-1.52-.05-.83-.11-1.66-.18-2.5-.04-.51-.09-1.02-.14-1.53-.08-.85-.16-1.7-.25-2.55-.06-.51-.12-1.03-.18-1.55-.1-.86-.21-1.73-.33-2.6-.07-.52-.15-1.03-.22-1.55-.13-.89-.26-1.78-.41-2.67-.08-.5-.18-1.01-.26-1.52-.16-.92-.32-1.84-.5-2.78-.09-.48-.2-.97-.29-1.45-.2-.97-.39-1.93-.61-2.91-.1-.44-.21-.89-.31-1.33-.24-1.03-.47-2.05-.73-3.09-.09-.35-.19-.7-.28-1.05-.29-1.14-.59-2.28-.91-3.44,0-.02-.01-.05-.02-.07-1.19-4.28-2.59-8.64-4.2-13.08-.04-.12-.08-.24-.13-.36-.41-1.13-.85-2.27-1.29-3.41-.17-.44-.33-.88-.51-1.33-.41-1.03-.84-2.08-1.27-3.12-.23-.56-.46-1.12-.7-1.69-.42-.99-.86-1.99-1.3-2.98-.28-.63-.55-1.25-.84-1.88-.44-.97-.9-1.94-1.36-2.92-.32-.67-.63-1.34-.96-2.01-.46-.96-.94-1.92-1.43-2.88-.35-.7-.7-1.4-1.07-2.11-.49-.95-.99-1.9-1.5-2.86-.24-.44-.46-.88-.7-1.33-.18-.34-.38-.68-.56-1.01-.38-.7-.77-1.39-1.16-2.09-.57-1.02-1.16-2.05-1.75-3.07-.27-.46-.52-.91-.79-1.37,35.58-22.06,68.85-43.13,79.8-51.4,13.48-10.19,11.02-64.89,3.79-120.48,13.15,3.13,28.15,2.92,46.74-.69,53.32-10.35,23.87-138.48-8.75-171.1Zm-307.19,347.12c-6.01,8.33-12.21,19.48-16.74,33.8-8.48,6.81-14.18,16.97-13.75,21.93,.32,3.84,3.66,10.6,7.2,16.22-.15,3.19-.22,6.46-.19,9.84h-64.11l-.66-2.96c20.62-19.02,71.36-63.9,88.25-78.82Zm-142.26,477.46c.31,2.37,.65,4.85,.97,7.19-6.89-4.93-8.24-5.3-14.9-.3h-.03c-1.07,.77-2.24,1.68-3.6,2.74-4.41,3.43-13.26,11.41-23.19,19.9-.25-1.64-.53-3.31-.85-5-.22-1.12-.45-2.24-.71-3.34-1.73-7.63-4.29-14.73-7.59-17.7,0,0-5.27-8.13-16.68-2.82l-.63-6.68-.82-8.8h12.53l-40.59-280.53h41.75c11.57,94.79,40.22,286.11,40.22,286.11h12.91c.28,2.26,.72,5.63,1.21,9.24Zm341.41-565.74c-1.95,.85-5.31,2.83-9.73,5.68v-42.49l3.11-17.42c8.91,25.47,15.08,50.56,6.63,54.23Z"/>
          <g>
            <path class="cls-24" d="M2113.1,2285.43l-42.83,3.62s-1.63-9.95-2.99-18.44c-.87-5.43-1.61-10.26-1.73-11.5l43.77-13.92,2.54,27.1,1.24,13.16Z"/>
            <g>
              <path class="cls-2" d="M2139.31,2324c-.49,1.81-23.09,6.98-50.99,12.55-43.65,8.71-100.31,18.37-105.62,17.6-3.26-.45-5.72-3.83-6.63-8.2-1.04-4.98-.04-11.19,4.01-15.81,1.85-2.08,4.31-3.81,7.51-4.99,16.48-5.9,51.64-36.69,62.16-44.19,1.4-1,2.6-1.87,3.7-2.6h.04c7.02-4.82,8.24-4.29,15.32,1.28,6.04,4.7,18.54,6.84,29.89,4.64,4.13-.79,8.12-2.16,11.58-4.17,12.94-7.51,18.88,1.67,18.88,1.67,3.3,2.97,5.86,10.07,7.59,17.7,.26,1.1,.49,2.22,.71,3.34,.9,4.66,1.51,9.32,1.87,13.12,.31,3.87,.29,6.84-.02,8.06Z"/>
              <path class="cls-20" d="M2139.31,2324c-.49,1.81-23.09,6.98-50.99,12.55-43.65,8.71-100.31,18.37-105.62,17.6-3.26-.45-5.72-3.83-6.63-8.2,17.46-2.1,78.03-9.77,125.89-20.2,14-3.07,26.92-6.35,37.36-9.81,.31,3.87,.29,6.84-.02,8.06Z"/>
              <path class="cls-22" d="M2137.46,2302.82c-1.99,.24-3.89,.35-5.72,.35-18.64,.1-28.45-10.97-33.04-18.9,4.13-.79,8.12-2.16,11.58-4.17,12.94-7.51,18.88,1.67,18.88,1.67,3.3,2.97,5.86,10.07,7.59,17.7,.26,1.1,.49,2.22,.71,3.34Z"/>
              <path class="cls-22" d="M1980.09,2330.13c14.12,2.27,36.99-5.32,63.12-16.12,25.71-10.62,16.66-27.21,10.28-35.65h-.03c-1.1,.72-2.3,1.58-3.71,2.59-10.51,7.49-45.68,38.29-62.15,44.2-3.2,1.17-5.67,2.91-7.51,4.99Z"/>
            </g>
            <path class="cls-10" d="M2111.86,2272.28c-10.58-.39-35.28-1.34-44.58-1.67-.87-5.43-1.61-10.26-1.73-11.5l43.77-13.92,2.54,27.1Z"/>
            <path class="cls-18" d="M2139.31,2324c-.49,1.81-23.09,6.98-50.99,12.55,3.99-3.22,8.69-6.94,13.65-10.8,10.13-7.87,21.34-16.34,29.77-22.57,1.83-1.34,3.5-2.58,5.01-3.7,.26,1.1,.49,2.22,.71,3.34,.9,4.66,1.51,9.32,1.87,13.12,.31,3.87,.29,6.84-.02,8.06Z"/>
            <path class="cls-24" d="M2224.47,2293.93l-42.91,2.6s-1.38-9.77-2.5-18.23c-.75-5.55-1.4-10.54-1.49-11.8l44.09-12.9,1.65,23.68,1.16,16.66Z"/>
            <g>
              <path class="cls-2" d="M2090.58,2355.92c1.09,4.33,3.68,7.6,6.96,7.91,8.75,.9,154.19-31.93,155.22-36.61,.26-1.22,.16-4.21-.32-8.05-.5-3.78-1.3-8.41-2.4-13.03-2.07-8.72-5.23-17.43-9.16-20.67,0,0-6.32-8.93-18.93-.88-3.38,2.15-7.3,3.67-11.39,4.64-11.25,2.66-23.85,1.05-30.06-3.41-7.31-5.25-8.55-5.74-15.36-.63h-.03c-1.07,.77-2.23,1.68-3.6,2.74-10.19,7.92-44.05,40.15-60.26,46.74-3.15,1.3-5.54,3.14-7.3,5.29-3.86,4.78-4.6,11.05-3.36,15.97Z"/>
              <path class="cls-20" d="M2090.58,2355.92c1.09,4.33,3.68,7.6,6.96,7.91,8.75,.9,154.19-31.93,155.22-36.61,.26-1.22,.16-4.21-.32-8.05-45.42,17.18-139.42,33.1-161.87,36.75Z"/>
              <path class="cls-22" d="M2210.56,2289.22c5.38,8.47,17.22,20.48,39.49,16.91-2.07-8.72-5.23-17.43-9.16-20.67,0,0-6.32-8.93-18.93-.88-3.38,2.15-7.3,3.67-11.39,4.64Z"/>
              <path class="cls-22" d="M2093.95,2339.95c14.2,1.68,36.74-6.85,62.4-18.73,25.24-11.67,15.52-27.87,8.79-36.04h-.03c-1.07,.77-2.23,1.68-3.6,2.74-10.19,7.92-44.05,40.15-60.26,46.74-3.15,1.3-5.54,3.14-7.3,5.29Z"/>
            </g>
            <path class="cls-10" d="M2223.31,2277.27l-44.24,1.02c-.75-5.55-1.4-10.54-1.49-11.8l44.09-12.9,1.65,23.68Z"/>
            <path class="cls-9" d="M2340.83,1780.8s-44.17,28.45-42.98,103.06c0,0-249.49,12.34-269.39,20.29-19.9,7.96-31.83,37.4-23.08,81.18,8.75,43.77,52.92,278.14,52.92,278.14h65.26l-40.59-280.53h194.18s117.39-10.35,134.89-45.36c17.51-35.02-17.51-153.6-17.51-153.6l-53.72-3.18Z"/>
            <path class="cls-3" d="M2496.41,1984.14c-.63,.63-3.17,1.14-7.3,1.55-44.62,4.4-274.63-3.76-285.56-1.55-11.94,2.38,29.83,284.91,29.83,284.91h-68.43s-44.17-294.86-44.97-333.86c-.79-38.99,275.36-37.4,264.62-58.11-.57-1.1-1.08-2.34-1.51-3.74-.79-2.38-1.42-5.13-1.87-8.2-4.48-28.91,3.38-84.36,3.38-84.36h111.81c1.4,2.05,2.75,4.09,4.05,6.1,.06,.1,.14,.22,.2,.31,3.91,6.04,7.41,11.94,10.54,17.74,56.83,105.16-7.75,172.16-14.79,179.2Z"/>
            <path class="cls-9" d="M2496.41,1984.14c-.63,.63-3.17,1.14-7.3,1.55,83.2-81.13-1.59-173.93-30.89-204.9-5.21-5.51-8.65-9.07-9.1-10.24l32.19,10.24,19.15,6.1c75,115.51,3.38,189.82-4.05,197.25Z"/>
            <path class="cls-3" d="M2263.23,1255.35c-1.71,5.23-19.1,68.64,12.53,134.3,31.63,65.66,56.11,71.03,53.12,106.84-2.98,35.81,161.16,32.03,196.17,76.6,35.02,44.57,58.89,62.08,112.21,51.73,53.32-10.35,23.88-138.48-8.75-171.1-32.63-32.63-81.97-30.64-90.73-114.4-8.75-83.76,28.65-147.43-80.38-161.75-109.03-14.33-175.88,21.89-194.18,77.79Z"/>
            <path class="cls-7" d="M2525.32,1594.06l-11.46,64.2v.06l-3.11,17.42v115.39l-104,2.69-8.06,.22-71.77,1.87s-101.07,89.14-102.67,92.32c-1.59,3.19-15.12-40.59-15.12-42.97s93.92-110.63,104.26-128.94c2.2-3.89,3.36-7.91,3.66-12,.75-9.01-2.58-18.41-7.61-27.98-3.44-6.53-7.67-13.12-11.98-19.7-13.53-20.71-11.13-55.71,3.99-112.22,15.12-56.5,57.3-63.65,57.3-63.65l103.04,3.58,1.47,2.54,62.06,107.17Z"/>
            <ellipse class="cls-24" cx="2451.55" cy="1326.83" rx="31.04" ry="38.05"/>
            <path class="cls-24" d="M2403.1,1856.21s-24.88,13.92-28.71,18.9c-3.81,4.98-10.68,6.96-10.68,6.96,0,0-14.2,.45-28.59,.67-13.8,.22-27.77,.22-29.52-.67-3.58-1.79-14.18-18.5-14.77-25.5-.61-7.02,11.03-24.48,25.5-28.06,14.49-3.58,26.72,8.81,40.15,8.51,13.43-.31,17.89-10.89,17.89-10.89l20.37,21.36,8.34,8.73Z"/>
            <path class="cls-9" d="M2511.2,1804.94l-112.52,65.89-4.39-4.17-11.21,6.69-2.79,1.65-4.42-6.37,5.35-3.48,119.44-77.95c3.91,6.04,7.41,11.94,10.54,17.74Z"/>
            <path class="cls-10" d="M2403.1,1856.21s-24.88,13.92-28.71,18.9c-3.81,4.98-10.68,6.96-10.68,6.96,0,0-14.2,.45-28.59,.67,4.27-1.51,9.64-3.11,16.32-4.62,20.84-4.74,35.04-20.96,43.32-30.64l8.34,8.73Z"/>
            <polygon class="cls-11" points="2510.74 1700.39 2510.74 1791.14 2406.74 1793.83 2398.68 1794.05 2510.74 1700.39"/>
            <path class="cls-7" d="M2586.75,1745.99c-26.86,20.29-188.03,117.57-188.03,117.57l-31.23-39.98s16.75-12.8,39.25-29.75c34.39-25.9,82.2-61.43,104-75.59,4.42-2.85,7.79-4.84,9.73-5.68,8.46-3.68,2.28-28.77-6.63-54.23v-.04c-6.67-19.13-14.87-38.44-19.53-49.06-2.24-5.17-3.68-8.28-3.68-8.28l-27.39-114.05-1.47-6.12s92.74-9.36,104.06,19.29c11.35,28.65,47.76,225.63,20.9,245.92Z"/>
            <polygon class="cls-24" points="2367.49 1557.17 2387.86 1483.55 2384.62 1464.54 2377.03 1419.88 2408.08 1379.71 2451.56 1368.16 2454.94 1391.5 2468.29 1483.94 2496.41 1486.34 2367.49 1557.17"/>
            <rect class="cls-12" x="2074.42" y="1882.62" width="328.68" height="24.34"/>
            <path class="cls-10" d="M2454.94,1391.5c-11.13,25.6-35.47,66.8-70.32,73.03l-7.59-44.66,31.05-40.17,43.48-11.54,3.38,23.34Z"/>
            <path class="cls-24" d="M2452.64,1339.32c0,53.72-33.84,97.28-75.61,97.28-8.02,0-15.75-1.61-22.99-4.58-30.5-12.53-52.6-49.3-52.6-92.7,0-26.66,8.34-50.85,21.85-68.41,13.69-17.84,32.72-28.89,53.74-28.89,41.77,0,75.61,43.56,75.61,97.3Z"/>
            <path class="cls-11" d="M2513.85,1658.27v.06l-3.11,17.42v32.21c-10.89-30.16-14.96-69.59-16.42-98.73-1.14-23.44-.63-40.23-.63-40.23,0,0,20.16,87.17,20.16,89.27Z"/>
            <path class="cls-11" d="M2317.03,1704.34c.75-9.01-2.58-18.41-7.61-27.98,8.55,.79,20.67,.94,33.51-1.83,21.93-4.74,18.15,17.3-25.9,29.81Z"/>
            <polygon class="cls-12" points="2239.05 1906.29 2226.46 1906.33 2121.1 1906.74 2091.09 1906.86 2028.7 1907.1 1935.85 1907.45 1888.93 1697.99 1888.3 1695.16 1949.43 1694.92 1979.44 1694.8 2084.8 1694.39 2191.52 1693.98 2239.05 1906.29"/>
            <polygon class="cls-19" points="2226.46 1906.33 2121.1 1906.74 1979.44 1694.8 2084.8 1694.39 2226.46 1906.33"/>
            <polygon class="cls-19" points="2091.09 1906.86 2028.7 1907.1 1888.93 1697.99 1888.3 1695.16 1949.43 1694.92 2091.09 1906.86"/>
            <polygon class="cls-9" points="2228.55 1907.1 2239.05 1916.72 2403.1 1906.96 2228.55 1907.1"/>
            <path class="cls-10" d="M2315.65,1283.62c.74,.25,58.01,30.97,90.7,31.95,32.69,.98,40.31,3.2,54.08-17.21,13.76-20.4-144.78-14.75-144.78-14.75Z"/>
            <path class="cls-15" d="M2354.04,1432.01c-30.5-12.53-52.6-49.3-52.6-92.7,0-26.66,8.34-50.85,21.85-68.41l5.55,2.14s-51.22,102.17,25.21,158.96Z"/>
            <path class="cls-3" d="M2290.09,1315.63c.3-1.79,12.83-39.69,44.77-27.16,31.93,12.53,105.15,34.92,117.78,15.82,12.63-19.1,35.61,34.92-3.48,47.75,0,0-18.42,35.81,19.14,78.49,37.56,42.68,34.58-105.35,34.58-105.35,0,0-9.55-38.5-10.15-41.78-.6-3.28-49.84-51.33-54.61-53.12-4.78-1.79-51.03-9.85-59.09-8.95-8.06,.9-55.51,7.16-61.18,12.53-5.67,5.37-28.35,12.83-33.43,23.88-5.07,11.04-14.03,24.47-11.04,32.83,2.98,8.36,16.71,25.07,16.71,25.07Z"/>
          </g>
          <g>
            <polygon class="cls-4" points="3135.43 1804.3 3185.31 1348.35 3902.59 1284.17 3135.43 1804.3"/>
            <path class="cls-8" d="M3170.95,1493.49c3.75-1.35,731.64-209.32,731.64-209.32l-935.85,11.66,204.21,197.66Z"/>
            <polygon class="cls-21" points="3240.28 1560.83 3135.43 1804.3 3487.07 1571.92 3240.28 1560.83"/>
            <polygon class="cls-8" points="3240.28 1560.83 3445.86 1758.68 3902.59 1284.17 3240.28 1560.83"/>
          </g>
          <circle class="cls-7" cx="1335.21" cy="1223.43" r="112.55"/>
          <circle class="cls-7" cx="4050.2" cy="1850.5" r="86.38"/>
          <circle class="cls-7" cx="3288.51" cy="1046.84" r="36.48"/>
          <circle class="cls-8" cx="2525.32" cy="642.16" r="75.84"/>
          <circle class="cls-8" cx="3928.05" cy="2230.15" r="51.89"/>
          <circle class="cls-8" cx="920.31" cy="2656.45" r="56.89"/>
          <circle class="cls-8" cx="1926.84" cy="1388.83" r="65.95"/>
        </g>
      </g>
    </g>
  </g>
</svg>