<?xml version="1.0" encoding="UTF-8"?>
<svg id="Layer_1" data-name="Layer 1" xmlns="http://www.w3.org/2000/svg" viewBox="0 0 1000 1000">
  <defs>
    <style>
      .cls-1 {
        fill: #fff;
      }

      .cls-2 {
        fill: #1f2933;
      }
    </style>
  </defs>
  <rect class="cls-1" width="1000" height="1000"/>
  <g>
    <g>
      <path class="cls-2" d="M365.43,633.23c67.62,67.62,147.23,115.89,231.97,144.97,19.04,6.53,40.15,1.27,54.38-12.96l31.41-31.41c6.25-6.25,5.28-16.64-2.02-21.62l-112.3-76.72c-5.28-3.61-12.37-2.94-16.89,1.58l-2.26,2.26c-15.18,15.18-39.8,15.18-54.98,0h0c-51.96-37.75-97.66-83.45-135.41-135.41h0c-15.18-15.18-15.18-39.8,0-54.98l2.26-2.26c4.52-4.52,5.18-11.62,1.58-16.89l-76.72-112.3c-4.99-7.3-15.38-8.27-21.62-2.02l-31.41,31.41c-14.23,14.23-19.5,35.35-12.96,54.38,29.09,84.74,77.35,164.35,144.97,231.97Z"/>
      <path class="cls-2" d="M567.67,609.83l141.83,96.9c2.31,1.58,5.41,1.29,7.39-.69l10.2-10.2c10.11-10.11,8.54-26.92-3.26-34.99l-96.05-65.62c-19.04-13-44.63-10.62-60.93,5.68h0c-2.57,2.57-2.18,6.86,.83,8.91Z"/>
      <path class="cls-2" d="M388.83,430.99l-96.9-141.83c-1.58-2.31-1.29-5.41,.69-7.39l10.2-10.2c10.11-10.11,26.92-8.54,34.99,3.26l65.62,96.05c13,19.04,10.62,44.63-5.68,60.93h0c-2.57,2.57-6.86,2.18-8.91-.83Z"/>
    </g>
    <g>
      <path class="cls-2" d="M751.5,565.2c-3.48-3.48-5.51-8.38-5.18-13.68,4.57-74.16-28.02-155.15-85.04-211.28l-.1-.09-.09-.1c-.49-.49-.98-1-1.47-1.49-56.1-56.1-136.29-88.08-209.8-83.56-9.81,.6-18.25-6.86-18.85-16.66-.6-9.81,6.86-18.25,16.66-18.85,84.09-5.18,175.52,31.39,238.72,95.49,64.08,63.21,100.67,154.63,95.49,238.72-.6,9.81-9.04,17.27-18.85,16.66-4.51-.28-8.52-2.21-11.48-5.17Z"/>
      <path class="cls-2" d="M484.8,358.93c-3.89-3.89-5.93-9.54-5-15.39,1.55-9.7,10.67-16.32,20.37-14.77,84.77,13.51,158.88,87.62,172.39,172.39,1.55,9.7-5.07,18.82-14.77,20.37-9.7,1.55-18.82-5.07-20.37-14.77-11.01-69.09-73.76-131.84-142.85-142.85-3.85-.61-7.21-2.42-9.77-4.98Z"/>
    </g>
  </g>
</svg>