<?xml version="1.0" encoding="UTF-8"?>
<svg xmlns="http://www.w3.org/2000/svg" viewBox="0 0 1357 534.31">
  <defs>
    <style>
      .cls-1 {
        fill: #cf221b;
      }

      .cls-2 {
        fill: #cf321a;
      }

      .cls-3 {
        fill: #e9e9e9;
      }

      .cls-4 {
        fill: #77ca8f;
      }

      .cls-5 {
        fill: #debb6e;
      }

      .cls-6 {
        fill: #262626;
      }

      .cls-7 {
        fill: #fff;
      }

      .cls-8 {
        fill: #63ae29;
      }

      .cls-9 {
        fill: #dec3bf;
      }

      .cls-10 {
        fill: #757d67;
      }

      .cls-11 {
        fill: #7e0d01;
      }

      .cls-12 {
        fill: #518f2b;
      }

      .cls-13, .cls-14, .cls-15 {
        mix-blend-mode: multiply;
      }

      .cls-13, .cls-16 {
        fill: #d9d9d9;
      }

      .cls-17 {
        fill: #dcc8b4;
      }

      .cls-18 {
        fill: #caa85b;
      }

      .cls-19 {
        fill: #cacaca;
      }

      .cls-20 {
        fill: #569269;
      }

      .cls-21 {
        fill: #d9ff67;
      }

      .cls-22 {
        fill: #eeffd7;
      }

      .cls-23 {
        fill: #c22712;
      }

      .cls-24 {
        fill: #d95f21;
      }

      .cls-25 {
        fill: #bae4ba;
      }

      .cls-26 {
        fill: #363636;
      }

      .cls-14 {
        fill: #ccc;
        opacity: .5;
      }

      .cls-27 {
        fill: #6cbe2d;
      }

      .cls-28 {
        fill: silver;
      }

      .cls-29 {
        fill: #4d5a66;
      }

      .cls-30 {
        fill: #eaad41;
      }

      .cls-31 {
        fill: #aeffc3;
      }

      .cls-32 {
        fill: #5ea427;
      }

      .cls-33 {
        fill: #f2d06c;
      }

      .cls-34 {
        fill: #4d8828;
      }

      .cls-35 {
        fill: #eaad29;
      }

      .cls-36 {
        fill: #e58e62;
      }

      .cls-37 {
        fill: #b21111;
      }

      .cls-38 {
        fill: #c0a056;
      }

      .cls-39 {
        isolation: isolate;
      }

      .cls-40 {
        fill: #4b4797;
      }

      .cls-41 {
        fill: #5a9efb;
      }

      .cls-42 {
        fill: #dc3d20;
      }

      .cls-43 {
        fill: #5ca126;
      }

      .cls-44 {
        fill: #467b24;
      }

      .cls-45 {
        fill: #c21313;
      }

      .cls-46 {
        fill: #8d8d8d;
      }

      .cls-47 {
        fill: #de885e;
      }

      .cls-48 {
        fill: #c97c55;
      }

      .cls-49 {
        fill: #664658;
      }

      .cls-50 {
        fill: #60a828;
      }

      .cls-51 {
        fill: #a4a4a4;
      }

      .cls-52 {
        fill: #f9eaa1;
      }

      .cls-53 {
        fill: #cfcfcf;
      }

      .cls-54 {
        fill: #d7d7d7;
      }

      .cls-55 {
        fill: #aaf038;
      }

      .cls-56 {
        fill: #d4152f;
      }

      .cls-57 {
        fill: #5e6e7d;
      }

      .cls-58 {
        fill: #e6bb2c;
      }

      .cls-59 {
        fill: #d98f22;
      }

      .cls-60 {
        fill: #e1e1e1;
      }

      .cls-61 {
        fill: #518f22;
      }

      .cls-62 {
        fill: #a5caa5;
      }

      .cls-63 {
        fill: #dbffa4;
      }

      .cls-64 {
        fill: #f1cb3a;
      }

      .cls-65 {
        fill: #64b02a;
      }

      .cls-66 {
        fill: #b8b8b8;
      }

      .cls-67 {
        fill: #e6a327;
      }

      .cls-68 {
        fill: #3530cd;
      }

      .cls-69 {
        fill: #579a2d;
      }

      .cls-70 {
        fill: #6dc03e;
      }

      .cls-71 {
        fill: #4d87c2;
      }

      .cls-72 {
        fill: #c19d25;
      }

      .cls-73 {
        fill: #e4e4e4;
      }

      .cls-74 {
        mix-blend-mode: screen;
      }

      .cls-75 {
        fill: #e48920;
      }

      .cls-76 {
        fill: #d29a24;
      }

      .cls-77 {
        fill: #db381d;
      }

      .cls-78 {
        fill: #f4d94d;
      }

      .cls-79 {
        fill: #86edfd;
      }

      .cls-80 {
        fill: #d9b462;
      }

      .cls-81 {
        fill: #e4bb61;
      }

      .cls-82 {
        fill: #53922b;
      }

      .cls-83 {
        fill: #9a8563;
      }

      .cls-84 {
        fill: #d99b24;
      }

      .cls-85 {
        fill: #e3bb61;
      }

      .cls-86 {
        fill: #e69423;
      }

      .cls-87 {
        fill: #243fa1;
      }

      .cls-88 {
        fill: #db2820;
      }

      .cls-89 {
        fill: #c01313;
      }

      .cls-90 {
        fill: #ebebeb;
      }

      .cls-91 {
        fill: #adadad;
      }

      .cls-92 {
        fill: #66b4d7;
      }

      .cls-93 {
        fill: #6762cf;
      }

      .cls-94 {
        fill: #f9ebbb;
      }

      .cls-95 {
        fill: #569724;
      }

      .cls-96 {
        fill: #3157e1;
      }

      .cls-97 {
        fill: #589c25;
      }

      .cls-98 {
        fill: #b3b3b3;
      }

      .cls-99 {
        fill: #dfa327;
      }

      .cls-100 {
        fill: #6abb2c;
      }

      .cls-101 {
        fill: #e9a627;
      }

      .cls-102 {
        fill: #caa656;
      }

      .cls-103 {
        fill: #bd2020;
      }

      .cls-104 {
        fill: #50545c;
      }

      .cls-105 {
        fill: #1a1a1a;
      }

      .cls-106 {
        fill: #7d77fa;
      }

      .cls-107 {
        fill: #9f6343;
      }

      .cls-108 {
        fill: #f4d773;
      }

      .cls-109 {
        fill: #71c72f;
      }

      .cls-110 {
        fill: #d41515;
      }

      .cls-111 {
        fill: #f6df35;
      }

      .cls-112 {
        fill: #bdaf8c;
      }

      .cls-113 {
        fill: #cdcdcd;
      }

      .cls-114 {
        fill: #d2d2d2;
      }

      .cls-115 {
        fill: #838383;
      }

      .cls-116 {
        fill: #d92d14;
      }

      .cls-117 {
        fill: #d4513e;
      }

      .cls-118 {
        fill: #d9341c;
      }

      .cls-119 {
        fill: #549423;
      }

      .cls-120 {
        fill: #e17741;
      }

      .cls-121 {
        fill: #5f8d59;
      }

      .cls-122 {
        fill: #b3ff3c;
      }

      .cls-123 {
        fill: #c4a561;
      }

      .cls-124 {
        fill: #666;
      }

      .cls-125 {
        fill: #c7831f;
      }

      .cls-126 {
        fill: #5e5e5e;
      }

      .cls-127 {
        fill: #e6d9d9;
      }

      .cls-128 {
        fill: #e59122;
      }

      .cls-129 {
        fill: #e06d3b;
      }

      .cls-130 {
        fill: #ebdfdd;
      }
    </style>
  </defs>
  <g class="cls-39">
    <g id="canned_goods" data-name="canned goods">
      <ellipse class="cls-14" cx="683" cy="520.31" rx="674" ry="14"/>
      <g>
        <g>
          <path class="cls-3" d="M253.56,193.56c-.35,13.8-2.97,27.62-4.84,30.56-.78,1.24-1.41,2.88-1.93,4.95-1.38,5.27-2.04,13.16-2.3,23.76-.03,1.07-.06,2.19-.06,3.31t0,.06c-.03,.63-.03,1.27-.03,1.9-.03,1.35-.03,2.68-.03,4.09v11.66c-.03,.09-.03,.2-.03,.29v.12c0,.06,0,.17,.03,.26v2.1c0,3.95-.03,8.27-.03,12.84,0,6.31,.03,13.16,.03,20.39,0,16.39,.06,34.7,.12,52.79v1.96c.03,6.22,.03,12.41,.06,18.46,.06,19.3,.12,37.38,.17,51.46,.06,5.24,.06,9.94,.06,13.94,.06,9.3,.09,14.83,.09,14.83,0,1.15-.03,2.28-.06,3.4-.03,1.09-.09,2.16-.14,3.23-.17,3.08-.52,6.05-1.07,8.9-.09,.6-.23,1.18-.37,1.79-.12,.69-.29,1.38-.46,2.04-.17,.72-.37,1.44-.6,2.16-.75,2.48-1.67,4.87-2.82,7.14-.26,.49-.52,.98-.78,1.47-.26,.49-.55,.98-.86,1.47-.12,.2-.23,.37-.35,.58-.23,.35-.46,.69-.69,1.04-.29,.43-.6,.86-.92,1.3-1.15,1.55-2.42,3.05-3.86,4.49-.55,.52-1.09,1.04-1.67,1.55-.63,.58-1.3,1.12-1.99,1.67-.69,.55-1.38,1.09-2.13,1.61-.72,.52-1.5,1.01-2.28,1.5,0,0-.03,.03-.06,.03-1.18,.75-2.45,1.47-3.74,2.16-1.32,.69-2.71,1.35-4.15,1.99-.98,.43-1.99,.84-3.02,1.24-.98,.37-1.99,.75-3.02,1.09-.09,.03-.14,.06-.23,.09-1.07,.35-2.19,.69-3.31,1.04-1.21,.37-2.48,.72-3.8,1.07-1.15,.29-2.33,.58-3.57,.86-.2,.03-.4,.09-.6,.14-1.09,.23-2.22,.46-3.37,.69-1.47,.29-2.97,.55-4.52,.81-1.35,.2-2.71,.4-4.12,.6-9.94,1.38-21.48,2.13-34.91,2.19h-49.16c-51.21-.26-75.37-10.4-85.94-27.16-1.47-2.28-2.65-4.69-3.63-7.2-2.91-7.4-3.92-15.81-3.92-24.97,0,0,.03-5.53,.06-14.83,.03-4,.06-8.7,.06-13.94,.09-14.08,.14-32.17,.2-51.46,.03-6.05,.06-12.24,.09-18.46v-1.96c.03-18.09,.09-36.4,.12-52.79v-5.41c.03-5.27,.03-10.25,.03-14.98,0-5.1,0-9.82-.03-14.11v-1.21c.03-.95,.03-1.9,0-2.82,0-.6,.03-1.21,0-1.81v-3.4c0-4.09-.03-7.43-.06-9.94v-.06c0-1.12-.03-2.22-.06-3.28-.03-.66-.03-1.32-.06-1.96-.29-9.62-.92-16.88-2.22-21.8-.55-2.07-1.21-3.72-1.99-4.95-1.84-2.91-4.46-16.76-4.84-30.56-.26-10.83,.86-21.66,4.84-27.13,2.27-3.14,4.81-5.67,7.49-7.81,10.34-8.29,22.81-10.4,30.56-15.38,4.52-2.91,7.43-6.77,7.43-13.42H203.24c0,6.65,2.94,10.54,7.46,13.45,7.75,4.95,20.19,7.06,30.53,15.35,2.68,2.13,5.21,4.67,7.49,7.81,3.97,5.47,5.1,16.27,4.84,27.13Z"/>
          <path class="cls-56" d="M102.21,511.1c-42.14-.21-67.09-7.34-76.19-21.78-1.03-1.6-1.88-3.28-2.64-5.25-2.11-5.36-3.13-12.15-3.13-20.78l.33-212.94c-.33-11.18-1.13-18.7-2.58-24.22-.79-2.99-1.79-5.5-3.07-7.65-1.04-2.82-3.07-13.72-3.39-25.25-.3-12.56,1.6-18.61,2.64-20.05,5.55-7.62,13.4-10.73,21.71-14.02,8.36-3.31,19.07-7.55,23.68-17.84H194c4.61,10.29,15.33,14.53,23.68,17.84,8.31,3.29,16.16,6.4,21.72,14.02,1.04,1.43,2.94,7.48,2.63,20.07-.29,11.51-2.33,22.4-3.37,25.19-1.3,2.22-2.3,4.76-3.06,7.8-1.46,5.58-2.28,13.36-2.61,24.99l.34,212.08c0,8.57-1.02,15.37-3.1,20.73-.72,1.84-1.61,3.61-2.63,5.22-9.16,14.45-34.11,21.58-76.27,21.8h-49.13Z"/>
          <g>
            <path class="cls-20" d="M215.57,92.36H38.01l7.68-4.01c4.02-2.1,8.61-3.21,13.28-3.21H194.61c4.68,0,9.26,1.11,13.28,3.21l7.68,4.01Z"/>
            <rect class="cls-4" x="34.26" y="88.76" width="185.06" height="29.41" rx="1.45" ry="1.45"/>
          </g>
          <g class="cls-74">
            <path class="cls-91" d="M153.54,108.46H45.91c-2.76,0-4.99-2.24-4.99-4.99s2.24-4.99,4.99-4.99h107.63c2.76,0,4.99,2.24,4.99,4.99s-2.24,4.99-4.99,4.99Z"/>
          </g>
          <g class="cls-15">
            <path class="cls-16" d="M237.34,495.46c-10.63,16.76-34.76,26.9-85.97,27.16h-49.16c-51.21-.26-75.37-10.4-85.94-27.16H237.34Z"/>
          </g>
          <circle class="cls-127" cx="126.79" cy="287.99" r="71.76" transform="translate(-166.5 174) rotate(-45)"/>
          <path class="cls-127" d="M211.89,418.22c-57.51-9.47-114.27-9.73-170.2,0v-63.36H211.89v63.36Z"/>
          <path class="cls-56" d="M206.13,411.47l-3.3-.48c-26-3.8-51.98-5.72-77.24-5.72s-50.26,1.9-74.84,5.64l-3.31,.51v-47.91h5.76v41.21c23.8-3.46,48.14-5.21,72.39-5.21s49.6,1.79,74.77,5.31v-41.31h5.76v47.96Z"/>
          <g class="cls-74">
            <path class="cls-46" d="M253.56,193.56c-.35,13.8-2.97,27.62-4.84,30.56-.78,1.24-1.41,2.88-1.93,4.95H6.86c-.55-2.07-1.21-3.72-1.99-4.95-1.84-2.91-4.46-16.76-4.84-30.56H253.56Z"/>
          </g>
          <g class="cls-15">
            <path class="cls-16" d="M253.56,193.56c-.35,13.8-2.97,27.62-4.84,30.56-.78,1.24-1.41,2.88-1.93,4.95-1.38,5.27-2.04,13.16-2.3,23.76-.03,1.07-.06,2.19-.06,3.31t0,.06c-.03,.17-.03,.35-.03,.52v1.38c-.03,1.35-.03,2.68-.03,4.09-.03,2.3-.03,4.69-.03,7.2v1.93h.03v1.18c0,.37-.03,.75-.03,1.15v.61c0,.66,0,1.35,.03,2.02v.35c.03,3.05,.03,6.19,.09,9.48v.17c.06,4.09,.09,8.38,.14,12.87,.03,2.07,.03,4.23,.06,6.36,.09,7.26,.14,15,.17,23.21v.72c.03,3.48,.03,7.03,.03,10.66v123.2c0,1.15-.03,2.28-.06,3.4-.03,1.09-.09,2.16-.14,3.23-.17,3.08-.52,6.05-1.07,8.9-.09,.6-.23,1.18-.37,1.79-.12,.69-.29,1.38-.46,2.04-.17,.72-.37,1.44-.6,2.16-.75,2.48-1.67,4.87-2.82,7.14-.26,.49-.52,.98-.78,1.47-.26,.49-.55,.98-.86,1.47-.32,.55-.66,1.07-1.04,1.61-.29,.43-.6,.86-.92,1.3-1.15,1.55-2.42,3.05-3.86,4.49-.55,.52-1.09,1.04-1.67,1.55-.63,.58-1.3,1.12-1.99,1.67-.69,.55-1.38,1.09-2.13,1.61-.72,.52-1.5,1.01-2.28,1.5,0,0-.03,.03-.06,.03-2.36,1.5-5.01,2.88-7.89,4.15-.98,.43-1.99,.84-3.02,1.24-.98,.37-1.99,.75-3.02,1.09-.09,.03-.14,.06-.23,.09-1.07,.35-2.19,.69-3.31,1.04-1.21,.37-2.48,.72-3.8,1.07-1.15,.29-2.33,.58-3.57,.86-.2,.03-.4,.09-.6,.14-1.09,.23-2.22,.46-3.37,.69-1.47,.29-2.97,.55-4.52,.81-1.35,.2-2.71,.4-4.12,.6,5.59-2.33,8.47-6.42,9.71-13.42,.55-3.11,.78-6.83,.78-11.17v-155.75c0-3.63,0-7.17-.03-10.66v-.72c-.03-8.21-.09-15.95-.17-23.21-.03-2.13-.03-4.29-.06-6.36-.06-4.49-.09-8.78-.14-12.87v-.17c-.03-1.81-.03-3.63-.06-5.36-.03-2.45-.03-4.81-.06-7.08,.03-.81,.03-1.58,.03-2.33h-.03v-1.93c0-2.51,0-4.9,.03-7.2,0-1.41,0-2.74,.03-4.09v-1.38c.03-1.32,.06-2.65,.09-3.89,.26-10.6,.92-18.49,2.3-23.76,.52-2.07,1.15-3.72,1.93-4.95,1.87-2.94,4.49-16.76,4.84-30.56,.17-7.63-.32-15.26-2.02-20.99-.72-2.42-1.64-4.52-2.82-6.13-12.12-16.65-31.56-17.11-40.58-25.08-3.05-2.71-4.9-6.22-4.9-11.52H50.35v-11.66h118.45c1.32,0,2.42-1.09,2.42-2.42v-24.57c0-1.32-1.09-2.42-2.42-2.42h-8.24l-.75-.4c-4.03-2.1-8.61-3.2-13.31-3.2h48.1c4.69,0,9.27,1.09,13.31,3.2l.75,.4h8.24c1.32,0,2.42,1.09,2.42,2.42v24.57c0,1.32-1.07,2.39-2.39,2.42h-13.71v11.66h.03c0,6.65,2.94,10.54,7.46,13.45,7.75,4.95,20.19,7.06,30.53,15.35,2.68,2.13,5.21,4.67,7.49,7.81,3.97,5.47,5.1,16.27,4.84,27.13Z"/>
          </g>
          <g class="cls-74">
            <path class="cls-91" d="M46.83,488.26c-4.77,0-8.64-3.87-8.64-8.64v-153.37c0-12.52,.35-24.31,.67-34.7,.77-25.55,1.43-47.62-4.45-55.53-10.18-13.68-15.53-48.43-.77-71.74,2.55-4.03,7.89-5.23,11.92-2.67,4.03,2.55,5.23,7.89,2.68,11.92-11.1,17.52-5.42,44.84,.04,52.19,9.47,12.74,8.79,35.23,7.86,66.36-.31,10.27-.66,21.92-.66,34.18v153.37c0,4.77-3.87,8.64-8.64,8.64Z"/>
          </g>
          <g>
            <path class="cls-45" d="M188.36,301.43c-4.51,15.24-26.88,31.81-41.62,27.45-7.67-2.27-13.98-10.4-17.65-19.83,0-.02-.01-.02-.01-.02-3.38-8.71-4.5-18.51-2.34-25.82,4.5-15.23,23.96-21.94,38.71-17.58,3.83,1.13,7.52,3.07,10.8,5.58,9.37,7.14,15.45,18.95,12.12,30.22Z"/>
            <path class="cls-37" d="M188.36,301.43c-4.51,15.24-26.88,31.81-41.62,27.45-7.67-2.27-13.98-10.4-17.65-19.83,16.54,16.98,53.51-9.39,47.16-37.84,9.37,7.14,15.45,18.95,12.12,30.22Z"/>
          </g>
          <g>
            <g>
              <path class="cls-110" d="M138.58,293.46c0,17.43-18.37,41.81-35.23,41.81-8.77,0-17.93-6.59-24.73-15.36,0-.02-.02-.02-.02-.02-6.26-8.11-10.49-18.06-10.49-26.43,0-17.41,18.37-30.53,35.23-30.53,4.38,0,8.86,.89,13.09,2.51,12.08,4.6,22.14,15.12,22.14,28.01Z"/>
              <path class="cls-89" d="M138.58,293.46c0,17.43-18.37,41.81-35.23,41.81-8.77,0-17.93-6.59-24.73-15.36,22.68,12.71,53.35-26.52,37.82-54.46,12.08,4.6,22.14,15.12,22.14,28.01Z"/>
            </g>
            <path class="cls-50" d="M96.3,267.21c-17.69,5.12-26.55-9.58-26.55-9.58,16.76-3.02,25.79,3.76,25.79,3.76-7.96-15.92,2.72-34,2.72-34,8.77,8.77,6,32.55,6,32.55,4.39-15.81,25.62-17.31,25.62-17.31,0,12-16.22,18.99-16.22,18.99,13.85,0,21.29,7.62,21.29,7.62-13.39,7.44-28.85-2.37-28.85-2.37,4.79,8.94-2.77,21.01-2.77,21.01-7.85-5.31-7.04-20.66-7.04-20.66Z"/>
          </g>
        </g>
        <g>
          <path class="cls-3" d="M1107.36,126.89c-.4,16.15-3.47,32.33-5.66,35.77-.91,1.45-1.65,3.37-2.26,5.8-1.62,6.17-2.39,15.41-2.7,27.81,0,.47-.03,.98-.03,1.48-.03,.78-.03,1.58-.03,2.39t0,.07c-.03,.81-.03,1.62-.03,2.43-.03,1.48-.03,3.03-.03,4.59v11.29c-.03,.78,0,1.55,0,2.36-.03,.27-.03,.51,0,.78-.1,45.75,.24,137.65,.4,187.3,.07,6.14,.07,11.63,.07,16.32,.07,10.89,.1,17.36,.1,17.36,0,10.72-1.18,20.56-4.55,29.23-1.15,2.93-2.56,5.76-4.25,8.43-12.44,19.62-40.69,31.49-100.63,31.79h-57.55c-59.94-.3-88.22-12.17-100.6-31.79-1.72-2.66-3.1-5.49-4.25-8.43-3.4-8.66-4.59-18.51-4.59-29.23,0,0,.03-6.47,.07-17.36,.03-4.69,.07-10.18,.07-16.32,.17-38.97,.44-104,.47-152.28,.03-12.78,.03-24.41,0-34.05v-1.42c.03-1.11,.03-2.23,0-3.3,0-.71,.03-1.42,0-2.12v-3.98c0-4.79-.03-8.7-.07-11.63v-.07c0-1.31-.03-2.6-.07-3.84-.03-.78-.03-1.55-.07-2.29-.34-11.26-1.08-19.75-2.6-25.52-.64-2.43-1.42-4.35-2.33-5.8-2.16-3.4-5.23-19.62-5.66-35.77-.3-12.68,1.01-25.35,5.66-31.76,18.95-26.03,53.23-18.24,53.23-42.85h178.98c0,24.61,34.28,16.82,53.23,42.85,4.65,6.41,5.97,19.05,5.66,31.76Z"/>
          <path class="cls-30" d="M930.2,498.6c-49.33-.25-78.53-8.59-89.19-25.5-1.21-1.87-2.2-3.84-3.09-6.14-2.47-6.27-3.66-14.22-3.66-24.32l.39-249.26c-.39-13.08-1.33-21.89-3.03-28.35-.92-3.5-2.1-6.43-3.59-8.95-1.22-3.3-3.6-16.06-3.96-29.55-.35-14.7,1.87-21.78,3.09-23.47,6.49-8.92,15.68-12.55,25.41-16.41,9.78-3.87,22.32-8.83,27.72-20.88h157.34c5.4,12.05,17.94,17.01,27.72,20.88,9.73,3.85,18.92,7.49,25.42,16.41,1.21,1.67,3.44,8.76,3.08,23.5-.34,13.47-2.72,26.23-3.95,29.49-1.53,2.6-2.69,5.57-3.58,9.14-1.71,6.53-2.68,15.63-3.06,29.26l.39,248.25c0,10.03-1.19,17.99-3.63,24.27-.84,2.16-1.88,4.22-3.08,6.11-10.72,16.91-39.93,25.26-89.28,25.52h-57.5Z"/>
          <rect class="cls-3" x="869.51" y="38.65" width="178.95" height="13.64"/>
          <g>
            <g>
              <path class="cls-93" d="M1062.91,8.44h-207.85l8.99-4.69c4.71-2.46,10.08-3.75,15.55-3.75h158.77c5.47,0,10.84,1.3,15.55,3.75l8.99,4.69Z"/>
              <rect class="cls-106" x="850.67" y="4.22" width="216.62" height="34.43" rx="1.65" ry="1.65"/>
            </g>
            <g class="cls-74">
              <path class="cls-91" d="M990.3,27.28h-125.99c-3.23,0-5.85-2.62-5.85-5.85s2.62-5.85,5.85-5.85h125.99c3.23,0,5.85,2.62,5.85,5.85s-2.62,5.85-5.85,5.85Z"/>
            </g>
          </g>
          <path class="cls-41" d="M1097.18,298.42v126.86h-276.4v-126.86c0-4.42,0-8.7,.03-12.91,0-3.14,.03-6.2,.03-9.2,.03-1.01,.03-2.06,.03-3.07,.03-1.48,.03-2.97,.03-4.42,.03-2.9,.07-5.76,.1-8.56,0-1.38,.03-2.76,.03-4.15,.03-2.29,.03-4.52,.07-6.71,.03-2.09,.07-4.15,.07-6.17,.03-1.05,.03-2.09,.03-3.1v-.47c0-.4,.03-.81,.03-1.18v-1.52c0-.61,0-1.21,.03-1.79,0-1.92,.03-3.78,.03-5.63,.03-1.28,.03-2.56,.03-3.81,.03-1.04,.03-2.09,.03-3.1v-1.42c.03-1.11,.03-2.23,0-3.3,0-.71,.03-1.42,0-2.12,.03-1.35,.03-2.66,.03-3.98,0-1.55,0-3.1-.03-4.58,0-1.58,0-3.14-.03-4.65,0-.81,0-1.62-.03-2.39v-.07c0-1.31-.03-2.6-.07-3.84h275.49c0,.47-.03,.98-.03,1.48-.03,.78-.03,1.58-.03,2.39t0,.07c-.03,.81-.03,1.62-.03,2.43-.03,1.48-.03,3.03-.03,4.59v.94c-.03,1.18-.03,2.39-.03,3.64v3.84c0,.94,0,1.89,.03,2.87-.03,.78,0,1.55,0,2.36-.03,.27-.03,.51,0,.78,0,4.32,.03,8.83,.1,13.59v.17c.03,1.89,.03,3.78,.07,5.73,.03,3.03,.07,6.14,.1,9.34,.13,14.29,.3,30.27,.3,47.94Z"/>
          <path class="cls-49" d="M1097.18,298.42v126.86h-276.4v-126.86c0-4.42,0-8.7,.03-12.91,0-3.14,.03-6.2,.03-9.2,.03-1.01,.03-2.06,.03-3.07,.03-1.48,.03-2.97,.03-4.42,.03-2.9,.07-5.76,.1-8.56,0-1.38,.03-2.76,.03-4.15,.03-2.29,.03-4.52,.07-6.71,.03-2.09,.07-4.15,.07-6.17,.03-1.05,.03-2.09,.03-3.1v-.47c.03-.91,.03-1.82,.03-2.7,0-.61,0-1.21,.03-1.79,0-1.92,.03-3.78,.03-5.63,.03-1.28,.03-2.56,.03-3.81,.03-1.04,.03-2.09,.03-3.1v-1.42c.03-1.11,.03-2.23,0-3.3,0-.71,.03-1.42,0-2.12,.03-1.35,.03-2.66,.03-3.98,0-1.55,0-3.1-.03-4.58,0-1.58,0-3.14-.03-4.65,0-.81,0-1.62-.03-2.39v-.07c0-1.31-.03-2.6-.07-3.84h275.49c0,.47-.03,.98-.03,1.48-.03,.78-.03,1.58-.03,2.39t0,.07c-.03,.81-.03,1.62-.03,2.43-.03,1.48-.03,3.03-.03,4.59v.94c-.03,1.18-.03,2.39-.03,3.64v3.84c0,.94,0,1.89,.03,2.87-.03,.78,0,1.55,0,2.36-.03,.27-.03,.51,0,.78,0,4.32,.03,8.83,.1,13.59v.17c.03,1.89,.03,3.78,.07,5.73,.03,3.03,.07,6.14,.1,9.34,.13,14.29,.3,30.27,.3,47.94Z"/>
          <g>
            <path class="cls-128" d="M1073.42,411.35c-1.92,4.92-4.18,9.57-6.68,13.92h-89.3c-2.9-14.63-1.38-32.06,5.33-49.25,14.16-36.27,45.88-57.78,70.93-48.01,25.01,9.74,33.85,47.06,19.72,83.34Z"/>
            <path class="cls-35" d="M1056.76,404.84c-3.07,7.92-7.05,14.77-11.43,20.43h-49.76c-3.07-11.29-2.46-26.57,3.84-42.78,11.36-29.13,34.39-43.56,47.94-38.26,13.59,5.26,20.77,31.49,9.41,60.61Z"/>
          </g>
          <g>
            <path class="cls-128" d="M898.45,291.98c-22.96,13.48-57.24-2.33-77.07-35.3-.1-.2-.24-.37-.34-.57,.03-2.29,.03-4.52,.07-6.71,.03-2.09,.07-4.15,.07-6.17,.03-1.05,.03-2.09,.03-3.1v-.47c0-.4,.03-.81,.03-1.18v-1.52c0-.61,0-1.21,.03-1.79,0-1.92,.03-3.78,.03-5.63,.03-1.28,.03-2.56,.03-3.81,.03-1.04,.03-2.09,.03-3.1v-1.42c.03-1.11,.03-2.23,0-3.3,0-.71,.03-1.42,0-2.12,.03-1.35,.03-2.66,.03-3.98,0-1.55,0-3.1-.03-4.58,0-1.58,0-3.14-.03-4.65,0-.81,0-1.62-.03-2.39v-.07c0-1.31-.03-2.6-.07-3.84h76.56c2.49,3.2,4.79,6.67,6.94,10.32,1.01,1.72,1.96,3.47,2.87,5.23,16.48,32.23,12.84,67.29-9.17,80.17Z"/>
            <path class="cls-35" d="M889.66,276.98c-12.54,7.38-37.59-3.24-53.4-30.21-11.23-19.18-12.98-38.36-8.56-50.5h46.05c5.63,5.02,11.02,11.5,15.61,19.35,15.84,26.97,12.88,54.01,.3,61.36Z"/>
          </g>
          <g>
            <path class="cls-128" d="M1097.19,298.42v25.79c-9.2-3.2-18.51-8.93-26.7-16.92-21.91-21.37-27.71-50.97-12.98-66.08,9.14-9.37,24-10.99,39.21-5.8,.07,4.79,.1,9.81,.17,15.07,.13,14.29,.3,30.27,.3,47.94Z"/>
            <path class="cls-35" d="M1097.19,298.42v10.72c-5.63-2.66-11.43-6.57-16.89-11.9-17.63-17.19-21-38.3-12.98-46.49,5.46-5.6,17.13-6.03,29.57-.27,.13,14.29,.3,30.27,.3,47.94Z"/>
          </g>
          <g class="cls-15">
            <path class="cls-60" d="M1107.37,126.89c-.4,16.15-3.47,32.33-5.66,35.77-.91,1.45-1.65,3.37-2.26,5.8h-280.85c-.64-2.43-1.42-4.35-2.33-5.8-2.16-3.41-5.23-19.62-5.66-35.77h296.76Z"/>
          </g>
          <g>
            <path class="cls-128" d="M1030.91,246.53c-12.27,31.52-39.88,50.23-61.63,41.74-21.74-8.46-29.43-40.89-17.13-72.45,2.83-7.25,6.47-13.82,10.65-19.55h70.69c4.92,13.96,4.42,32.26-2.6,50.26Z"/>
            <path class="cls-35" d="M1016.48,240.9c-9.88,25.35-29.9,37.86-41.7,33.27-11.8-4.58-18.04-27.37-8.19-52.69,4.25-10.89,10.35-19.38,16.86-25.22h33.41c5.5,9.81,6.68,26.56-.37,44.63Z"/>
          </g>
          <g>
            <path class="cls-128" d="M869.46,425.27h-48.68v-67.9c10.32-6.1,21.44-7.85,31.35-4.01,21.61,8.43,29.33,40.56,17.33,71.91Z"/>
            <path class="cls-35" d="M854.83,420.18c-.67,1.75-1.42,3.47-2.23,5.09h-31.82v-48.78c8.97-8.43,18.84-11.77,25.86-9.03,11.8,4.62,18.07,27.37,8.19,52.73Z"/>
          </g>
          <g>
            <path class="cls-128" d="M963.45,343.63c8.63,28.42-.26,56.3-19.87,62.25-19.61,5.96-42.51-12.26-51.14-40.68-8.64-28.42,.26-56.3,19.87-62.25,19.61-5.96,42.51,12.26,51.14,40.68Z"/>
            <path class="cls-35" d="M939.71,393.17c-10.63,3.23-27.31-9.09-34.25-31.93-6.94-22.84,.07-42.36,10.7-45.59,10.63-3.23,27.31,9.09,34.25,31.93,6.94,22.84-.07,42.36-10.7,45.59Z"/>
          </g>
          <g>
            <rect class="cls-52" x="820.78" y="408.97" width="276.4" height="16.31"/>
            <path class="cls-52" d="M1096.74,196.27c0,.47-.03,.98-.03,1.48-.03,.78-.03,1.58-.03,2.39t0,.07c-.03,.81-.03,1.62-.03,2.43-.03,1.48-.03,3.03-.03,4.59v4.58h-275.22c0-4.79-.03-8.7-.07-11.63v-.07c0-1.31-.03-2.6-.07-3.84h275.49Z"/>
          </g>
          <ellipse class="cls-52" cx="958.98" cy="310.77" rx="91.52" ry="64.24"/>
          <g class="cls-74">
            <path class="cls-91" d="M865.39,471.86c-5.59,0-10.11-4.53-10.11-10.11v-179.53c0-14.66,.41-28.45,.78-40.62,.9-29.91,1.68-55.74-5.21-65-11.91-16.02-18.18-56.69-.9-83.98,2.99-4.72,9.24-6.12,13.96-3.13,4.72,2.99,6.12,9.23,3.13,13.96-12.99,20.5-6.34,52.49,.04,61.09,11.08,14.91,10.29,41.24,9.2,77.68-.36,12.03-.77,25.66-.77,40.01v179.53c0,5.59-4.53,10.11-10.11,10.11Z"/>
          </g>
          <g class="cls-15">
            <path class="cls-16" d="M1088.39,480.29c-12.44,19.62-40.69,31.49-100.63,31.79h-57.55c-59.94-.3-88.22-12.17-100.6-31.79h258.77Z"/>
          </g>
          <g class="cls-15">
            <path class="cls-16" d="M1101.7,95.13c-18.95-26.03-53.23-18.24-53.23-42.85h-.02v-13.64h-.02s16.01-.01,16.01-.01c1.55,0,2.83-1.28,2.83-2.83V7.05c0-1.55-1.28-2.83-2.83-2.83h-9.64l-.88-.47C1049.21,1.28,1043.85,0,1038.36,0h-56.3c5.5,0,10.86,1.28,15.58,3.74l.88,.47h9.64c1.55,0,2.83,1.28,2.83,2.83v28.76c0,1.55-1.28,2.83-2.83,2.83h-16.01s-122.63,.01-122.63,.01v13.64h122.66c0,24.61,34.28,16.82,53.23,42.85,4.65,6.41,5.97,19.05,5.66,31.76-.4,16.15-3.47,32.33-5.66,35.77-.91,1.45-1.65,3.37-2.26,5.8-1.62,6.17-2.39,15.41-2.7,27.81-.03,1.45-.07,3-.1,4.55v1.62c-.03,1.58-.03,3.14-.03,4.79-.03,2.7-.03,5.49-.03,8.43v2.26h.03c0,.88,0,1.79-.03,2.73,.03,4.58,.07,9.44,.13,14.56v.2c.07,4.79,.1,9.81,.17,15.07,.03,2.43,.03,4.96,.07,7.45,.1,8.5,.17,17.56,.2,27.17v.84c.03,4.08,.03,8.23,.03,12.47v182.31c0,16.62-2.83,24.85-12.27,28.79,56.67-7.79,68.57-32.77,68.57-66.88v-144.22c0-4.25,0-8.39-.03-12.47v-.84c-.03-9.61-.1-18.68-.2-27.17-.03-2.49-.03-5.02-.07-7.45-.07-5.26-.1-10.28-.17-15.07v-.2c-.07-5.12-.1-9.98-.13-14.56,.03-.94,.03-1.85,.03-2.73h-.03v-2.26c0-2.93,0-5.73,.03-8.43,0-1.65,0-3.2,.03-4.79v-1.62c.03-1.55,.07-3.1,.1-4.55,.3-12.41,1.08-21.64,2.7-27.81,.61-2.43,1.35-4.35,2.26-5.8,2.19-3.44,5.26-19.62,5.66-35.77,.3-12.71-1.01-25.35-5.66-31.76Z"/>
          </g>
        </g>
        <g>
          <path class="cls-90" d="M1333,296.27v163.99c0,11.49-3.62,26.57-9.12,38.47-5.17,11.16-12.07,19.53-19.22,19.53h-162.24c-7.18,0-14.1-8.37-19.31-19.53-5.51-11.91-9.12-26.98-9.12-38.47v-163.99c0-14.1,1.75-24.56,4.2-32.74,3.7-12.13,9.01-19.06,12.3-24.84,1.95-3.34,3.2-6.26,3.2-9.6v-.03h179.71v.03c0,.42,.03,.83,.06,1.22,.11,1.22,.42,2.39,.83,3.56,.17,.39,.31,.81,.47,1.2,.33,.78,.72,1.56,1.17,2.39,.22,.39,.45,.81,.67,1.22,3.28,5.79,8.51,12.71,12.21,24.84,2.45,8.18,4.2,18.64,4.2,32.74Z"/>
          <path class="cls-17" d="M1324.64,296.26v163.99c0,10.13-3.34,24.17-8.35,34.97-5.15,11.1-10.07,14.69-11.66,14.69h-162.21c-1.61,0-6.56-3.59-11.77-14.72-4.98-10.77-8.35-24.81-8.35-34.94v-163.99c0-11.77,1.28-21.7,3.87-30.35,2.56-8.43,6.01-13.99,9.04-18.92,.75-1.2,1.45-2.34,2.06-3.45h172.5c.64,1.11,1.28,2.2,1.97,3.31,3,4.92,6.45,10.52,9.07,19.11,2.56,8.6,3.81,18.53,3.81,30.29Z"/>
          <g>
            <path class="cls-102" d="M1245.06,317.85c24.85-17.18,11.07-49.15-11.59-57.32-22.66-8.18-45.14-.55-48.74,28-3.6,28.55,64.41,14.16,64.41,14.16l-4.08,15.16Z"/>
            <g>
              <path class="cls-85" d="M1242.24,286.57c-8.51-9.43-20.93-13.98-33.87-15.25-10.19-1-18.72,4.74-22.34,13.62h0c-3.62,8.88,.64,19.02,9.52,22.64l31.86,12.99c8.88,3.62,19.02-.64,22.64-9.52h0c3.62-8.88-1.09-17.04-7.8-24.48Z"/>
              <g class="cls-15">
                <path class="cls-66" d="M1225.59,314.13c17.59,5.06,14.59-17.91-4.47-23.69-19.07-5.79-30.1,2.3-21.97,13.79,8.13,11.49,26.45,9.9,26.45,9.9Z"/>
              </g>
              <path class="cls-123" d="M1194.12,311.68l5.83-14.3c5.41-13.26,36.85-.44,31.44,12.82l-5.83,14.3c-6.18,15.15-37.62,2.33-31.44-12.82Z"/>
              <path class="cls-85" d="M1221.91,326.07c1.58-3.87-3.02-9.41-10.28-12.37-7.26-2.96-14.42-2.22-16,1.66-1.58,3.87,3.02,9.41,10.28,12.37,7.26,2.96,14.42,2.22,16-1.66Z"/>
            </g>
          </g>
          <g>
            <path class="cls-102" d="M1209.39,447.81c-25.61,16.03-13.3,48.59,8.96,57.79,22.26,9.2,45.07,2.61,49.97-25.74,4.9-28.35-63.7-17.09-63.7-17.09l4.77-14.96Z"/>
            <g>
              <path class="cls-85" d="M1210.79,479.18c8.07,9.8,20.27,14.93,33.14,16.78,10.13,1.46,18.92-3.88,22.94-12.58h0c4.02-8.71,.23-19.03-8.48-23.05l-31.23-14.43c-8.71-4.02-19.03-.23-23.05,8.48h0c-4.02,8.71,.31,17.07,6.67,24.81Z"/>
              <g class="cls-15">
                <path class="cls-66" d="M1228.68,452.41c-17.34-5.86-15.39,17.22,3.39,23.87,18.78,6.65,30.17-.93,22.58-12.77-7.59-11.85-25.97-11.1-25.97-11.1Z"/>
              </g>
              <path class="cls-123" d="M1260,456.29l-6.48,14.02c-6.01,13-36.83-1.25-30.82-14.24l6.48-14.02c6.86-14.85,37.69-.61,30.82,14.24Z"/>
              <path class="cls-85" d="M1232.9,440.65c-1.76,3.8,2.59,9.54,9.7,12.83,7.11,3.29,14.3,2.87,16.06-.92s-2.59-9.54-9.7-12.83c-7.11-3.29-14.3-2.87-16.06,.92Z"/>
            </g>
          </g>
          <g>
            <path class="cls-102" d="M1137.36,396.59c-25.61,16.03-13.3,48.59,8.96,57.79,22.26,9.2,45.07,2.61,49.97-25.74,4.9-28.35-63.7-17.09-63.7-17.09l4.77-14.96Z"/>
            <g>
              <path class="cls-85" d="M1138.75,427.95c8.07,9.81,20.27,14.93,33.14,16.78,10.13,1.46,18.92-3.88,22.94-12.59h0c4.02-8.71,.23-19.03-8.48-23.05l-31.23-14.43c-8.71-4.02-19.03-.23-23.05,8.48h0c-4.02,8.71,.31,17.07,6.67,24.81Z"/>
              <g class="cls-15">
                <path class="cls-66" d="M1156.64,401.18c-17.34-5.86-15.39,17.22,3.39,23.87,18.78,6.65,30.17-.93,22.58-12.77-7.59-11.85-25.97-11.1-25.97-11.1Z"/>
              </g>
              <path class="cls-123" d="M1187.97,405.07l-6.48,14.02c-6.01,13-36.83-1.25-30.82-14.24l6.48-14.02c6.86-14.85,37.69-.61,30.82,14.24Z"/>
              <path class="cls-85" d="M1160.87,389.43c-1.76,3.8,2.59,9.54,9.7,12.83,7.11,3.29,14.3,2.87,16.06-.92,1.75-3.8-2.59-9.54-9.7-12.83-7.11-3.29-14.3-2.87-16.06,.92Z"/>
            </g>
          </g>
          <g>
            <path class="cls-80" d="M1301.39,290.14v17.5h-38.47v-17.5c0-4.98,4.03-9.04,9.04-9.04h20.39c4.98,0,9.04,4.06,9.04,9.04Z"/>
            <g class="cls-15">
              <path class="cls-3" d="M1301.39,294.36v13.27h-38.47v-13.19c.53-.06,1.06-.08,1.59-.08h36.89Z"/>
            </g>
            <path class="cls-80" d="M1305.22,342.18c-12.96,6.25-27.95,5.72-42.08,1.51-11.12-3.31-17.62-12.98-17.62-23.86h0c0-10.87,8.81-19.68,19.68-19.68h38.99c10.87,0,19.68,8.81,19.68,19.68h0c0,10.87-8.44,17.42-18.66,22.35Z"/>
          </g>
          <g>
            <path class="cls-80" d="M1189.6,448.77l-1.09,19.17-42.14-2.39,1.09-19.17c.31-5.45,4.98-9.65,10.46-9.34l22.34,1.27c5.45,.31,9.65,5.01,9.34,10.46Z"/>
            <g class="cls-15">
              <path class="cls-3" d="M1189.34,453.41l-.82,14.53-42.14-2.39,.82-14.44c.58-.03,1.16-.03,1.74,0l40.4,2.29Z"/>
            </g>
            <path class="cls-80" d="M1190.56,506.02c-14.59,6.04-30.98,4.52-46.18-.96-11.97-4.32-18.49-15.32-17.82-27.22h0c.68-11.91,10.88-21.01,22.78-20.34l42.71,2.42c11.91,.68,21.01,10.88,20.34,22.78h0c-.68,11.91-10.32,18.56-21.83,23.32Z"/>
          </g>
          <g>
            <path class="cls-38" d="M1285.36,442.6l10.35,13.95-30.68,22.77-10.36-13.95c-2.95-3.97-2.13-9.6,1.86-12.56l16.26-12.07c3.97-2.95,9.61-2.11,12.56,1.86Z"/>
            <g class="cls-15">
              <path class="cls-3" d="M1287.86,445.98l7.85,10.58-30.68,22.77-7.8-10.51c.39-.36,.79-.69,1.21-1l29.41-21.83Z"/>
            </g>
            <path class="cls-18" d="M1319.21,481.84c-6.64,12.66-18.91,21.1-32.66,26.1-10.83,3.94-21.73,.07-28.17-8.6h0c-6.43-8.67-4.62-20.91,4.05-27.34l31.09-23.07c8.67-6.43,20.91-4.62,27.34,4.05h0c6.43,8.67,3.58,18.88-1.66,28.86Z"/>
          </g>
          <g>
            <path class="cls-38" d="M1172.57,329.73l-17.27-1.89,4.16-37.98,17.27,1.89c4.92,.54,8.49,4.96,7.95,9.9l-2.2,20.13c-.54,4.92-4.99,8.49-9.9,7.95Z"/>
            <g class="cls-15">
              <path class="cls-3" d="M1168.4,329.27l-13.1-1.43,4.16-37.98,13.02,1.43c0,.53-.03,1.05-.09,1.57l-3.99,36.41Z"/>
            </g>
            <path class="cls-18" d="M1122.87,327.88c-2.1-5.93-.85-11.85-.55-18.06,.37-7.89-1.65-16.09,1.53-23.64,4.47-10.62,14.72-15.99,25.45-14.81h0c10.73,1.17,18.48,10.83,17.3,21.56l-4.22,38.49c-1.18,10.73-10.83,18.48-21.56,17.3h0c-10.73-1.18-14.2-10.21-17.96-20.84Z"/>
          </g>
          <g>
            <path class="cls-102" d="M1311.3,297.25c22.18-15.33,9.88-43.86-10.35-51.16-20.22-7.3-40.29-.49-43.5,24.99-3.21,25.48,57.49,12.64,57.49,12.64l-3.64,13.53Z"/>
            <g>
              <path class="cls-85" d="M1308.78,269.34c-7.59-8.41-18.68-12.48-30.23-13.61-9.09-.89-16.71,4.23-19.94,12.16h0c-3.23,7.93,.57,16.97,8.5,20.2l28.43,11.59c7.93,3.23,16.97-.57,20.2-8.5h0c3.23-7.93-.97-15.21-6.96-21.84Z"/>
              <g class="cls-15">
                <path class="cls-66" d="M1293.92,293.94c15.7,4.52,13.02-15.98-3.99-21.15-17.02-5.17-26.86,2.06-19.61,12.31,7.25,10.25,23.6,8.84,23.6,8.84Z"/>
              </g>
              <path class="cls-123" d="M1265.83,291.75l5.2-12.76c4.83-11.83,32.88-.39,28.06,11.44l-5.2,12.76c-5.51,13.52-33.57,2.08-28.06-11.44Z"/>
              <path class="cls-85" d="M1290.63,304.59c1.41-3.46-2.7-8.4-9.17-11.04-6.48-2.64-12.87-1.98-14.28,1.48-1.41,3.46,2.7,8.4,9.17,11.04,6.48,2.64,12.87,1.98,14.28-1.48Z"/>
            </g>
          </g>
          <g>
            <path class="cls-38" d="M1270.79,399.86l17.37,.16-.35,38.2-17.37-.16c-4.94-.05-8.94-4.09-8.89-9.06l.19-20.25c.05-4.94,4.12-8.94,9.06-8.89Z"/>
            <g class="cls-15">
              <path class="cls-3" d="M1274.98,399.9l13.18,.12-.35,38.2-13.09-.12c-.05-.53-.07-1.05-.07-1.58l.34-36.63Z"/>
            </g>
            <path class="cls-18" d="M1320.43,396.75c2.68,5.69,2.02,11.71,2.35,17.91,.42,7.89,3.24,15.84,.83,23.67-3.39,11.01-13.06,17.38-23.85,17.27h0c-10.79-.1-19.46-8.93-19.36-19.73l.36-38.72c.1-10.79,8.93-19.46,19.73-19.36h0c10.79,.1,15.15,8.74,19.95,18.94Z"/>
          </g>
          <path class="cls-111" d="M1324.47,205.21v21.56c0,1.28-1.03,2.31-2.31,2.31h-197.35c-1.25,0-2.28-1.03-2.28-2.31v-21.56c0-1.28,1.03-2.31,2.28-2.31h197.35c1.28,0,2.31,1.03,2.31,2.31Z"/>
          <g>
            <g class="cls-74">
              <path class="cls-19" d="M1229.4,221.22h-12c-2.89,0-5.23-2.34-5.23-5.23s2.34-5.23,5.23-5.23h12c2.89,0,5.23,2.34,5.23,5.23s-2.34,5.23-5.23,5.23Z"/>
            </g>
            <g class="cls-74">
              <path class="cls-19" d="M1196.25,221.22h-57.36c-2.89,0-5.23-2.34-5.23-5.23s2.34-5.23,5.23-5.23h57.36c2.89,0,5.23,2.34,5.23,5.23s-2.34,5.23-5.23,5.23Z"/>
            </g>
          </g>
          <g class="cls-15">
            <path class="cls-19" d="M1316.6,238.68h-186.13c1.95-3.35,3.21-6.28,3.21-9.63h179.71c0,3.35,1.33,6.28,3.21,9.63Z"/>
          </g>
          <g class="cls-15">
            <path class="cls-53" d="M1323.88,498.73c-5.17,11.16-12.07,19.53-19.22,19.53h-162.24c-7.18,0-14.1-8.37-19.31-19.53h200.77Z"/>
          </g>
          <path class="cls-11" d="M1296.44,417.12c-14.69,26.51-42.65,43.01-72.97,43.01s-58.25-16.5-72.97-43.01c-.47-.89-1.42-1.45-2.42-1.45h-34.11v5.56h32.46c15.88,27.46,45.26,44.45,77.03,44.45s61.15-17,77.03-44.45h32.49v-5.56h-34.11c-1.03,0-1.95,.56-2.45,1.45Zm4.06-84.9c-15.88-27.46-45.26-44.45-77.03-44.45s-61.15,17-77.03,44.45h-32.46v5.56h34.11c1,0,1.95-.56,2.42-1.45,14.72-26.51,42.67-43.01,72.97-43.01s58.28,16.5,72.97,43.01c.5,.89,1.42,1.45,2.45,1.45h34.11v-5.56h-32.49Z"/>
          <path class="cls-11" d="M1332.99,346.13h-40.98c-11.71-26.19-37.98-44.46-68.53-44.46s-56.82,18.26-68.53,44.46h-40.98v61.2h40.98c11.71,26.19,37.98,44.45,68.53,44.45s56.82-18.26,68.53-44.45h40.98v-61.2Z"/>
          <g class="cls-15">
            <path class="cls-90" d="M1324.47,205.21v21.56c0,1.28-1.03,2.31-2.31,2.31h-50.49v-26.18h50.49c1.28,0,2.31,1.03,2.31,2.31Z"/>
          </g>
          <g>
            <path class="cls-81" d="M1191.4,401.8c-31-21.43-13.8-61.31,14.46-71.51,28.27-10.2,56.32-.69,60.8,34.93,4.49,35.61-80.36,17.67-80.36,17.67l5.09,18.92Z"/>
            <g>
              <path class="cls-33" d="M1194.92,362.79c10.62-11.76,26.12-17.45,42.26-19.03,12.71-1.24,23.36,5.91,27.87,16.99h0c4.52,11.08-.8,23.72-11.88,28.24l-39.74,16.21c-11.08,4.52-23.72-.8-28.24-11.88h0c-4.52-11.08,1.36-21.26,9.73-30.54Z"/>
              <g class="cls-15">
                <path class="cls-114" d="M1215.7,397.17c-21.95,6.32-18.2-22.34,5.58-29.56,23.79-7.22,37.55,2.88,27.41,17.21-10.14,14.33-32.99,12.35-32.99,12.35Z"/>
              </g>
              <path class="cls-5" d="M1254.96,394.11l-7.28-17.84c-6.75-16.54-45.97-.54-39.22,16l7.28,17.84c7.71,18.9,46.93,2.91,39.22-16Z"/>
              <path class="cls-33" d="M1220.29,412.07c-1.97-4.83,3.77-11.74,12.82-15.44,9.05-3.69,17.99-2.77,19.96,2.07,1.97,4.83-3.77,11.74-12.82,15.44-9.05,3.69-17.99,2.77-19.96-2.07Z"/>
            </g>
          </g>
          <g class="cls-74">
            <path class="cls-115" d="M1143.3,482.56c-4.61,0-8.35-3.74-8.35-8.35,0-35.71-.38-65.75-.68-89.9-.98-78.45-1.35-107.8,12.54-131.5,2.33-3.97,7.44-5.31,11.42-2.98,3.98,2.33,5.31,7.45,2.98,11.42-11.55,19.69-11.17,49.89-10.25,122.85,.3,24.19,.68,54.29,.68,90.1,0,4.61-3.74,8.35-8.35,8.35Z"/>
          </g>
          <g class="cls-15">
            <path class="cls-90" d="M1333,296.26v163.99c0,11.49-3.62,26.57-9.12,38.47-5.17,11.16-12.07,19.53-19.22,19.53h-30.18c10.49-14.66,19.53-39.73,19.53-61.9v-163.77c0-13.41-3.09-22.06-6.54-29.07-4.31-8.82-9.21-15.02-9.21-24.84h38.33c3.28,5.79,8.51,12.71,12.21,24.84,2.45,8.18,4.2,18.64,4.2,32.74Z"/>
          </g>
        </g>
        <g>
          <path class="cls-43" d="M1011.01,159.28h-174.03l7.53-3.93c3.94-2.06,8.44-3.14,13.02-3.14h132.94c4.58,0,9.08,1.09,13.02,3.14l7.53,3.93Z"/>
          <rect class="cls-65" x="833.31" y="155.75" width="181.38" height="28.82" rx="1.32" ry="1.32"/>
          <g class="cls-74">
            <path class="cls-91" d="M947.33,175.05h-102.6c-2.7,0-4.89-2.19-4.89-4.89s2.19-4.89,4.89-4.89h102.6c2.7,0,4.89,2.19,4.89,4.89s-2.19,4.89-4.89,4.89Z"/>
          </g>
          <path class="cls-53" d="M1027.87,325.52v144.38c0,.96-.03,1.95-.08,2.94-.51,9-3.39,18.83-8.47,27.13-6.86,11.29-17.84,19.81-32.55,19.81h-125.52c-14.73,0-25.69-8.52-32.57-19.81-5.08-8.3-7.9-18.12-8.44-27.13-.06-.99-.08-1.98-.08-2.94v-144.38c0-25.52,7.4-35.9,7.4-54.59,0-16.85-4.57-26.05-5.45-39.66-.11-1.47-.17-2.99-.17-4.57,0-16.23,21.96-18.38,21.96-29.36v-12.79h160.24v12.79c0,10.98,21.96,13.13,21.96,29.36,0,1.58-.06,3.11-.17,4.57-.88,13.61-5.48,22.81-5.48,39.66,0,18.69,7.42,29.07,7.42,54.59Z"/>
          <path class="cls-117" d="M1019.4,325.52v144.38c0,.79-.03,1.64-.06,2.46-.45,7.96-3.11,16.4-7.25,23.17-4.38,7.23-12.31,15.78-25.32,15.78h-125.52c-13.01,0-20.97-8.58-25.35-15.75-4.09-6.72-6.75-15.19-7.23-23.23-.03-.79-.06-1.64-.06-2.43v-144.38c0-12.79,1.98-21.45,3.92-29.84,1.69-7.48,3.47-15.19,3.47-24.75,0-7.82-.93-14.23-2-19.84-.37-1.92-.76-3.75-1.13-5.56-1.02-4.91-2-9.57-2.34-14.79-.08-1.38-.14-2.68-.14-4.04,0-4.09,2.74-6.46,9-10.87,5.76-4.06,12.96-9.15,12.96-18.49v-4.32h143.31v4.32c0,9.34,7.2,14.42,12.96,18.49,6.27,4.4,9,6.77,9,10.87,0,1.35-.06,2.65-.14,3.92-.34,5.33-1.33,9.99-2.37,14.9-.37,1.81-.76,3.64-1.13,5.56-1.07,5.62-2,12.02-2,19.84,0,9.57,1.78,17.3,3.5,24.75,1.92,8.38,3.92,17.05,3.92,29.84Z"/>
          <g class="cls-15">
            <path class="cls-3" d="M1019.31,499.96c-6.86,11.29-17.84,19.81-32.55,19.81h-125.52c-14.73,0-25.69-8.52-32.57-19.81h190.64Z"/>
          </g>
          <path class="cls-60" d="M1017.62,226.7c0,1.35-.06,2.65-.14,3.92-.34,5.33-1.33,9.99-2.37,14.9-.37,1.81-.76,3.64-1.13,5.56h-179.97c-.37-1.92-.76-3.75-1.13-5.56-1.02-4.91-2-9.57-2.34-14.79-.08-1.38-.14-2.68-.14-4.04,0-4.09,2.74-6.46,9-10.87,5.76-4.06,12.96-9.15,12.96-18.49v-4.32h143.31v4.32c0,9.34,7.2,14.42,12.96,18.49,6.27,4.4,9,6.77,9,10.87Z"/>
          <path class="cls-42" d="M911.45,468.56c0,22.41-20.34,42.75-42.75,42.75s-38.41-20.34-38.41-42.75,18.17-32.45,40.58-32.45,40.58,10.04,40.58,32.45Z"/>
          <path class="cls-118" d="M1015.96,469.26c0,21.47-28.35,39.28-49.83,39.28s-33.21-23.08-33.21-44.55,17.41-31.09,38.88-31.09,44.15,14.89,44.15,36.36Z"/>
          <path class="cls-116" d="M966.25,264.14c0,19.41-25.63,35.5-45.03,35.5s-30.02-20.86-30.02-40.27,15.73-28.1,35.14-28.1,39.91,13.46,39.91,32.87Z"/>
          <path class="cls-23" d="M853.17,266.43c18.35-6.32,41.91,12.67,48.23,31.02,6.32,18.35-9.95,35.17-28.3,41.49-18.35,6.32-31.69-5.73-38.01-24.08-6.32-18.35-.27-42.12,18.08-48.43Z"/>
          <path class="cls-116" d="M1014.41,247.49c0,19.41-11.16,35.5-30.57,35.5s-30.02-20.86-30.02-40.27,15.73-28.1,35.14-28.1,25.44,13.46,25.44,32.87Z"/>
          <path class="cls-42" d="M909.88,245.77c0,19.41-25.63,35.5-45.03,35.5s-30.02-20.86-30.02-40.27,15.73-28.1,35.14-28.1,39.91,13.46,39.91,32.87Z"/>
          <path class="cls-77" d="M982.73,220.78c0,18.75-24.76,34.3-43.51,34.3s-29-20.15-29-38.9,15.2-27.15,33.95-27.15,38.56,13,38.56,31.75Z"/>
          <path class="cls-42" d="M1008.64,339.91c-14.8,12.56-43.65,3.44-56.21-11.35-12.56-14.8-3.53-36.38,11.27-48.95,14.8-12.56,31.61-6.19,44.17,8.6,12.56,14.8,15.57,39.13,.77,51.69Z"/>
          <path class="cls-2" d="M944.15,335.81c-12.04,10.23-35.53,2.8-45.76-9.24-10.23-12.04-2.87-29.62,9.17-39.84,12.04-10.23,25.73-5.04,35.95,7,10.23,12.04,12.67,31.86,.63,42.08Z"/>
          <path class="cls-2" d="M858.19,212.71c.89-15.77,22.45-27.69,38.22-26.8,15.77,.89,23.44,18.33,22.56,34.1-.89,15.77-14.07,22.12-29.85,21.23-15.77-.89-31.82-12.76-30.93-28.54Z"/>
          <path class="cls-2" d="M944.15,506.48c-12.04,10.23-35.53,2.8-45.76-9.24-10.23-12.04-2.87-29.62,9.17-39.84,12.04-10.23,25.73-5.04,35.95,7,10.23,12.04,12.67,31.86,.63,42.08Z"/>
          <path class="cls-9" d="M1027.87,329.58v140.32c0,.96-.03,1.95-.08,2.94h-207.55c-.06-.99-.08-1.98-.08-2.94v-140.32h207.72Z"/>
          <g class="cls-74">
            <path class="cls-91" d="M869.13,221.37c-2.23,0-4.46-.88-6.12-2.62-3.23-3.38-3.11-8.74,.27-11.97,2.26-2.16,3.81-3.84,4.57-5.52,1.92-4.26,6.93-6.17,11.19-4.26,4.27,1.91,6.17,6.93,4.26,11.19-2.08,4.64-5.38,8.02-8.31,10.82-1.64,1.57-3.75,2.35-5.85,2.35Z"/>
          </g>
          <g class="cls-15">
            <path class="cls-73" d="M1025.92,231.27c-.88,13.61-5.48,22.81-5.48,39.66h-192.9c0-16.85-4.57-26.05-5.45-39.66h203.83Z"/>
          </g>
          <path class="cls-120" d="M1006.45,367.57v67.26c0,6.12-4.94,11.06-11.04,11.06h-142.8c-5.22,0-9.6-3.61-10.75-8.5-.2-.82-.31-1.69-.31-2.57v-67.26c0-6.1,4.97-11.06,11.06-11.06h142.8c4.74,0,8.78,2.99,10.3,7.2,.48,1.21,.73,2.51,.73,3.87Z"/>
          <rect class="cls-130" x="820.15" y="338.95" width="207.72" height="8.55"/>
          <rect class="cls-130" x="820.15" y="454.75" width="207.72" height="8.55"/>
          <path class="cls-129" d="M1006.45,367.57v67.26c0,6.12-4.94,11.06-11.04,11.06h-142.8c-5.22,0-9.6-3.61-10.75-8.5,42.62-20.58,105.09-49.76,163.86-73.7,.48,1.21,.73,2.51,.73,3.87Z"/>
          <g class="cls-15">
            <path class="cls-114" d="M1027.87,325.52v144.38c0,.96-.03,1.95-.08,2.94-.51,9-3.39,18.83-8.47,27.13-6.86,11.29-17.84,19.81-32.55,19.81h-46.4c14.71,0,25.69-8.52,32.55-19.81,5.08-8.3,7.96-18.12,8.47-27.13,.06-.99,.08-1.98,.08-2.94v-144.38c0-25.52-7.42-35.9-7.42-54.59,0-16.85,4.6-26.05,5.48-39.66,.11-1.47,.17-2.99,.17-4.57,0-16.23-21.96-18.38-21.96-29.36v-12.79h8.19c1.3,0,2.37-1.04,2.37-2.37v-24.05c0-1.33-1.07-2.4-2.37-2.4h-8.07l-.76-.4c-3.92-2.03-8.44-3.13-13.01-3.13h46.4c4.57,0,9.09,1.1,13.01,3.13l.76,.4h8.07c1.3,0,2.37,1.07,2.37,2.4v24.05c0,1.33-1.07,2.37-2.37,2.37h-8.19v12.79c0,10.98,21.96,13.13,21.96,29.36,0,1.58-.06,3.11-.17,4.57-.88,13.61-5.48,22.81-5.48,39.66,0,18.69,7.42,29.07,7.42,54.59Z"/>
          </g>
          <g class="cls-74">
            <path class="cls-91" d="M861.68,481.31c-4.68,0-8.47-3.79-8.47-8.47,0-12.21-.52-28.1-1.06-44.93-1.65-50.67-3.51-108.11,5.04-133.48,6.11-18.14,3.07-29.49-.89-40.45-1.59-4.4,.69-9.25,5.09-10.84,4.4-1.59,9.25,.69,10.84,5.09,4.6,12.76,8.85,28.32,1,51.61-7.57,22.48-5.68,80.72-4.16,127.52,.55,16.97,1.07,33,1.07,45.48,0,4.68-3.79,8.47-8.47,8.47Z"/>
          </g>
        </g>
        <g>
          <rect class="cls-29" x="502.83" y="36.85" width="175.4" height="62.38"/>
          <path class="cls-83" d="M592.23,32.33c-.31,1.52-.67,3.02-1.07,4.52-.36,1.52-.78,3.02-1.23,4.52-.34,1.16-.71,2.3-1.09,3.45-.49,1.52-1.01,3.02-1.57,4.52-.51,1.41-1.05,2.82-1.63,4.21-4.07,10.14-9.24,19.84-14.85,28.75-.94,1.5-1.88,2.97-2.84,4.41-1.01,1.54-2.03,3.04-3.06,4.52-.81,1.18-1.63,2.33-2.46,3.47-1.1,1.56-2.21,3.06-3.31,4.52-1.16,1.54-2.31,3.06-3.47,4.52h-52.84c-2.5,0-4.52-2.03-4.52-4.52s2.03-4.52,4.52-4.52V41.37c-2.5,0-4.52-2.03-4.52-4.52s2.03-4.52,4.52-4.52h89.4Z"/>
          <path class="cls-83" d="M649.75,56.74v22.6c0,4.07-3.31,7.38-7.4,7.38h-74.39c.96-1.45,1.9-2.91,2.84-4.41,5.61-8.91,10.78-18.61,14.85-28.75,.58-1.39,1.12-2.8,1.63-4.21h55.08c4.09,0,7.4,3.31,7.4,7.4Z"/>
          <path class="cls-29" d="M587.28,49.35c-.51,1.41-1.05,2.82-1.63,4.21-4.07,10.14-9.24,19.84-14.85,28.75-.94,1.5-1.88,2.97-2.84,4.41h-29.28c-4.09,0-7.38-3.31-7.38-7.38v-22.6c0-4.09,3.29-7.4,7.38-7.4h48.59Z"/>
          <path class="cls-21" d="M628.58,69.91c-1.32-.4-8.68-1.86-8.68-1.86,1.28,0,7.32-1.23,8.64-1.63,6.51-1.97,10.72-8.08,10.72-8.08,0,0-6.98-3.98-13.51-1.99-5.35,1.61-8.72,6.74-9.76,8.52-3.25-5.77-15.28-10.29-30.34-11.3-2.04-.13-4.16-.2-6.31-.2-20.74,0-37.54,6.58-37.54,14.66,0,6.96,12.37,12.78,29,14.29,2.73,.27,5.61,.4,8.54,.4,17.94,0,32.95-4.92,36.65-11.48,1.05,1.77,4.41,6.91,9.76,8.52,6.53,1.99,13.51-1.99,13.51-1.99,0,0-4.18-5.88-10.69-7.85Zm-77.16-.14c-1.57,0-2.86-1.28-2.86-2.88s1.28-2.88,2.86-2.88,2.89,1.3,2.89,2.88-1.3,2.88-2.89,2.88Z"/>
          <g class="cls-74">
            <path class="cls-54" d="M513.83,88.38c-1.5,0-2.71-1.21-2.71-2.71V51.54c0-1.5,1.21-2.71,2.71-2.71s2.71,1.21,2.71,2.71v34.13c0,1.5-1.21,2.71-2.71,2.71Z"/>
          </g>
          <path class="cls-57" d="M682.75,99.24c0,2.5-2.03,4.52-4.52,4.52h-175.4c-2.5,0-4.52-2.03-4.52-4.52s2.03-4.52,4.52-4.52h175.4c2.5,0,4.52,2.01,4.52,4.52Z"/>
          <path class="cls-57" d="M682.75,36.85c0,2.5-2.03,4.52-4.52,4.52h-175.4c-2.5,0-4.52-2.03-4.52-4.52s2.03-4.52,4.52-4.52h175.4c2.5,0,4.52,2.01,4.52,4.52Z"/>
          <g>
            <g class="cls-74">
              <path class="cls-54" d="M602.88,39.56h-13.41c-1.5,0-2.71-1.21-2.71-2.71s1.21-2.71,2.71-2.71h13.41c1.5,0,2.71,1.21,2.71,2.71s-1.21,2.71-2.71,2.71Z"/>
            </g>
            <g class="cls-74">
              <path class="cls-54" d="M576.21,39.56h-69.16c-1.5,0-2.71-1.21-2.71-2.71s1.21-2.71,2.71-2.71h69.16c1.5,0,2.71,1.21,2.71,2.71s-1.21,2.71-2.71,2.71Z"/>
            </g>
          </g>
          <g class="cls-15">
            <path class="cls-16" d="M682.75,99.24c0,2.5-2.03,4.52-4.52,4.52h-35.26c2.5,0,4.52-2.03,4.52-4.52s-1.99-4.47-4.43-4.52h-140.23v-3.47h140.14V44.83h-140.14v-3.45h140.14c2.5,0,4.52-2.03,4.52-4.52s-2.03-4.52-4.52-4.52h35.26c2.5,0,4.52,2.01,4.52,4.52s-2.03,4.52-4.52,4.52v53.34c2.5,0,4.52,2.01,4.52,4.52Z"/>
          </g>
        </g>
        <g>
          <path class="cls-103" d="M701.72,143.84V495.58c0,1.58-.16,3.11-.46,4.59-.91,4.69-3.22,8.9-6.49,12.15-.54,.54-1.1,1.05-1.69,1.53-.59,.48-1.18,.94-1.82,1.37-.62,.43-1.29,.83-1.96,1.21-.99,.56-2.04,1.02-3.14,1.42-.64,.24-1.29,.43-1.96,.62-1.31,.35-2.68,.59-4.1,.72-.7,.05-1.39,.08-2.12,.08h-171.54c-11.53,0-21.13-8.21-23.28-19.09-.29-1.5-.46-3.03-.46-4.61V143.84h219Z"/>
          <polygon class="cls-99" points="706.87 115.01 704.81 126.65 704.78 126.68 701.72 143.84 482.72 143.84 479.64 126.68 479.64 126.65 477.55 115.01 706.87 115.01"/>
          <rect class="cls-99" x="482.72" y="197.61" width="219" height="257.4"/>
          <g>
            <path class="cls-64" d="M542.63,273.8c-22.23-7.59-44.06-8.31-59.91-3.3v23.87c1.42-1.85,3.62-3.33,6.38-4.42,10.08-4,27.97-2.98,46.85,3.46,19.49,6.62,34.62,17.24,39.66,26.84,1.82,3.41,2.36,6.65,1.37,9.57-3.78,11.07-28.29,12.74-54.73,3.73-19.31-6.6-34.32-17.05-39.53-26.55v32.07c8.72,7.08,19.49,13.14,31.72,17.32,38.21,13.03,76.34,2.6,83.83-19.31,.64-1.93,1.05-3.89,1.21-5.87,1.82-20.86-21.99-45.51-56.85-57.41Z"/>
            <path class="cls-78" d="M546.46,262.57c-24.08-8.23-47.7-8.42-63.74-1.96v61.03c9.63,8.15,22.2,15.31,36.68,20.25,34.86,11.91,68.73,6.95,80.07-10.67,1.1-1.66,1.98-3.49,2.63-5.39,7.48-21.91-17.43-50.23-55.64-63.26Zm30.73,54.76c-.38,1.1-.89,2.06-1.58,2.92-6.09,7.86-24.27,6.09-48.13-2.06-24.46-8.37-39.28-18.07-38.37-28.24,.08-.83,.27-1.66,.54-2.49,3.78-11.1,22.55-10.94,48.99-1.93,26.44,9.04,42.34,20.73,38.56,31.8Z"/>
          </g>
          <path class="cls-78" d="M593.21,362.74c-28.97,28.11-39.39,64.36-23.27,80.98,16.12,16.61,52.67,7.29,81.64-20.82,28.97-28.11,39.39-64.36,23.27-80.98-16.12-16.61-52.67-7.29-81.64,20.82Zm37.02,38.27c-20.06,19.46-26.13,20.85-34.29,17.3-10.74-4.68-5.88-18.68,14.18-38.14,20.06-19.46,34.42-24.26,39.76-13.83,3.19,6.23,.4,15.22-19.65,34.68Z"/>
          <path class="cls-78" d="M483.04,373.09h-.32v24.27h.13c27.94,.21,41.54,6.89,38.02,18.05-2.09,6.68-10.35,11.1-38.16,10.94v28.67h22.39c29.31-5.26,50.55-20.89,50.71-39.47,.16-23.14-32.42-42.15-72.78-42.45Z"/>
          <path class="cls-78" d="M688.24,413.52c-15.85,1.47-28.18,18.15-33.12,41.48h24.86c2.49-5.47,6.41-7.78,11.61-6.7,3,.64,5.71,2.47,8.02,6.7h2.12v-39.02c-4.34-1.98-8.9-2.9-13.49-2.47Z"/>
          <path class="cls-78" d="M701.67,241.43c-1.02-1.58-2.15-3.16-3.3-4.75-14.94-20.3-33.98-33.87-50.73-37.86-10.08-2.39-19.33-1.31-26.33,3.83-9.3,6.84-12.9,19.58-11.18,34.67,1.69,15.18,8.74,32.71,20.76,49.02,5.18,7.05,10.86,13.27,16.76,18.58,18.56,16.65,39.36,24.13,54.09,18.77v-82.19s-.03-.05-.05-.08Zm-14.53,50.9c-6.6,2.33-15.12-1.66-31.7-24.16-1.93-2.63-3.62-5.01-5.12-7.21-.99-1.42-1.88-2.79-2.68-4.05-8.77-13.68-8.42-18.9-4.67-25.07,1.26-2.06,2.82-3.41,4.67-4.02,6.95-2.49,17.78,5.2,30.68,22.55,.16,.21,.32,.46,.51,.7,16.57,22.52,19.36,37.41,8.31,41.27Z"/>
          <path class="cls-78" d="M576.68,197.61c-4.8,3.86-13.25,7.91-27.38,12.5-3.11,1.02-5.9,1.85-8.47,2.57-1.66,.51-3.24,.91-4.69,1.26-15.74,4-20.59,2.01-25.26-3.49-1.56-1.85-2.33-3.75-2.33-5.71-.05-2.36,.99-4.75,3.14-7.13h-28.96v34.4c5.36,5.44,13.35,9.31,22.98,11.34,14.94,3.19,33.81,2.04,53.07-4.18,8.34-2.68,16.04-6.11,22.93-10.03,15.42-8.77,26.79-20.08,31.94-31.54h-36.95Z"/>
          <g class="cls-15">
            <path class="cls-16" d="M701.27,500.16c-.91,4.69-3.22,8.9-6.49,12.15-4.26,4.32-10.22,6.97-16.79,6.97h-35.1s0-.03,.03-.03h-136.46c-11.53,0-21.13-8.21-23.28-19.09h218.09Z"/>
          </g>
          <path class="cls-76" d="M713.79,115.04c0,.35-.03,.7-.05,1.05-.03,.35-.05,.67-.13,1.02-.05,.32-.11,.64-.21,.97-.05,.24-.11,.46-.19,.67-.35,1.05-.83,2.01-1.39,2.92-.03,.03-.05,.05-.08,.11-.21,.32-.46,.62-.7,.91-.27,.32-.56,.64-.88,.94-.19,.19-.35,.38-.56,.54-.13,.11-.27,.21-.4,.32-1.26,1.02-2.76,1.77-4.37,2.2h-.03c-.99,.27-2.01,.4-3.06,.4h-219c-1.07,0-2.09-.13-3.08-.4-.03,0-.05,0-.08-.03-5.15-1.37-8.9-6.06-8.9-11.64,0-6.65,5.39-12.07,12.07-12.07h219c3.33,0,6.36,1.37,8.53,3.57,2.17,2.17,3.54,5.18,3.54,8.53Z"/>
          <g>
            <g class="cls-74">
              <path class="cls-54" d="M626.27,120.27h-18.77c-2.96,0-5.36-2.4-5.36-5.36s2.4-5.36,5.36-5.36h18.77c2.96,0,5.36,2.4,5.36,5.36s-2.4,5.36-5.36,5.36Z"/>
            </g>
            <g class="cls-74">
              <path class="cls-54" d="M584.7,120.27h-92.74c-2.96,0-5.36-2.4-5.36-5.36s2.4-5.36,5.36-5.36h92.74c2.96,0,5.36,2.4,5.36,5.36s-2.4,5.36-5.36,5.36Z"/>
            </g>
          </g>
          <g>
            <path class="cls-94" d="M670.03,207.65v-17.32c0-26.92-155.64-26.92-155.64,0v17.32h-19.09v107.06h193.82v-107.06h-19.09Z"/>
            <path class="cls-112" d="M592.21,181.05c39.54,0,62.26,6.68,66.92,10.69v26.83h19.09v85.25h-172.02v-85.25h19.09v-26.83c4.65-4.01,27.37-10.69,66.92-10.69h0Zm0-5.45c-37.12,0-63.55,6.04-70.48,12.01-1.2,1.04-1.89,2.54-1.89,4.13v21.38h-13.64c-3.01,0-5.45,2.44-5.45,5.45v85.25c0,3.01,2.44,5.45,5.45,5.45h172.02c3.01,0,5.45-2.44,5.45-5.45v-85.25c0-3.01-2.44-5.45-5.45-5.45h-13.64v-21.38c0-1.59-.69-3.09-1.89-4.13-6.92-5.97-33.35-12.01-70.47-12.01h0Z"/>
          </g>
          <g class="cls-15">
            <path class="cls-16" d="M713.79,115.04c0,.35-.03,.7-.05,1.05-.03,.35-.05,.67-.13,1.02-.05,.32-.11,.64-.21,.97-.05,.24-.11,.46-.19,.67-.32,1.05-.8,2.01-1.39,2.92-.03,.03-.05,.05-.08,.11-.21,.32-.46,.62-.7,.91-.27,.32-.56,.64-.88,.94-.19,.19-.35,.38-.56,.54-.13,.11-.27,.21-.4,.32-1.29,.99-2.76,1.74-4.37,2.17v.03l-3.08,17.16V495.58c0,1.58-.16,3.11-.46,4.59-.91,4.69-3.22,8.9-6.49,12.15-.54,.54-1.1,1.05-1.69,1.53-.59,.48-1.18,.94-1.82,1.37-.62,.43-1.29,.83-1.96,1.21-.99,.56-2.04,1.02-3.14,1.42-.64,.24-1.29,.43-1.96,.62-1.31,.38-2.68,.62-4.1,.72-.7,.08-1.39,.11-2.12,.11h-35.1s0-.03,.03-.03c2.95-3.97,4.72-8.85,4.72-14.19V161.79c0-7.38-5.98-13.37-13.37-13.37h-151.55v-4.59l-3.08-17.16s-.05,0-.08-.03h171.16c5.18-1.37,8.98-6.01,8.98-11.61v-.03c-.03-6.68-5.39-12.04-12.07-12.04h54.09c3.33,0,6.36,1.34,8.53,3.54,2.17,2.17,3.54,5.18,3.54,8.53Z"/>
          </g>
          <g class="cls-74">
            <path class="cls-91" d="M514.9,484.51c-4.44,0-8.04-3.6-8.04-8.04V160.93c0-4.44,3.6-8.04,8.04-8.04s8.04,3.6,8.04,8.04V476.46c0,4.44-3.6,8.04-8.04,8.04Z"/>
          </g>
        </g>
        <g>
          <rect class="cls-108" x="1154.79" y="140.14" width="144.03" height="58.79"/>
          <path class="cls-1" d="M1298.83,143.79h-144.03c-2.02,0-3.65-1.63-3.65-3.65s1.64-3.65,3.65-3.65h144.03c2.02,0,3.65,1.63,3.65,3.65s-1.63,3.65-3.65,3.65Z"/>
          <g class="cls-74">
            <path class="cls-54" d="M1253.78,141.97h-7.41c-1.01,0-1.83-.82-1.83-1.83s.82-1.83,1.83-1.83h7.41c1.01,0,1.83,.82,1.83,1.83s-.82,1.83-1.83,1.83Z"/>
          </g>
          <path class="cls-88" d="M1255.61,175.8c0-6.72-12.9-12.17-28.81-12.17s-28.81,5.45-28.81,12.17h-43.21v23.14h144.03v-23.14h-43.21Z"/>
          <g class="cls-74">
            <path class="cls-54" d="M1236.79,141.97h-73.88c-1.01,0-1.83-.82-1.83-1.83s.82-1.83,1.83-1.83h73.88c1.01,0,1.83,.82,1.83,1.83s-.82,1.83-1.83,1.83Z"/>
          </g>
          <path class="cls-1" d="M1298.83,202.58h-144.03c-2.02,0-3.65-1.63-3.65-3.65s1.64-3.65,3.65-3.65h144.03c2.02,0,3.65,1.63,3.65,3.65s-1.63,3.65-3.65,3.65Z"/>
          <rect class="cls-108" x="1154.79" y="189.28" width="144.03" height="3.27"/>
          <path class="cls-13" d="M1298.82,195.27v-51.48c1.01,0,1.92-.4,2.58-1.07,.73-.72,1.15-1.75,1.06-2.87-.15-1.93-1.87-3.36-3.81-3.36h-23.98c2.02,0,3.65,1.64,3.65,3.65,0,1.01-.41,1.92-1.07,2.58-.66,.67-1.57,1.07-2.58,1.07h0s-119.88,0-119.88,0v5.68h114.52c2.96,0,5.37,2.4,5.37,5.37v40.43c2.02,0,3.65,1.64,3.65,3.65s-1.63,3.65-3.65,3.65h24c1.76,0,3.38-1.18,3.73-2.91,.46-2.33-1.31-4.39-3.58-4.39Z"/>
          <g class="cls-74">
            <path class="cls-91" d="M1165.2,190.91c-2.02,0-3.65-1.63-3.65-3.65v-34.14c0-2.02,1.64-3.65,3.65-3.65s3.65,1.63,3.65,3.65v34.14c0,2.02-1.63,3.65-3.65,3.65Z"/>
          </g>
          <path class="cls-88" d="M1261.77,164.28c-.49,0-.99-.19-1.37-.56-5.52-5.43-19.02-9.08-33.59-9.08s-28.07,3.65-33.59,9.08c-.77,.76-2,.75-2.76-.02-.76-.77-.75-2.01,.02-2.76,6.3-6.2,20.56-10.2,36.33-10.2s30.03,4,36.33,10.2c.77,.76,.78,1.99,.02,2.76-.38,.39-.89,.58-1.39,.58Z"/>
        </g>
        <g>
          <g>
            <path class="cls-43" d="M442.07,203.21h-147.17l6.36-3.32c3.33-1.74,7.14-2.66,11.01-2.66h112.42c3.87,0,7.68,.92,11.01,2.66l6.36,3.32Z"/>
            <path class="cls-65" d="M445.17,202.24v20.34c0,1.12-.91,2.03-2,2.03h-149.35c-1.12,0-2.03-.91-2.03-2.03v-20.34c0-1.12,.91-2.03,2.03-2.03h149.35c1.1,0,2,.91,2,2.03Z"/>
            <g class="cls-74">
              <path class="cls-91" d="M388.21,216.54h-86.76c-2.29,0-4.14-1.85-4.14-4.14s1.85-4.14,4.14-4.14h86.76c2.29,0,4.14,1.85,4.14,4.14s-1.85,4.14-4.14,4.14Z"/>
            </g>
          </g>
          <path class="cls-90" d="M453.17,382.64v105.24c0,.67-.02,1.34-.07,1.98-.02,.57-.07,1.12-.14,1.65-.05,.45-.12,.91-.19,1.34-.07,.41-.14,.79-.24,1.17-.07,.5-.19,.98-.33,1.46-.14,.57-.31,1.1-.5,1.65-.17,.45-.33,.91-.53,1.34-.1,.29-.21,.55-.33,.81-.14,.36-.31,.69-.5,1.03-.12,.26-.26,.53-.41,.76-.19,.41-.43,.79-.69,1.17-.21,.38-.45,.76-.74,1.12-.19,.29-.38,.57-.62,.86-2.46,3.25-5.8,6.09-10.05,8.47-.6,.36-1.22,.69-1.86,1-.64,.33-1.29,.64-1.98,.95-.67,.31-1.36,.6-2.08,.88-.67,.29-1.36,.55-2.08,.79-.95,.36-1.96,.69-3.01,1.03-.55,.17-1.12,.33-1.69,.5-.1,.02-.21,.05-.31,.07-.72,.21-1.46,.41-2.2,.57-.14,.05-.29,.07-.43,.12-.76,.19-1.55,.36-2.34,.52-.91,.19-1.81,.38-2.74,.55-.93,.19-1.89,.33-2.84,.5-1.96,.31-3.96,.57-6.04,.79-2.08,.24-4.25,.41-6.47,.55-1.12,.07-2.27,.14-3.41,.19-2.77,.12-5.66,.19-8.64,.19h-42.44c-42.75,0-63.47-12.63-63.47-34.01v-105.24c0-17.57,0-28.67,.45-36.62,.1-1.72,.21-3.29,.36-4.77,.29-2.7,.64-5.01,1.12-7.16,1.34-6.04,3.6-10.72,7.47-18.81,.76-1.62,1.46-3.37,2.08-5.25,3.7-10.96,5.18-25.9,5.35-38.6,.17-11.79-.81-21.63-2.24-24.49-1.41-2.82-2.03-7.35-2.27-11.6-.31-5.61,0-10.74,0-10.74h144.77s.95,15.85-2.27,22.34c-1.53,3.06-2.55,14.06-2.22,26.9,.05,1.62,.12,3.27,.19,4.94,.17,3.37,.43,6.78,.81,10.17,.29,2.51,.62,4.97,1.03,7.4,.12,.81,.26,1.62,.43,2.43,.31,1.6,.62,3.17,1,4.7,.17,.76,.36,1.53,.57,2.27,.38,1.48,.84,2.91,1.29,4.27,.14,.45,.31,.91,.48,1.36,.48,1.38,1.03,2.67,1.6,3.89,.48,1.03,.93,1.98,1.36,2.89,1.17,2.43,2.15,4.54,2.98,6.52,.19,.45,.38,.91,.55,1.34,.41,.98,.76,1.93,1.1,2.86,.12,.36,.24,.69,.33,1.03,.17,.48,.29,.93,.43,1.41,.12,.38,.21,.76,.31,1.15,.14,.53,.29,1.07,.41,1.62,.48,2.15,.84,4.46,1.1,7.16,0,.12,.02,.24,.02,.33,.07,.57,.12,1.17,.17,1.81v.07c.02,.36,.05,.74,.07,1.12,.05,.45,.07,.93,.1,1.43,.02,.31,.05,.64,.05,.95,.1,1.89,.17,3.96,.24,6.25,0,.41,0,.84,.02,1.29,.14,7.02,.14,16.04,.14,28.12Z"/>
          <path class="cls-17" d="M347.27,514.73c-25.69,0-56.32-4.66-56.32-26.84v-105.25q0-46,8.33-63.52l.37-.77c9.86-20.74,9.76-65.34,5.12-74.61-1.04-2.07-1.53-7.12-1.63-11.98h130.7c-.1,5.06-.64,9.97-1.64,11.98-4.64,9.27-4.74,53.87,5.12,74.61l.37,.77q8.33,17.51,8.33,63.52v105.25c0,22.19-30.62,26.84-56.32,26.84h-42.43Z"/>
          <path class="cls-69" d="M415.51,232.06c-4.77,2.37-13.43,22.36-10.14,42.06,3.28,19.69-4.77,54.3,2.09,61.17,6.86,6.86,26.85,6.77,25.06-14.81-1.79-21.59-5.07-34.12-5.07-46.05s-2.98-30.43-2.98-36.1-6.81-7.31-8.95-6.25Z"/>
          <path class="cls-44" d="M423.66,358.79c-16-2.29-23.78,33.43-25.12,53.36-1.34,19.93-6.09,82.08,2.67,90,8.24,7.45,24.5,9.21,35.99,.6,11.49-8.61,8.58-83.72,3.56-104.3-5.03-20.57-3.7-37.74-17.1-39.66Z"/>
          <path class="cls-44" d="M355.72,364.12c-16-2.29-23.78,33.43-25.12,53.36-1.34,19.93-6.09,82.08,2.67,90,8.24,7.45,24.5,9.21,35.99,.6,11.49-8.61,8.58-83.72,3.56-104.3-5.03-20.57-3.7-37.74-17.1-39.66Z"/>
          <path class="cls-12" d="M343.46,317.67c13.88-.95,18.28,30.2,18.16,47.4-.12,17.2,0,70.84-8.02,77.08-7.54,5.87-21.62,6.34-30.93-1.77-9.31-8.12-2.04-72.41,3.58-89.75,5.62-17.34,5.58-32.16,17.2-32.96Z"/>
          <path class="cls-12" d="M320.68,285.55c13.88-.95,18.28,30.2,18.16,47.4-.12,17.2,0,70.84-8.02,77.08-7.54,5.87-21.62,6.34-30.93-1.77-9.31-8.12-2.04-72.41,3.58-89.75,5.62-17.34,5.58-32.16,17.2-32.96Z"/>
          <path class="cls-12" d="M427.01,320.14c13.88-.95,18.28,30.2,18.16,47.4-.12,17.2,0,70.84-8.02,77.08-7.54,5.87-21.62,6.34-30.93-1.77-9.31-8.12-2.04-72.41,3.58-89.75,5.62-17.34,5.58-32.16,17.2-32.96Z"/>
          <path class="cls-82" d="M380.03,363.22c-16-2.29-10.22,36.7-11.56,56.63-1.34,19.93-11.46,69.24-2.7,84.63,5.49,9.65,19.36,14.35,30.84,5.75,11.49-8.61,8.58-83.72,3.56-104.3-5.03-20.57-6.75-40.79-20.14-42.71Z"/>
          <path class="cls-82" d="M356.63,227.55c-16-2.29-10.22,36.7-11.56,56.63-1.34,19.93-11.46,69.24-2.7,84.63,5.49,9.65,19.36,14.35,30.84,5.75,11.49-8.61,8.58-83.72,3.56-104.3-5.03-20.57-6.75-40.79-20.14-42.71Z"/>
          <path class="cls-69" d="M391.26,278.9c-12.83,0-20.26,25.66-16.69,42.97,3.57,17.31-2.1,54,2.67,64.45,4.77,10.44,8.69,19.39,22.25,16.71,13.56-2.68,15.64-18.06,13.85-29.76-1.79-11.71-8.73-38.56-8.73-53.48s-5.89-40.87-13.35-40.87Z"/>
          <path class="cls-69" d="M312.43,382.09c-12.83,0-18.11,25.32-18.93,42.96-.89,19.34,.13,54.01,4.91,64.45,4.77,10.44,8.69,19.39,22.25,16.71,13.56-2.68,15.65-18.06,13.85-29.76-1.79-11.71-8.73-38.56-8.73-53.48s.34-40.88-13.35-40.88Z"/>
          <path class="cls-69" d="M331.08,234.86c-12.24,0-17.29,24.16-18.07,41.01-.85,18.45,.13,51.54,4.68,61.51,4.56,9.97,8.29,18.51,21.23,15.94,12.94-2.56,14.93-17.23,13.22-28.41-1.71-11.17-8.33-36.81-8.33-51.04s.33-39.01-12.74-39.01Z"/>
          <path class="cls-69" d="M386.82,234.86c-12.24,0-17.29,24.16-18.07,41.01-.85,18.45,.13,51.54,4.68,61.51,4.56,9.97,8.29,18.51,21.23,15.94,12.94-2.56,14.93-17.23,13.22-28.41-1.71-11.17-8.33-36.81-8.33-51.04s.33-39.01-12.74-39.01Z"/>
          <g class="cls-15">
            <path class="cls-16" d="M441.71,310.03h-146.44c3.7-10.96,5.18-25.9,5.35-38.6h135.72c.17,12.7,1.65,27.64,5.37,38.6Z"/>
          </g>
          <path class="cls-25" d="M453.17,382.64v54.45h-47.4c-8.57,20.41-22.08,33.61-37.28,33.61s-28.71-13.2-37.28-33.61h-47.4v-54.45c0-17.57,0-28.67,.45-36.62,.1-1.72,.21-3.29,.36-4.77,.29-2.7,.64-5.01,1.12-7.16h45.47c8.57-20.41,22.08-33.61,37.28-33.61s28.72,13.2,37.28,33.61h45.49c.48,2.15,.84,4.46,1.1,7.16,0,.12,.02,.24,.02,.33,.07,.57,.12,1.17,.17,1.81v.07c.02,.36,.05,.74,.07,1.12,.05,.45,.07,.93,.1,1.43,.02,.31,.05,.64,.05,.95,.1,1.89,.17,3.96,.24,6.25,0,.41,0,.84,.02,1.29,.14,7.02,.14,16.04,.14,28.12Z"/>
          <path class="cls-62" d="M397.81,425.16l-3.06,7.33c-6.9,16.45-16.73,26.28-26.28,26.28s-19.38-9.83-26.28-26.28l-3.05-7.33h-55.35v4.77h52.18l1.84,4.39c7.78,18.57,18.95,29.22,30.67,29.22s22.89-10.65,30.67-29.22l1.84-4.39h52.18v-4.77h-55.35Zm-58.67-79.13l3.05-7.33c6.9-16.45,16.73-26.28,26.28-26.28s19.38,9.83,26.28,26.28l3.06,7.33h54.9c-.02-.5-.05-.98-.1-1.43-.02-.38-.05-.76-.07-1.12v-.07c-.05-.64-.1-1.24-.17-1.81,0-.1-.02-.21-.02-.33h-51.37l-1.84-4.39c-7.78-18.57-18.95-29.22-30.67-29.22s-22.89,10.65-30.67,29.22l-1.84,4.39h-51.37c-.14,1.48-.26,3.06-.36,4.77h54.9Z"/>
          <g>
            <path class="cls-44" d="M375.5,444.39c-2.15,1.15-4.49,1.86-7.02,2.12-1.72,.19-3.34,.02-4.82-.43-14.94-4.68-18.05-40.27-18.05-70.82s9.57-50.27,18.47-53.8c.95-.38,1.89-.57,2.82-.57,1.03,0,2.08,.17,3.15,.57,7.97,2.84,16.49,17.14,20.6,53.8,4.08,36.5-1.24,61.75-15.16,69.13Z"/>
            <path class="cls-34" d="M375.5,444.39c9.88-15.63,9.98-107.51-5.44-122.93,7.97,2.84,16.49,17.14,20.6,53.8,4.08,36.5-1.24,61.75-15.16,69.13Z"/>
          </g>
          <g class="cls-15">
            <path class="cls-16" d="M453.17,382.64v105.24c0,.67-.02,1.34-.07,1.98-.02,.57-.07,1.12-.14,1.65-.05,.45-.12,.91-.19,1.34-.07,.41-.14,.79-.24,1.17-.07,.5-.19,.98-.33,1.46-.14,.57-.31,1.1-.5,1.65-.17,.45-.33,.91-.53,1.34-.1,.29-.21,.55-.33,.81-.14,.36-.31,.69-.5,1.03-.12,.26-.26,.53-.41,.76-.19,.41-.43,.79-.69,1.17-.21,.38-.45,.76-.74,1.12-.19,.29-.38,.57-.62,.86-2.46,3.25-5.8,6.09-10.05,8.47-.6,.36-1.22,.69-1.86,1-.64,.33-1.29,.64-1.98,.95-.67,.31-1.36,.6-2.08,.88-.67,.29-1.36,.55-2.08,.79-.95,.36-1.96,.69-3.01,1.03-.55,.17-1.12,.33-1.69,.5-.1,.02-.21,.05-.31,.07-.72,.21-1.46,.41-2.2,.57-.14,.05-.29,.07-.43,.12-.76,.19-1.55,.36-2.34,.52-.91,.19-1.81,.38-2.74,.55-.93,.19-1.89,.33-2.84,.5-1.96,.31-3.96,.57-6.04,.79-2.08,.24-4.25,.41-6.47,.55-1.12,.07-2.27,.14-3.41,.19,2.91-2.39,5.47-4.99,7.64-7.69,6.61-8.26,9.88-17.64,9.88-26.14v-105.24c0-17.57,0-28.67-.45-36.62-.1-1.74-.21-3.32-.36-4.77-.29-2.7-.64-5.01-1.1-7.16-1.34-6.04-3.63-10.72-7.49-18.81-9.38-19.76-8.43-61.87-5.18-68.34,.41-.79,.72-1.72,1-2.75,1.22-4.46-2.24-8.86-6.87-8.86h-99.3c-.31-5.61,0-10.74,0-10.74h109.7c1.12,0,2.03-.91,2.03-2.03v-20.36c0-1.1-.91-2.01-2-2.01h-6.8l-.64-.33c-3.34-1.72-7.14-2.65-11-2.65h37.31c3.87,0,7.69,.93,11,2.65l.64,.33h6.83c1.1,0,2,.91,2,2.03v20.34c0,1.12-.91,2.03-2,2.03h-2.29s.95,15.85-2.27,22.34c-1.53,3.06-2.55,14.06-2.22,26.9,.02,1.62,.1,3.27,.19,4.94,.17,3.37,.43,6.78,.81,10.17,.29,2.51,.62,4.97,1.03,7.4,.12,.81,.26,1.62,.43,2.43,.31,1.6,.62,3.17,1,4.7,.17,.76,.36,1.53,.57,2.27,.38,1.48,.81,2.91,1.29,4.27,.12,.45,.29,.91,.48,1.36,.48,1.38,1.03,2.67,1.6,3.89,.48,1.03,.93,1.98,1.36,2.89,1.17,2.43,2.15,4.54,2.98,6.52,.19,.45,.38,.91,.55,1.34,.41,.98,.76,1.93,1.1,2.86,.12,.36,.24,.69,.33,1.03,.17,.48,.29,.93,.43,1.41,.12,.38,.21,.76,.31,1.15,.14,.53,.29,1.07,.41,1.62,.48,2.15,.84,4.46,1.1,7.16,0,.12,.02,.24,.02,.33,.07,.57,.12,1.17,.17,1.81v.07c.02,.36,.05,.74,.07,1.12,.05,.45,.07,.93,.1,1.43,.02,.31,.05,.64,.05,.95,.1,1.89,.17,3.96,.24,6.25,0,.43,0,.86,.02,1.29,.14,7.02,.14,16.04,.14,28.12Z"/>
          </g>
          <g class="cls-74">
            <g class="cls-15">
              <path class="cls-16" d="M309.21,493.12c-3.3,0-5.97-2.67-5.97-5.97v-105.32c0-4.15-.08-8.09-.16-11.87-.37-18.35-.69-34.19,8.94-51.86,3.88-7.1,6.43-17.21,7.38-29.23,.26-3.29,3.13-5.74,6.42-5.48,3.29,.26,5.74,3.14,5.48,6.42-1.08,13.67-4.13,25.43-8.8,34-8.12,14.88-7.85,27.89-7.49,45.9,.08,3.85,.16,7.87,.16,12.11v105.32c0,3.3-2.67,5.97-5.97,5.97Z"/>
            </g>
            <g class="cls-15">
              <path class="cls-16" d="M324.67,266.37c-2.97,0-5.54-2.21-5.91-5.23-.69-5.53-1.67-10.61-2.91-15.1-.88-3.17,.98-6.46,4.15-7.35,3.18-.88,6.47,.98,7.35,4.15,1.41,5.06,2.5,10.72,3.26,16.83,.41,3.27-1.92,6.25-5.19,6.66-.25,.03-.5,.05-.74,.05Z"/>
            </g>
          </g>
        </g>
        <g>
          <path class="cls-124" d="M899.07,255.63v230.64c0,5.21-1.22,10.13-3.41,14.5-5.34,10.67-16.35,17.98-29.06,17.98h-165.67c-12.74,0-23.75-7.31-29.09-17.98-2.19-4.36-3.41-9.28-3.41-14.5V255.63h230.64Z"/>
          <path class="cls-79" d="M899.07,255.63v230.64c0,5.21-1.22,10.13-3.41,14.5-5.34,10.67-16.35,17.98-29.06,17.98h-165.67c-12.74,0-23.75-7.31-29.09-17.98-2.19-4.36-3.41-9.28-3.41-14.5V255.63h230.64Z"/>
          <polygon class="cls-40" points="903.77 229.44 663.75 229.44 668.44 255.63 899.07 255.63 903.77 229.44"/>
          <path class="cls-68" d="M899.07,380v62.51c-23.36,17.96-66.27,29.97-115.31,29.97s-91.97-12.01-115.33-29.97v-62.51c23.36-17.96,66.27-29.97,115.33-29.97s91.94,12.01,115.31,29.97Z"/>
          <path class="cls-7" d="M899.07,386.61v49.28c-23.36,14.15-66.27,23.62-115.31,23.62s-91.97-9.47-115.33-23.62v-49.28c23.36-14.16,66.27-23.62,115.33-23.62s91.94,9.47,115.31,23.62Z"/>
          <g>
            <g>
              <path class="cls-121" d="M726.16,406.96c-24.08,14.67-32.31,12.33-33.8,9.89-1.49-2.44,.21-10.82,24.29-25.49,24.08-14.67,61.53-29.91,62.92-27.63,1.39,2.28-29.34,28.57-53.42,43.24Z"/>
              <path class="cls-121" d="M846.21,377.54c26.67,9.17,30.12,17,29.19,19.7-.93,2.7-8.46,2.49-35.13-6.68-26.67-9.17-62.31-24.01-61.44-26.53,.87-2.53,40.72,4.34,67.38,13.51Z"/>
              <path class="cls-121" d="M773.89,421.76c-.08,0-.16,0-.24-.02-.66-.13-1.09-.77-.96-1.43,.64-3.21,.64-9.09,.63-15.89-.02-13.9-.03-31.2,5.26-40.07,.21-.36,.59-.58,1.01-.59,.38,.03,.81,.19,1.04,.54,2.39,3.53,7.12,8.58,12.12,13.93,9.27,9.91,19.78,21.13,21.31,28.69,.13,.66-.29,1.3-.95,1.44-.65,.13-1.3-.29-1.44-.95-1.39-6.88-11.65-17.84-20.7-27.51-4.36-4.66-8.52-9.1-11.19-12.6-4.06,8.75-4.05,24.41-4.03,37.14,0,6.93,.01,12.92-.68,16.37-.12,.58-.62,.98-1.19,.98Z"/>
            </g>
            <path class="cls-72" d="M792.61,428.86c0,12.45-7.63,22.54-17.05,22.54-8.43,0-15.45-8.09-16.79-18.74-.02-.02-.02-.05-.02-.07-.17-1.22-.24-2.46-.24-3.73,0-11.99,7.09-21.8,16.03-22.49,.34-.02,.68-.05,1.02-.05,1.12,0,2.22,.15,3.26,.41t.05,.02c7.84,2.02,13.74,11.16,13.74,22.1Z"/>
            <path class="cls-72" d="M820.94,433.18c-8.45,3.26-18.69-2.8-23.44-13.57-.2-.44-.39-.88-.56-1.34-4.21-10.96-1.32-22.41,6.41-26.51,.46-.24,.95-.46,1.44-.66,3.97-1.53,8.33-1,12.33,1.1,.76,.39,1.51,.85,2.24,1.36,.22,.15,.44,.32,.63,.49,3.68,2.75,6.85,6.89,8.79,11.96,4.46,11.62,.95,23.78-7.84,27.16Z"/>
            <g class="cls-15">
              <path class="cls-113" d="M792.61,428.86c0,12.45-7.63,22.54-17.05,22.54-8.43,0-15.45-8.09-16.79-18.74,.68,3.44,3.15,11.95,12.42,10.96,12.08-1.28,16.25-33.74,7.67-36.86,7.84,2.02,13.74,11.16,13.74,22.1Z"/>
            </g>
            <g class="cls-15">
              <path class="cls-113" d="M820.94,433.18c-8.45,3.26-18.69-2.8-23.44-13.57,2.02,2.92,5.07,5.46,9.62,6.58,12.94,3.12,25.34-21.97,12.86-32.13,3.68,2.75,6.85,6.89,8.79,11.96,4.46,11.62,.95,23.78-7.84,27.16Z"/>
            </g>
          </g>
          <g class="cls-74">
            <path class="cls-91" d="M700.52,313.54c-4.04,0-7.31-3.27-7.31-7.31v-22.94c0-4.04,3.27-7.31,7.31-7.31s7.31,3.27,7.31,7.31v22.94c0,4.04-3.27,7.31-7.31,7.31Z"/>
          </g>
          <g class="cls-15">
            <path class="cls-53" d="M895.66,500.76c-5.34,10.67-16.35,17.98-29.06,17.98h-165.66c-12.74,0-23.75-7.31-29.09-17.98h223.82Z"/>
          </g>
          <g class="cls-74">
            <path class="cls-91" d="M700.52,490.74c-4.04,0-7.31-3.27-7.31-7.31v-153.48c0-4.04,3.27-7.31,7.31-7.31s7.31,3.27,7.31,7.31v153.48c0,4.04-3.27,7.31-7.31,7.31Z"/>
          </g>
          <polygon class="cls-40" points="827.64 333.9 783.76 302.62 739.86 333.9 739.86 240.4 827.64 240.4 827.64 333.9"/>
          <path class="cls-71" d="M899.07,240.4h-230.63c-6.05,0-10.96-4.91-10.96-10.96s4.91-10.96,10.96-10.96h230.63c6.06,0,10.96,4.91,10.96,10.96s-4.91,10.96-10.96,10.96Z"/>
          <g class="cls-74">
            <path class="cls-54" d="M797.56,234.31h-17.05c-2.69,0-4.87-2.18-4.87-4.87s2.18-4.87,4.87-4.87h17.05c2.69,0,4.87,2.18,4.87,4.87s-2.18,4.87-4.87,4.87Z"/>
          </g>
          <g class="cls-74">
            <path class="cls-54" d="M762.24,234.31h-83.64c-2.69,0-4.87-2.18-4.87-4.87s2.18-4.87,4.87-4.87h83.64c2.69,0,4.87,2.18,4.87,4.87s-2.18,4.87-4.87,4.87Z"/>
          </g>
          <g class="cls-15">
            <path class="cls-16" d="M898.64,218.47h-44.98c6.07,0,10.96,4.9,10.96,10.96,0,5.09-3.48,9.31-8.16,10.55l-2.8,15.64h-185.23v16.15h171.04c7.84,0,14.19,6.35,14.19,14.19v200.29c0,17.93-14.54,32.47-32.47,32.47h45.41c17.94,0,32.48-14.54,32.48-32.47V255.63l2.8-15.64c5.16-1.37,8.86-6.35,8.05-12.14-.77-5.47-5.76-9.38-11.28-9.38Z"/>
          </g>
        </g>
        <g>
          <path class="cls-124" d="M332.37,311v196.04c0,.7-.05,1.38-.17,2.04-.97,6.11-6.25,10.75-12.62,10.75H180.42c-6.37,0-11.64-4.65-12.62-10.75-.12-.66-.17-1.34-.17-2.04v-196.04h164.73Z"/>
          <polygon class="cls-105" points="335.73 292.3 164.28 292.3 167.63 311.01 332.38 311.01 335.73 292.3"/>
          <rect class="cls-6" x="167.63" y="311" width="164.73" height="78.21"/>
          <rect class="cls-24" x="167.63" y="389.21" width="164.73" height="114.96"/>
          <rect class="cls-24" x="167.63" y="389.21" width="164.73" height="114.96"/>
          <path class="cls-26" d="M340.21,512c0,1.1-.23,2.12-.61,3.06-.21,.47-.45,.9-.73,1.32-.28,.42-.59,.8-.96,1.15-1.39,1.43-3.36,2.31-5.53,2.31H167.64c-4.33,0-7.83-3.5-7.83-7.83s3.5-7.83,7.83-7.83h164.73c2.18,0,4.12,.87,5.53,2.3,1.43,1.41,2.3,3.36,2.3,5.52Z"/>
          <ellipse class="cls-86" cx="250" cy="350.11" rx="40.6" ry="26.97"/>
          <rect class="cls-86" x="167.63" y="348.26" width="35.89" height="3.7"/>
          <rect class="cls-86" x="296.47" y="348.26" width="35.83" height="3.7" transform="translate(628.78 700.21) rotate(180)"/>
          <path class="cls-101" d="M240.47,442.64c4.16-6.47,5.74-10.8,15.25-4.68,9.51,6.12,6.23,9.35,2.07,15.82-4.16,6.47-14.74,13.28-19.01,10.53-4.28-2.75-2.47-15.2,1.69-21.67Z"/>
          <path class="cls-101" d="M247.22,426.56c-3.91-5.58-7.03-8.26,2.23-14.75,9.26-6.49,10.72-2.65,14.63,2.93,3.91,5.58,5.47,16.89,1.31,19.8-4.16,2.92-14.26-2.4-18.17-7.98Z"/>
          <path class="cls-101" d="M285.17,497.87c-.23,1.97-.94,4.18-1.93,6.3h-17.52c-.89-2.94-1.29-6.09-.99-8.68,.78-6.77,.24-10.84,11.47-9.54,11.24,1.32,9.78,5.15,8.98,11.92Z"/>
          <path class="cls-84" d="M332.37,396.75v24.85c-3.32-1.67-6.56-4.26-8.41-6.89-3.92-5.59-7.03-8.25,2.23-14.76,2.59-1.81,4.58-2.82,6.18-3.2Z"/>
          <path class="cls-84" d="M254.89,504.17h-23.02c-1.53-3.01-.96-5.66,5.34-10.08,9.28-6.49,10.72-2.66,14.64,2.92,1.34,1.91,2.4,4.47,3.05,7.15Z"/>
          <path class="cls-84" d="M305.31,412.13c5.05-3.75,7.44-6.69,13.67,1.69,6.22,8.38,2.71,9.82-2.33,13.57-5.05,3.75-15.44,5.47-18.24,1.71-2.8-3.77,1.86-13.22,6.91-16.97Z"/>
          <path class="cls-75" d="M289.36,461.22c4.53,5.09,7.93,7.4-.53,14.91-8.46,7.51-10.34,3.86-14.87-1.23-4.53-5.1-7.37-16.15-3.57-19.52,3.8-3.38,14.44,.75,18.97,5.85Z"/>
          <path class="cls-75" d="M309.77,470.53c-2.67-6.27-5.16-9.54,5.25-13.97,10.41-4.43,11.03-.36,13.7,5.91,2.67,6.27,1.84,17.65-2.84,19.64-4.68,1.99-13.45-5.31-16.11-11.58Z"/>
          <path class="cls-75" d="M247.93,405.19c-8.46,7.5-10.34,3.86-14.86-1.24-3.17-3.57-5.5-10.02-5.33-14.74h19.67c.38,.35,.75,.7,1.06,1.06,4.52,5.1,7.92,7.4-.54,14.91Z"/>
          <path class="cls-75" d="M191.48,439.3c4.53,5.09,7.93,7.4-.53,14.91-8.46,7.51-10.34,3.86-14.87-1.23-4.53-5.1-7.37-16.15-3.57-19.52,3.8-3.38,14.44,.75,18.97,5.85Z"/>
          <path class="cls-67" d="M193.09,407.57c-8.46,7.52-10.35,3.86-14.88-1.24-3.74-4.21-6.32-12.48-4.98-17.12h16.18c1.64,1.03,3.1,2.21,4.19,3.45,4.52,5.1,7.94,7.4-.52,14.91Z"/>
          <path class="cls-67" d="M223.55,504.17h-17.7s-.05-.05-.07-.07c-4.99-5.62-8.13-17.79-3.93-21.51,4.18-3.72,15.91,.84,20.88,6.44,4.72,5.31,8.34,7.87,.82,15.14Z"/>
          <path class="cls-67" d="M320.57,398.96c-9.31,8.28-11.4,4.26-16.38-1.36-1.88-2.12-3.52-5.19-4.58-8.39h26.47c.73,2.51-.5,5.29-5.52,9.75Z"/>
          <path class="cls-75" d="M204.42,476.76c-5.49,3.56-8.18,6.45-14.08-2.67-5.9-9.12-2.16-10.38,3.33-13.93,5.49-3.56,16.4-4.65,19.05-.55,2.65,4.1-2.81,13.6-8.31,17.15Z"/>
          <path class="cls-75" d="M332.37,487.67v16.5h-15.61c-5.36-8.54-1.67-9.85,3.71-13.31,3.08-1.98,7.85-3.2,11.9-3.18Z"/>
          <path class="cls-75" d="M222.65,484.46c-5.18-4-8.8-5.57-2.16-14.16,6.64-8.59,9.07-5.49,14.25-1.48,5.18,4,9.83,13.92,6.85,17.79-2.98,3.86-13.76,1.86-18.94-2.14Z"/>
          <path class="cls-58" d="M249.73,471.17c2.66-5.22,3.44-8.67,12.11-4.25,8.67,4.42,6.34,7.07,3.68,12.3-2.66,5.22-10.62,10.97-14.52,8.98-3.9-1.98-3.93-11.8-1.27-17.02Z"/>
          <path class="cls-58" d="M294.39,489.02c-2.13-5.46-4.19-8.34,4.88-11.87,9.06-3.53,9.5-.03,11.63,5.44,2.13,5.46,1.12,15.23-2.95,16.81-4.07,1.59-11.42-4.92-13.55-10.38Z"/>
          <path class="cls-58" d="M187.19,493.64c-2.09,4.11-6.8,8.46-11.22,10.53h-7.95c-.14-.12-.26-.26-.38-.4v-20.57c3.17-6.33,4.32-10.37,14.95-4.94,10.86,5.52,7.94,8.84,4.61,15.38Z"/>
          <path class="cls-58" d="M276.23,397.32c-2.66,5.24-10.62,10.98-14.51,9-3.9-1.98-3.93-11.82-1.27-17.04,.02-.02,.02-.05,.03-.07h17.58c1.5,2.42-.1,4.72-1.83,8.11Z"/>
          <path class="cls-58" d="M294.09,445.46c2.66-5.22,3.44-8.67,12.11-4.25,8.67,4.42,6.34,7.07,3.68,12.3-2.66,5.22-10.62,10.97-14.52,8.98-3.9-1.98-3.93-11.8-1.27-17.02Z"/>
          <path class="cls-58" d="M195.35,416.32c2.66-5.22,3.44-8.67,12.11-4.25,8.67,4.42,6.34,7.07,3.68,12.3-2.66,5.22-10.62,10.97-14.52,8.98-3.9-1.98-3.93-11.8-1.27-17.02Z"/>
          <path class="cls-58" d="M223.97,405.31c-2.73,3.41-12.36,1.46-16.93-2.21-4.58-3.65-7.8-5.12-1.72-12.7,.35-.44,.68-.82,.99-1.18h11.71s.05,.05,.09,.07c4.58,3.65,8.6,12.62,5.86,16.03Z"/>
          <path class="cls-58" d="M332.37,436.74v15.45c-4.07,.52-10.01-1.24-13.31-3.88-4.58-3.65-7.8-5.12-1.72-12.72,6.07-7.59,8.21-4.77,12.79-1.11,.77,.63,1.53,1.39,2.24,2.26Z"/>
          <path class="cls-59" d="M219.53,426.65c-2.29-6.52-4.54-10.01,5.57-13.56,10.11-3.56,10.55,.57,12.84,7.09,2.29,6.52,1.05,17.87-3.5,19.46-4.54,1.6-12.62-6.47-14.91-12.99Z"/>
          <path class="cls-59" d="M282.94,398.13c6.01-3.41,9.07-6.2,14.09,2.64,5.02,8.84,1.06,10.04-4.95,13.45-6.01,3.41-17.27,4.42-19.53,.45-2.26-3.97,4.38-13.13,10.39-16.54Z"/>
          <path class="cls-125" d="M274.77,431.05c1.56-6.73,1.58-10.87,11.48-8.58,9.9,2.29,8.1,6.02,6.55,12.75-1.56,6.73-8.44,15.7-12.89,14.67-4.45-1.03-6.69-12.11-5.14-18.84Z"/>
          <path class="cls-59" d="M210.56,453.6c-6.04-3.35-10.01-4.51-5.08-13.4,4.93-8.89,8.02-6.13,14.06-2.78,6.04,3.35,12.77,12.44,10.55,16.44-2.22,3.99-13.49,3.1-19.53-.25Z"/>
          <path class="cls-26" d="M332.38,300.13H167.63c-4.33,0-7.83-3.51-7.83-7.83s3.51-7.83,7.83-7.83h164.75c4.33,0,7.83,3.51,7.83,7.83s-3.51,7.83-7.83,7.83Z"/>
          <g class="cls-74">
            <path class="cls-51" d="M272.1,295.78h-10.78c-1.92,0-3.48-1.56-3.48-3.48s1.56-3.48,3.48-3.48h10.78c1.92,0,3.48,1.56,3.48,3.48s-1.56,3.48-3.48,3.48Z"/>
          </g>
          <g class="cls-74">
            <path class="cls-51" d="M244.16,295.78h-68.26c-1.92,0-3.48-1.56-3.48-3.48s1.56-3.48,3.48-3.48h68.26c1.92,0,3.48,1.56,3.48,3.48s-1.56,3.48-3.48,3.48Z"/>
          </g>
          <g class="cls-74">
            <path class="cls-91" d="M188.66,497.72c-2.88,0-5.22-2.34-5.22-5.22v-181.48c0-2.88,2.34-5.22,5.22-5.22s5.22,2.34,5.22,5.22v181.48c0,2.88-2.34,5.22-5.22,5.22Z"/>
          </g>
          <g class="cls-15">
            <path class="cls-16" d="M332.37,504.17v-193.17l2-11.16c3.36-.89,5.83-3.92,5.83-7.55,0-4.32-3.5-7.83-7.83-7.83h-41.77c4.33,0,7.83,3.52,7.83,7.83,0,3.64-2.47,6.67-5.83,7.55l-2,11.16v191.77c0,.46-.02,.93-.08,1.39v.02c-.47,3.93-3.17,7.83-14.88,7.83h-115.83c0,4.33,3.5,7.83,7.83,7.83h128.92s35.81,0,35.81,0c4.33,0,7.83-3.5,7.83-7.83s-3.5-7.83-7.83-7.83Z"/>
          </g>
        </g>
        <g>
          <path class="cls-122" d="M1204.89,370.04v127.78c0,10.99-8.91,19.9-19.9,19.9h-117.85c-2.12,0-4.15-.33-6.06-.94-8.03-2.57-13.83-10.08-13.83-18.96v-127.78h157.63Z"/>
          <path class="cls-55" d="M1204.26,502.79c-2.21,8.58-9.99,14.92-19.26,14.92h-117.85c-9.28,0-17.07-6.34-19.27-14.92h156.38Z"/>
          <polygon class="cls-70" points="1207.76 354 1044.38 354 1047.26 370.04 1204.88 370.04 1207.76 354"/>
          <g class="cls-15">
            <polygon class="cls-16" points="1207.76 354 1044.38 354 1047.26 370.04 1204.88 370.04 1207.76 354"/>
          </g>
          <path class="cls-10" d="M1204.88,360.71h-157.62c-3.71,0-6.71-3.01-6.71-6.71s3.01-6.71,6.71-6.71h157.62c3.71,0,6.71,3.01,6.71,6.71s-3.01,6.71-6.71,6.71Z"/>
          <g class="cls-74">
            <path class="cls-91" d="M1160.88,356.98h-16.22c-1.65,0-2.98-1.34-2.98-2.98s1.34-2.98,2.98-2.98h16.22c1.65,0,2.98,1.34,2.98,2.98s-1.34,2.98-2.98,2.98Z"/>
          </g>
          <g class="cls-74">
            <path class="cls-91" d="M1128.43,356.98h-75.33c-1.65,0-2.98-1.34-2.98-2.98s1.34-2.98,2.98-2.98h75.33c1.65,0,2.98,1.34,2.98,2.98s-1.34,2.98-2.98,2.98Z"/>
          </g>
          <g>
            <path class="cls-70" d="M1151.18,370.04l-43.17,147.68h-40.87c-2.12,0-4.15-.33-6.06-.94l42.89-146.74h47.21Z"/>
            <polygon class="cls-70" points="1190.7 370.04 1147.54 517.72 1121.6 517.72 1164.76 370.04 1190.7 370.04"/>
          </g>
          <g>
            <rect class="cls-70" x="1059.09" y="399.3" width="133.95" height="72.09" rx="23.74" ry="23.74"/>
            <rect class="cls-63" x="1065.06" y="405.27" width="122.02" height="60.16" rx="17.77" ry="17.77"/>
            <path class="cls-27" d="M1134.4,411.65c0,5.41-4.39,9.78-9.78,9.78s-9.78-4.37-9.78-9.78c0-2.83,1.19-4.97,3.09-6.37h13.38c1.9,1.4,3.09,3.55,3.09,6.37Z"/>
            <path class="cls-109" d="M1134.16,455.65c0,5.4-4.38,9.78-9.78,9.78s-9.78-4.38-9.78-9.78,4.38-8.35,9.78-8.35,9.78,2.95,9.78,8.35Z"/>
            <path class="cls-27" d="M1123.63,435.83c0,5.27-4.27,9.55-9.55,9.55s-9.55-4.27-9.55-9.55,4.27-8.16,9.55-8.16,9.55,2.88,9.55,8.16Z"/>
            <path class="cls-100" d="M1109.75,453.77c0,5.82-4.72,10.53-10.53,10.53s-10.53-4.72-10.53-10.53,4.72-9,10.53-9,10.53,3.18,10.53,9Z"/>
            <path class="cls-27" d="M1084.32,462.25c-.26,1.16-.7,2.23-1.28,3.18h-.21c-7.81,0-14.45-5.04-16.82-12.04,2.35-2.39,6.09-3.09,10-2.21,5.67,1.26,9.58,5.41,8.3,11.08Z"/>
            <path class="cls-61" d="M1169.73,430.42c0,5.82-4.72,10.53-10.53,10.53s-10.53-4.72-10.53-10.53,4.72-9,10.53-9,10.53,3.18,10.53,9Z"/>
            <path class="cls-27" d="M1187.08,427.2v17.78c-1.37,.67-2.88,1.02-4.48,1.02-5.83,0-10.53-4.72-10.53-10.53s4.7-9,10.53-9c1.6,0,3.11,.25,4.48,.74Z"/>
            <path class="cls-8" d="M1112.11,408.58c0,5.81-4.72,10.53-10.53,10.53s-10.53-4.72-10.53-10.53c0-1.21,.21-2.32,.6-3.3h19.87c.39,.98,.6,2.09,.6,3.3Z"/>
            <path class="cls-97" d="M1186.15,417.37c-1.54,3.48-4.91,5.97-8.97,6.21-5.81,.33-10.79-4.09-11.15-9.9-.26-4.69,2.97-7.04,7.28-7.95,6.04,1.39,10.88,5.84,12.83,11.64Z"/>
            <path class="cls-119" d="M1077.28,419.19c-4.09,.67-8.02-1.11-10.27-4.25,2.93-5.74,8.92-9.67,15.81-9.67h2.65c.21,.54,.37,1.16,.47,1.83,.95,5.72-2.93,11.15-8.67,12.09Z"/>
            <path class="cls-97" d="M1149.28,419.21c-5.81,.35-10.8-4.07-11.13-9.88-.11-1.61,.23-2.95,.86-4.05h19.57c.33,.81,.53,1.74,.6,2.81,.33,5.81-4.09,10.79-9.9,11.13Z"/>
            <path class="cls-119" d="M1160.86,452.55c.34,5.81-4.08,10.79-9.89,11.14-5.81,.34-10.79-4.08-11.14-9.89-.34-5.81,4.71-8.03,10.51-8.38,5.81-.34,10.17,1.32,10.51,7.13Z"/>
            <path class="cls-32" d="M1103.26,427.75c.33,5.6-3.94,10.4-9.53,10.74s-10.4-3.94-10.74-9.53c-.33-5.6,4.54-7.74,10.13-8.08,5.6-.33,9.8,1.28,10.13,6.87Z"/>
            <path class="cls-32" d="M1142.12,426.88c3.86,3.55,4.11,9.56,.55,13.42-3.55,3.86-9.56,4.1-13.42,.55-3.86-3.55-1.97-8.16,1.58-12.02,3.55-3.86,7.43-5.51,11.29-1.95Z"/>
            <path class="cls-61" d="M1185.06,455.9v.04c-2.88,5.39-8.41,9.16-14.87,9.48-3.72-1.95-5.97-6.11-5.3-10.5,.82-5.55,6.04-6.64,11.58-5.79,4.81,.72,8.28,2.65,8.58,6.78Z"/>
            <path class="cls-95" d="M1071.98,446.81c-2.58,.16-4.98-.63-6.92-2.07v-14.76c1.79-.86,3.98-1.3,6.3-1.44,5.79-.33,10.16,1.33,10.51,7.14,.33,5.79-4.09,10.78-9.9,11.13Z"/>
          </g>
          <g class="cls-74">
            <path class="cls-91" d="M1066.15,491.48c-2.47,0-4.48-2-4.48-4.48v-103.3c0-2.47,2-4.48,4.48-4.48s4.48,2,4.48,4.48v103.3c0,2.47-2,4.48-4.48,4.48Z"/>
          </g>
          <g class="cls-15">
            <path class="cls-53" d="M1204.26,502.79c-2.21,8.58-9.99,14.92-19.26,14.92h-117.85c-9.28,0-17.07-6.34-19.27-14.92h156.38Z"/>
          </g>
          <path class="cls-22" d="M1163.09,494.77h-74.05c-4.81,0-8.7-3.9-8.7-8.7h0c0-4.81,3.9-8.7,8.7-8.7h74.05c4.81,0,8.7,3.9,8.7,8.7h0c0,4.81-3.9,8.7-8.7,8.7Z"/>
          <g class="cls-74">
            <path class="cls-28" d="M1138.01,431.21c-.94,1.45-2.67,1.99-3.87,1.21-1.2-.78-1.42-2.58-.48-4.03,.94-1.45,2.67-1.99,3.87-1.21,1.2,.78,1.42,2.58,.48,4.03Z"/>
          </g>
          <g class="cls-74">
            <path class="cls-28" d="M1148.09,452.6c-.94,1.45-2.67,1.99-3.87,1.21-1.2-.78-1.42-2.58-.48-4.03,.94-1.45,2.67-1.99,3.87-1.21,1.2,.78,1.42,2.58,.48,4.03Z"/>
          </g>
          <g class="cls-74">
            <path class="cls-28" d="M1091.03,426.33c-.94,1.45-2.67,1.99-3.87,1.21-1.2-.78-1.42-2.58-.48-4.03,.94-1.45,2.67-1.99,3.87-1.21,1.2,.78,1.42,2.58,.48,4.03Z"/>
          </g>
          <g class="cls-74">
            <path class="cls-28" d="M1122.61,454.44c-1.72,0-3.12-1.16-3.12-2.59s1.4-2.59,3.12-2.59,3.12,1.16,3.12,2.59-1.4,2.59-3.12,2.59Z"/>
          </g>
          <g class="cls-74">
            <path class="cls-28" d="M1095.38,453.41c-1.72,0-3.12-1.16-3.12-2.59s1.4-2.59,3.12-2.59,3.12,1.16,3.12,2.59-1.4,2.59-3.12,2.59Z"/>
          </g>
          <g class="cls-74">
            <path class="cls-28" d="M1156.12,427.87c-.94,1.45-2.67,1.99-3.87,1.21s-1.42-2.58-.48-4.03c.94-1.45,2.67-1.99,3.87-1.21,1.2,.78,1.42,2.58,.48,4.03Z"/>
          </g>
          <g class="cls-74">
            <path class="cls-28" d="M1113.5,433.9c-.94,1.45-2.67,1.99-3.87,1.21-1.2-.78-1.42-2.58-.48-4.03,.94-1.45,2.67-1.99,3.87-1.21,1.2,.78,1.42,2.58,.48,4.03Z"/>
          </g>
          <g class="cls-74">
            <path class="cls-28" d="M1121.66,413.6c-.94,1.45-2.67,1.99-3.87,1.21-1.2-.78-1.42-2.58-.48-4.03,.94-1.45,2.67-1.99,3.87-1.21,1.2,.78,1.42,2.58,.48,4.03Z"/>
          </g>
          <g class="cls-74">
            <path class="cls-28" d="M1180.58,433.57c-1.59,.67-3.33,.15-3.89-1.17-.56-1.32,.28-2.93,1.86-3.6,1.59-.67,3.33-.15,3.88,1.17,.56,1.32-.28,2.93-1.86,3.6Z"/>
          </g>
          <g class="cls-15">
            <path class="cls-16" d="M1211.59,353.99c0,3.12-2.13,5.7-5,6.46l-1.72,9.58v127.8c0,10.98-8.91,19.88-19.88,19.88h-29.34c10.98,0,19.88-8.91,19.88-19.88v-127.8l1.72-9.58c2.88-.76,5-3.34,5-6.46,0-3.71-3-6.71-6.71-6.71h29.34c3.71,0,6.71,3,6.71,6.71Z"/>
          </g>
        </g>
        <g>
          <rect class="cls-60" x="939.3" y="425.94" width="165.97" height="88.12"/>
          <path class="cls-51" d="M1105.28,431.08h-165.97c-2.83,0-5.13-2.3-5.13-5.13s2.3-5.13,5.13-5.13h165.97c2.84,0,5.13,2.3,5.13,5.13s-2.3,5.13-5.13,5.13Z"/>
          <path class="cls-51" d="M1105.28,519.2h-165.97c-2.83,0-5.13-2.3-5.13-5.13s2.3-5.13,5.13-5.13h165.97c2.84,0,5.13,2.3,5.13,5.13s-2.3,5.13-5.13,5.13Z"/>
          <g class="cls-74">
            <path class="cls-54" d="M1041.97,428.51h-10.41c-1.42,0-2.57-1.15-2.57-2.57s1.15-2.57,2.57-2.57h10.41c1.42,0,2.57,1.15,2.57,2.57s-1.15,2.57-2.57,2.57Z"/>
          </g>
          <g class="cls-74">
            <path class="cls-54" d="M1018.08,428.51h-67.37c-1.42,0-2.57-1.15-2.57-2.57s1.15-2.57,2.57-2.57h67.37c1.42,0,2.57,1.15,2.57,2.57s-1.15,2.57-2.57,2.57Z"/>
          </g>
          <polygon class="cls-88" points="1073.97 458.48 1070.05 461.91 1072.57 466.46 1067.71 468.34 1068.51 473.48 1063.31 473.58 1062.31 478.69 1057.38 477 1054.69 481.46 1050.64 478.19 1046.59 481.46 1043.9 477 1038.98 478.69 1037.98 473.58 1032.77 473.48 1033.57 468.33 1028.72 466.46 1031.24 461.91 1027.32 458.48 1031.24 455.06 1028.72 450.5 1033.57 448.63 1032.77 443.49 1037.98 443.39 1038.98 438.28 1043.9 439.96 1046.59 435.51 1050.64 438.78 1054.69 435.51 1057.38 439.96 1062.31 438.28 1063.31 443.39 1068.51 443.49 1067.71 448.63 1072.57 450.5 1070.05 455.06 1073.97 458.48"/>
          <rect class="cls-88" x="939.31" y="448.44" width="107.92" height="20.08"/>
          <rect class="cls-88" x="939.3" y="489.12" width="165.97" height="10.56"/>
          <g class="cls-74">
            <path class="cls-91" d="M953.92,502.8c-2.83,0-5.13-2.3-5.13-5.13v-53.47c0-2.84,2.3-5.13,5.13-5.13s5.13,2.3,5.13,5.13v53.47c0,2.84-2.3,5.13-5.13,5.13Z"/>
          </g>
          <path class="cls-13" d="M1105.27,508.93v-77.85c1.42,0,2.7-.56,3.63-1.51,1.03-1.01,1.61-2.45,1.49-4.03-.2-2.71-2.63-4.73-5.35-4.73h-33.7c2.84,0,5.13,2.31,5.13,5.13,0,1.42-.58,2.7-1.51,3.63-.92,.94-2.21,1.51-3.63,1.51h0s-132.03,0-132.03,0v7.99h124.49c4.17,0,7.54,3.38,7.54,7.54v62.32c2.84,0,5.13,2.31,5.13,5.13s-2.29,5.13-5.13,5.13h33.72c2.48,0,4.75-1.66,5.24-4.09,.65-3.27-1.85-6.17-5.03-6.17Z"/>
        </g>
        <g>
          <rect class="cls-96" x="378.06" y="410.13" width="199.47" height="105.9"/>
          <polygon class="cls-31" points="577.53 410.13 577.53 516.03 459.25 516.03 513.17 410.13 577.53 410.13"/>
          <path class="cls-87" d="M577.55,416.29h-199.47c-3.41,0-6.17-2.76-6.17-6.17s2.76-6.17,6.17-6.17h199.47c3.41,0,6.17,2.76,6.17,6.17s-2.76,6.17-6.17,6.17Z"/>
          <path class="cls-87" d="M577.55,522.2h-199.47c-3.41,0-6.17-2.76-6.17-6.17s2.76-6.17,6.17-6.17h199.47c3.41,0,6.17,2.76,6.17,6.17s-2.76,6.17-6.17,6.17Z"/>
          <g class="cls-74">
            <path class="cls-91" d="M395.64,502.49c-3.41,0-6.17-2.76-6.17-6.17v-64.26c0-3.41,2.76-6.17,6.17-6.17s6.17,2.76,6.17,6.17v64.26c0,3.41-2.76,6.17-6.17,6.17Z"/>
          </g>
          <g class="cls-74">
            <path class="cls-54" d="M501.46,413.21h-12.51c-1.7,0-3.08-1.38-3.08-3.08s1.38-3.08,3.08-3.08h12.51c1.7,0,3.08,1.38,3.08,3.08s-1.38,3.08-3.08,3.08Z"/>
          </g>
          <g class="cls-74">
            <path class="cls-54" d="M472.76,413.21h-80.97c-1.7,0-3.08-1.38-3.08-3.08s1.38-3.08,3.08-3.08h80.97c1.7,0,3.08,1.38,3.08,3.08s-1.38,3.08-3.08,3.08Z"/>
          </g>
          <ellipse class="cls-92" cx="477.8" cy="463.07" rx="64.27" ry="23.48"/>
          <path class="cls-104" d="M516.54,439.59c5.31,12.05-.69,32.27-31.37,44.1-30.67,11.82-49.13,9.08-49.13,9.08-3.82-1.03-6.65-4.06-6.65-4.06l18-4.34,14.48-6.51,33.75-14.79,10.3-17.08,10.63-6.4Z"/>
          <g>
            <path class="cls-48" d="M516.54,442.51c-.06,.41-.14,.82-.25,1.25-.1,.41-.23,.84-.37,1.27,0,.02-.02,.06-.02,.08-.14,.41-.31,.82-.47,1.23-.02,.04-.04,.08-.06,.12-.08,.23-.18,.47-.31,.72-.1,.19-.19,.39-.27,.58-.72,1.4-1.6,2.86-2.67,4.36-.16,.25-.35,.51-.53,.76-.16,.23-.33,.45-.53,.68-.04,.06-.06,.1-.1,.14-.16,.23-.35,.45-.53,.68-.21,.25-.41,.51-.64,.76-.41,.51-.86,1.03-1.34,1.54-.45,.51-.93,1.03-1.44,1.54-.7,.74-1.44,1.46-2.2,2.2-.04,.06-.1,.1-.14,.12-1.91,1.83-4.01,3.64-6.29,5.43-3.19,2.47-6.68,4.89-10.47,7.18l-.43,.27c-20.28,12.11-58.07,15.28-58.07,15.28,0,0,21.92-7.42,34.73-15.07,12.81-7.65,13.06-10.34,11.68-12.65-1.38-2.3-3.87-3.37-16.68,4.28-12.42,7.42-28.69,22.46-29.69,23.4,.82-1.27,21.1-31.98,40.96-43.84,.72-.43,1.44-.84,2.16-1.25,3.21-1.83,6.42-3.43,9.56-4.81,12.11-5.31,23.07-7.14,29.28-4.87,1.91,.7,3.37,1.79,4.28,3.29,.9,1.5,1.17,3.31,.86,5.33Z"/>
            <path class="cls-107" d="M464.12,473.65c-12.81,7.65-34.73,15.07-34.73,15.07l.02-.02s.02,0,.02-.02c1.01-.95,17.27-15.98,29.69-23.4,12.81-7.65,15.3-6.58,16.68-4.28,1.38,2.3,1.13,5-11.68,12.65Z"/>
            <path class="cls-47" d="M489.5,464.19v.02c-.04,.37-.41,4.44-1.6,8.97l-.43,.27c-20.28,12.11-58.07,15.28-58.07,15.28,0,0,21.92-7.42,34.73-15.07,12.81-7.65,13.06-10.34,11.68-12.65-1.38-2.3-3.87-3.37-16.68,4.28-12.42,7.42-28.69,22.46-29.69,23.4,.82-1.27,21.1-31.98,40.96-43.84,.72-.43,1.44-.84,2.16-1.25,2.88-.33,5.45-.08,6.85,1.36l2.55-.53,4.89,7.32,.31,.47,.56,.82,.82,1.21v.02l.23,.33,.06,.68,.04,.64v.02l.64,8.27Z"/>
            <path class="cls-36" d="M489.61,452.13c-8.84,5.28-13.62-6.72-7.5-13.35,12.12-5.32,23.09-7.15,29.29-4.89,3.49,2.24-12.38,12.62-21.79,18.24Z"/>
            <path class="cls-36" d="M490.16,453.06c-8.84,5.28-.55,15.18,8.2,12.93,10.43-8.15,17.24-16.94,18.19-23.47-.32-4.14-16.98,4.91-26.39,10.53Z"/>
            <g>
              <path class="cls-98" d="M488.78,455.97c-1.52,.91-3.3,.75-3.96-.36-.66-1.11,.04-2.74,1.56-3.65,1.52-.91,3.3-.75,3.96,.36,.66,1.11-.04,2.74-1.56,3.65Z"/>
              <path class="cls-126" d="M488.54,455.46c-1.17,.7-2.52,.58-3.02-.26-.5-.84,.04-2.09,1.21-2.78,1.17-.7,2.52-.58,3.02,.26,.5,.84-.04,2.09-1.21,2.78Z"/>
            </g>
          </g>
          <path class="cls-13" d="M577.54,509.85v-93.57c1.71,0,3.25-.68,4.36-1.81,1.24-1.22,1.93-2.95,1.79-4.85-.25-3.26-3.16-5.68-6.43-5.68h-40.5c3.41,0,6.17,2.78,6.17,6.17,0,1.71-.7,3.25-1.81,4.36-1.11,1.13-2.65,1.81-4.36,1.81h0s-158.69,0-158.69,0v9.6h149.62c5.01,0,9.07,4.06,9.07,9.07v74.9c3.41,0,6.17,2.78,6.17,6.17s-2.76,6.17-6.17,6.17h40.53c2.98,0,5.71-2,6.29-4.92,.78-3.93-2.22-7.42-6.05-7.42Z"/>
        </g>
      </g>
    </g>
  </g>
</svg>